<svg width="1282" height="1282" viewBox="0 0 1282 1282" fill="none" xmlns="http://www.w3.org/2000/svg">
<path d="M620.456 0.309204C558.708 2.29718 496.126 13.4555 438.033 32.8864C356.6 60.0767 283.567 102.145 217.458 159.796C203.993 171.596 171.099 204.493 159.109 218.217C73.2514 316.654 19.9032 435.932 4.64248 563.547C-0.294803 604.525 -1.32073 648.838 1.69293 688.918C7.91262 772.028 29.2648 850.2 66.134 924.91C98.4508 990.256 138.462 1045.6 190.977 1097.41C221.498 1127.62 249.968 1150.9 285.106 1174.37C380.132 1237.98 487.662 1274.09 603.464 1281.21C620.135 1282.23 662.134 1282.3 678.485 1281.21C734.398 1277.74 784.669 1268.32 837.504 1251.51C892.391 1234.07 948.817 1206.75 997.485 1173.98C1035.25 1148.59 1065.2 1123.71 1098.15 1090.3C1127.39 1060.61 1150.92 1031.75 1174.14 997.054C1260.96 867.259 1296.93 711.94 1276.34 555.531C1271.92 521.8 1263.46 483.451 1253.39 451.323C1247.43 432.213 1246.34 429.263 1238.96 409.64C1237.3 405.151 1229.66 386.81 1227.55 382.064C1221.33 368.341 1219.02 363.403 1213.19 351.924C1189.01 304.149 1159 259.708 1122.84 218.217C1110.66 204.237 1077.89 171.467 1064.04 159.411C972.798 79.8924 865.332 28.718 747.607 8.83826C707.596 2.10479 661.365 -1.03749 620.456 0.309204ZM726.255 529.046V587.595L728.627 584.068C736.963 571.627 753.249 561.559 771.139 557.712C780.116 555.788 797.493 555.595 805.764 557.327C822.243 560.79 834.747 567.395 845.519 578.297C860.587 593.495 869.308 614.144 871.872 640.501C872.642 648.966 872.321 663.972 871.167 671.283C867.64 693.215 859.433 710.593 846.224 723.804C832.567 737.399 815.254 745.158 794.543 746.954C767.805 749.263 743.888 740.156 730.936 722.649C728.884 719.892 726.896 717.134 726.511 716.429C725.934 715.467 725.678 716.621 725.101 722.136C724.652 725.92 724.011 732.012 723.626 735.732L722.856 742.465H702.145H681.37V606.513V470.561H703.813H726.255V529.046ZM952.6 606.513V742.465H930.479H908.357V606.513V470.561H930.479H952.6V606.513ZM364.102 474.217C371.604 477.744 377.119 484.028 379.042 491.403C383.595 509.038 371.027 525.712 353.009 525.712C332.94 525.712 319.731 504.806 328.515 486.914C331.785 480.116 338.967 474.409 346.469 472.485C347.815 472.165 351.342 471.972 354.356 472.036C358.908 472.229 360.511 472.549 364.102 474.217ZM621.161 473.127C626.163 474.858 629.048 476.718 632.703 480.63C637.64 485.952 639.692 491.082 639.692 498.521C639.692 506.858 636.807 513.335 630.33 519.235C625.201 523.916 621.097 525.327 612.761 525.391C606.478 525.391 605.708 525.263 601.669 523.339C584.613 515.259 580.188 493.968 592.884 480.565C596.282 476.974 601.925 473.511 606.093 472.549C610.581 471.523 617.058 471.78 621.161 473.127ZM506.963 558.866C520.62 562.521 529.725 567.716 538.51 576.95C546.974 585.864 552.039 597.279 552.937 609.527L553.322 614.85H532.098H510.938L510.553 613.054C510.425 612.092 510.04 610.169 509.848 608.758C508.886 602.73 503.692 595.996 497.729 592.918C489.714 588.814 475.095 589.006 466.118 593.431C453.871 599.395 451.819 616.71 462.399 624.661C467.272 628.317 473.428 630.305 496.062 635.692C507.54 638.385 519.466 641.463 522.608 642.489C546.012 650.313 556.977 664.934 556.977 688.277C556.977 702.321 551.975 715.082 542.806 724.83C534.086 733.936 524.788 739.387 510.81 743.427C500.935 746.249 493.369 747.211 480.673 747.146C455.923 747.082 436.879 740.349 423.542 727.138C414.18 717.776 408.922 706.361 407.832 692.766L407.383 687.315L428.8 687.443L450.216 687.635L450.665 691.291C451.627 698.922 457.205 706.297 464.451 709.503C478.301 715.659 500.743 713.351 509.207 704.95C512.926 701.166 514.336 697.575 514.336 691.483C514.336 683.852 511.708 679.684 504.718 676.156C500.615 674.104 496.19 672.886 472.017 667.179C461.116 664.549 449.639 661.535 446.561 660.381C435.789 656.469 425.273 648.71 420.336 641.078C415.463 633.511 413.283 624.726 413.283 612.99C413.283 597.086 418.412 585.094 429.569 574.706C439.508 565.471 452.781 559.828 471.376 556.942C472.466 556.75 479.198 556.686 486.444 556.814C498.755 556.942 500.038 557.07 506.963 558.866ZM165.072 569.319C169.496 581.118 182.385 615.299 191.361 638.898C195.593 650.056 204.442 676.156 206.879 684.621C207.969 688.405 208.995 691.932 209.187 692.445C209.379 692.958 210.918 688.79 212.649 683.146C217.715 666.601 219.318 662.305 247.659 590.674L259.137 561.623H282.156H305.111L304.727 563.163C304.534 563.996 296.84 582.722 287.67 604.718C278.437 626.65 261.83 666.665 250.609 693.535L230.283 742.465H208.097H185.975L181.038 730.088C154.3 662.754 147.759 646.273 143.72 636.012C141.155 629.471 133.653 610.553 127.049 594.008C120.444 577.399 114.866 563.355 114.737 562.714C114.417 561.688 115.699 561.623 138.334 561.752L162.315 561.944L165.072 569.319ZM375.516 652.044V742.465H353.073H330.631V652.044V561.623H353.073H375.516V652.044ZM635.396 562.521C635.973 563.932 635.845 740.798 635.268 741.695C634.883 742.273 629.689 742.465 612.697 742.337L590.64 742.144L590.448 652.686C590.383 603.499 590.448 562.842 590.64 562.393C591.089 561.175 634.947 561.239 635.396 562.521ZM1038.01 577.656C1043.46 592.277 1054.74 622.417 1057.12 628.958C1067.38 656.79 1080.46 691.611 1080.78 691.996C1081.03 692.253 1084.18 684.172 1087.7 674.04C1091.29 663.844 1100.33 638.257 1107.77 617.094C1115.21 595.932 1122.2 575.988 1123.29 572.846C1124.38 569.639 1125.53 566.69 1125.92 566.241C1126.37 565.664 1131.75 565.471 1148.87 565.471C1161.12 565.471 1171.32 565.664 1171.44 565.92C1171.76 566.433 1168.05 576.245 1148.42 626.714C1146.95 630.561 1142.91 640.95 1139.51 649.8C1130.79 672.501 1119.7 701.102 1112.9 718.738C1109.7 727.01 1105.78 737.142 1104.25 741.182L1101.36 748.621L1103.35 753.688C1104.44 756.509 1105.85 760.357 1106.49 762.217C1109.44 770.361 1114.89 778.056 1120.02 781.327C1121.37 782.16 1124.25 783.443 1126.49 784.277C1130.21 785.559 1131.95 785.687 1149 785.944L1167.4 786.201V804.349V822.497L1164.13 823.202C1150.54 826.152 1135.22 827.178 1125.47 825.896C1104.12 823.01 1090.01 812.108 1078.79 789.599C1077.19 786.393 1065.39 757.728 1052.63 725.792C1039.87 693.856 1020.38 645.183 1009.28 617.607C998.19 589.968 989.149 566.946 989.149 566.433C989.149 565.599 991.842 565.471 1011.33 565.599L1033.58 565.792L1038.01 577.656Z" fill="black"/>
<path d="M769.41 596.828C748.955 600.099 733.887 613.822 728.757 633.959C725.102 648.195 726.449 666.151 732.027 678.143C737.734 690.52 747.096 698.921 760.304 703.474C766.139 705.526 766.652 705.59 776.912 705.59C786.273 705.59 788.069 705.397 792.301 704.115C806.279 699.69 814.679 692.572 820.898 679.939C825.643 670.255 826.477 665.894 826.541 651.722C826.605 637.229 825.707 632.676 820.385 621.903C817.628 616.259 816.282 614.4 811.857 609.975C807.561 605.614 805.638 604.267 800.572 601.83C797.238 600.227 792.557 598.432 790.185 597.854C785.055 596.636 774.155 596.123 769.41 596.828Z" fill="black"/>
</svg>
