<svg width="288" height="288" viewBox="0 0 288 288" fill="none" xmlns="http://www.w3.org/2000/svg">
<g clip-path="url(#clip0_1026_1885)">
<g clip-path="url(#clip1_1026_1885)">
<path d="M175.601 122.309C175.731 121.919 175.905 121.572 176.078 121.181C176.642 120.097 177.206 118.926 177.076 117.451V117.407L177.033 117.364C176.946 117.234 176.859 117.06 176.772 116.887C176.556 116.453 176.295 115.976 175.645 115.932C172.695 115.759 170.656 118.188 169.918 119.229C168.01 122.353 166.361 125.519 164.756 128.643C162.631 132.764 160.462 137.015 157.685 141.006C155.256 138.88 152.48 137.275 149.833 135.757C145.842 133.458 142.112 131.289 139.205 127.471C135.778 123.22 135.735 117.537 135.692 112.028C135.648 109.295 135.648 106.475 135.171 103.829C134.39 96.4547 128.49 89.4705 121.506 87.5184C119.598 86.9544 117.168 86.2604 114.826 86.3471C112.917 86.217 110.054 86.1302 107.495 86.8243C101.204 87.9088 96.1724 92.0733 91.5741 96.2811L1.73403 172.456L1.25685 172.847H1.86417C8.3278 172.934 24.3784 173.151 27.4584 173.281C17.8714 181.263 10.063 187.249 2.99205 192.194L2.94867 192.238C2.73177 192.498 2.47149 192.802 2.25459 193.062C0.866432 194.624 -0.651869 196.402 0.302491 198.658C0.909812 199.743 1.95093 200.567 3.55599 201.261C4.46697 201.434 5.37795 201.521 6.3757 201.521C9.67258 201.521 13.3599 200.437 17.5677 198.224C24.9857 193.539 31.4493 187.336 37.6961 181.306C40.5158 178.616 43.3789 175.84 46.3721 173.194C47.6735 173.194 63.7675 173.02 70.8818 173.237H70.9686L71.4891 172.804L71.359 172.63C71.3156 172.587 67.2379 166.6 64.5917 163.997C64.1145 163.607 63.5939 163.13 63.0734 162.653C61.9889 161.611 60.861 160.527 59.4728 160.05L59.3861 160.006L59.2559 160.093C57.2171 161.959 55.265 163.867 53.3563 165.689C51.0571 167.945 48.6712 170.287 46.0684 172.5L28.6297 172.543C28.5863 172.587 28.4995 172.543 28.4561 172.543C35.744 166.383 42.5546 160.353 49.7557 154.02L50.927 152.979L51.1873 151.504C51.7078 149.161 54.4841 148.381 56.0892 148.077L56.2193 148.034C63.4638 142.394 102.506 106.259 102.94 105.868C102.983 105.825 106.453 101.14 110.922 100.359C112.787 100.315 114.392 101.053 115.26 102.398C115.997 103.569 116.084 105.348 115.476 106.562C114.739 107.733 113.958 108.948 113.221 110.119C112.136 111.811 111.008 113.59 110.011 115.368C105.499 123.307 100.857 131.506 97.6039 140.268V140.355V140.399C97.6907 141.44 98.8185 141.44 99.5126 141.44L100.554 141.266C103.72 140.659 106.453 140.182 109.36 139.054C110.141 138.924 110.922 138.707 111.702 138.447C113.307 137.969 114.869 137.492 116.474 138.143C118.253 139.227 117.732 140.832 117.168 142.524C116.908 143.305 116.648 144.129 116.648 144.867C116.648 145.431 117.168 145.691 117.559 145.865C117.645 145.951 117.776 145.995 117.862 146.038L117.906 146.081H117.993C119.554 145.865 120.899 144.997 122.2 144.129C122.851 143.696 123.545 143.218 124.239 142.871C124.63 142.698 125.063 142.437 125.497 142.221C127.319 141.179 129.228 140.095 131.093 141.353C131.701 141.874 131.527 142.741 131.397 143.609C131.137 144.086 130.92 144.52 130.659 144.997C129.488 147.166 128.317 149.422 127.97 151.981C127.796 152.935 128.534 153.499 129.228 153.933C130.096 154.193 130.876 153.89 131.657 153.586C132.004 153.413 132.308 153.282 132.655 153.239L132.742 153.196C134.173 152.155 135.561 151.07 136.95 150.029C140.984 146.949 145.148 143.782 149.877 142.134C150.311 142.09 150.788 141.917 151.265 141.787C152.393 141.483 153.347 141.179 154.085 142.177C154.128 142.785 153.911 143.305 153.347 143.739C150.267 145.127 147.578 146.515 145.192 149.031C144.975 149.335 144.715 149.639 144.454 149.942C143.326 151.33 142.155 152.719 142.155 154.757V154.801C142.459 155.799 143.326 155.929 144.021 156.059H144.064L144.107 156.015C150.484 153.76 154.605 147.296 157.902 142.134V142.09C159.29 143.132 160.635 144.259 161.286 145.821L158.683 150.289C158.509 150.723 158.293 151.113 158.076 151.547C157.338 152.849 156.557 154.367 157.425 155.972L157.468 156.015C158.813 157.49 161.242 156.926 162.717 156.536C162.891 156.623 163.411 156.796 163.368 157.317C161.763 159.746 158.856 160.137 155.95 160.18C154.562 160.353 153.564 159.486 152.48 158.575C151.265 157.49 149.964 156.362 148.011 157.057C145.365 158.662 142.589 160.267 139.422 160.614C137.991 160.917 136.646 160.267 135.822 158.922C135.561 158.662 135.518 158.228 135.475 157.794C135.345 157.143 135.258 156.362 134.39 156.146H134.303H134.26C132.959 156.666 131.831 157.447 130.703 158.184C129.098 159.269 127.579 160.267 125.714 160.614C125.497 160.614 125.324 160.614 125.107 160.657C123.936 160.744 122.808 160.874 121.983 159.92C120.682 158.879 121.029 157.404 121.376 155.799C121.55 155.148 121.68 154.497 121.68 153.89V153.803L121.636 153.716C120.595 152.892 119.337 153.63 118.773 154.02C117.255 154.757 115.867 155.842 114.522 156.883C111.789 158.965 109.013 161.134 105.456 160.874C104.588 160.787 103.504 160.18 103.157 159.182C102.766 156.71 103.677 154.541 104.545 152.458C104.718 152.024 104.892 151.547 105.109 151.07C105.109 150.897 105.195 150.68 105.239 150.419C105.499 149.639 105.803 148.511 104.805 147.86C103.373 147.339 101.942 147.643 100.51 147.947C99.9464 148.077 99.3825 148.207 98.8185 148.25C98.4281 148.294 98.0811 148.381 97.6907 148.424C96.0422 148.684 94.1769 148.944 92.9189 150.072L92.8755 150.116C90.4462 154.15 81.9437 172.5 81.8569 172.673L81.7268 172.977L166.969 173.194H167.185L167.272 163.043C167.359 156.319 165.624 150.419 162.11 145.517C165.754 138.707 170.049 131.332 175.601 122.309Z" fill="black"/>
<path d="M86.2399 143.869L87.1943 143.045L87.4112 142.611C90.014 137.883 92.6602 132.938 94.6556 127.775C95.0461 127.255 94.9159 126.821 94.6123 126.604C94.2218 126.301 93.3542 126.301 92.9638 126.778L73.356 146.169L74.0501 146.082C74.1369 146.038 82.4225 144.607 86.1965 143.869H86.2399ZM191.436 155.495C191.089 155.278 190.699 155.365 190.265 155.452C189.658 155.582 189.311 155.625 189.094 155.278C188.66 154.064 189.094 153.066 189.571 152.025C189.875 151.244 190.222 150.463 190.265 149.509C190.135 148.858 189.918 148.468 189.398 148.077C188.747 147.73 188.183 147.991 187.706 148.251C187.532 148.338 187.402 148.381 187.229 148.468L187.142 148.511C186.621 148.988 186.144 149.509 185.667 149.986C183.194 152.459 180.678 155.018 177.555 156.189C176.774 156.363 175.863 156.45 175.386 155.842C175.039 155.409 175.169 154.845 175.299 154.367C175.299 154.281 175.342 154.194 175.342 154.151C177.902 150.246 182.197 147.513 188.053 145.952C188.53 145.822 189.007 145.475 189.224 145.041C189.398 144.694 189.398 144.347 189.267 144V143.956C188.877 143.219 188.009 143.219 187.359 143.219C187.142 143.219 186.968 143.219 186.795 143.219H186.751H186.708C184.192 143.739 181.242 144.433 178.422 145.605C173.347 147.644 169.573 151.287 168.315 155.322C167.794 156.927 168.185 158.749 169.443 160.18L169.486 160.224C170.527 160.918 171.612 161.178 172.696 161.178C175.516 161.178 178.292 159.313 180.678 157.708L181.112 157.447C181.546 157.1 181.849 156.97 182.11 157.057C182.457 157.144 182.674 157.621 182.934 158.142C183.281 158.836 183.715 159.747 184.669 159.92C185.363 160.354 186.535 160.311 187.185 160.007C188.834 159.66 191.046 158.489 191.87 156.406L191.914 156.363V156.276C191.827 155.886 191.697 155.625 191.436 155.495ZM218.592 155.756C217.812 155.495 217.074 155.625 216.337 155.756C215.643 155.886 214.905 156.016 214.168 155.799C212.606 154.975 212.953 153.587 213.343 151.982C213.56 151.114 213.777 150.246 213.647 149.379C213.43 148.511 212.519 148.077 211.868 147.817L211.825 147.774L211.782 147.817C209.873 148.077 208.355 149.249 206.836 150.376C206.619 150.55 206.403 150.724 206.142 150.897C205.795 151.027 205.405 151.287 205.058 151.504C204.19 152.025 203.409 152.545 202.629 152.025C202.715 150.897 203.323 149.986 203.973 148.988C204.667 147.86 205.405 146.689 205.361 145.258L205.318 145.171C205.231 144.78 204.928 144.477 204.537 144.26C204.06 144 203.453 143.956 202.889 144.173C200.329 145.778 198.16 148.381 196.252 152.112C196.122 152.459 195.991 152.806 195.818 153.196C194.994 155.062 193.953 157.361 195.644 159.269C196.599 160.007 197.77 159.703 198.768 159.443L198.941 159.4C200.937 158.532 202.802 157.187 204.581 155.886C205.405 155.278 206.316 154.628 207.14 154.107C207.357 153.977 207.747 154.107 208.008 154.411C208.094 154.801 208.051 155.278 208.051 155.799C208.008 157.1 207.964 158.575 209.309 159.4C210.046 159.703 210.871 159.833 211.738 159.833C213.777 159.833 216.12 159.009 218.636 157.404L218.679 157.317C219.07 156.753 219.07 156.233 218.679 155.799L218.592 155.756ZM68.7578 153.283C67.76 153.413 66.8057 153.543 65.9814 154.281L65.9381 154.324V154.411C65.6778 155.756 66.6321 156.58 67.5431 157.361C67.9769 157.751 68.4107 158.142 68.7144 158.575L68.8011 158.619C69.6254 159.183 70.2761 159.963 70.9268 160.744C71.7944 161.829 72.7487 162.957 74.267 163.304C75.3081 163.304 76.1757 162.913 76.8264 162.132C78.5616 160.137 79.7763 157.838 80.9475 155.582C81.5982 154.367 82.2489 153.109 82.9864 151.938L83.0732 151.027L82.8129 151.071C80.6005 151.504 78.3014 151.808 76.089 152.112C73.8766 152.415 71.5775 152.762 69.3651 153.196C69.1482 153.24 68.9313 153.24 68.7578 153.283ZM224.882 152.502C225.056 152.459 225.186 152.415 225.36 152.372C226.01 152.242 226.488 152.155 226.748 152.372C226.357 153.066 225.924 153.76 225.143 154.367C224.492 154.541 224.188 153.717 224.102 153.456C224.015 152.979 224.362 152.762 224.882 152.502ZM256.68 147.904C255.812 148.728 254.554 148.945 253.34 149.118C252.776 149.205 252.212 149.292 251.648 149.422C251.084 149.335 250.433 149.422 249.826 149.466C249.262 149.509 248.655 149.596 248.091 149.509C250.13 147.557 253.079 146.559 256.116 146.906L256.68 147.21C256.723 147.47 256.723 147.644 256.68 147.904ZM286.352 147.166H286.309C275.767 152.545 266.31 155.625 256.637 156.84C256.333 156.84 256.029 156.84 255.726 156.84C252.082 156.927 248.004 157.014 246.356 153.456C246.139 153.023 246.182 152.415 246.442 151.982C247.18 151.938 247.874 151.851 248.611 151.808C251.952 151.591 255.379 151.331 258.762 150.463C259.066 150.333 259.413 150.203 259.76 150.073C260.845 149.726 261.972 149.379 262.753 148.338L262.797 148.294C263.014 147.644 262.97 146.733 262.406 146.255C259.543 144.39 256.116 144.173 252.559 144.13C247.353 144.564 242.018 145.518 238.504 149.596L235.684 149.682C235.38 149.596 235.033 149.639 234.6 149.639C233.775 149.726 233.211 149.726 232.995 149.205C234.339 146.429 235.901 143.696 237.376 141.006C238.46 139.098 239.545 137.102 240.586 135.15C241.28 133.935 242.018 132.461 242.018 130.812L241.974 130.769C241.714 129.901 240.846 129.901 240.152 129.858C240.022 129.858 239.849 129.858 239.718 129.858H239.675H239.632C237.983 130.422 236.378 131.983 235.467 134.022C234.513 136.018 233.602 138.057 232.734 140.009C231.303 143.175 229.828 146.472 228.093 149.596C226.921 149.639 225.707 149.552 224.535 149.466C222.93 149.335 221.282 149.205 219.677 149.466L219.59 149.509C219.503 149.552 219.373 149.639 219.286 149.682C218.809 149.899 218.115 150.29 218.419 151.157V151.201C218.809 151.808 219.33 152.372 219.85 152.936C220.371 153.5 220.935 154.151 221.369 154.801C221.846 155.365 222.15 156.103 222.453 156.84C223.061 158.185 223.668 159.573 225.36 159.877C226.357 160.224 227.355 159.79 228.179 158.532C229.047 156.797 230.175 154.541 231.476 152.329L237.333 152.198L237.506 152.372C237.636 156.103 241.324 158.055 243.536 158.922C246.312 159.79 249.132 160.137 251.995 160.137C257.591 160.137 263.23 158.792 268.393 157.491L268.523 157.447C276.418 154.714 282.491 151.851 287.653 148.424L287.74 148.338L287.87 147.904L287.827 147.817C287.783 147.47 287.436 147.036 286.352 147.166Z" fill="black"/>
<path d="M211.087 107.952L218.115 102.659L225.186 107.735L222.67 99.3192L229.307 94.157L229.654 93.8967H220.761L218.115 86.0449L215.555 93.8967H206.836L213.777 99.3192L211.087 107.952Z" fill="black"/>
<path d="M269.565 107.518L269.435 107.952L276.462 102.659L283.533 107.735L281.017 99.3192L287.654 94.157L288.001 93.8967H279.109L276.462 86.0449L273.903 93.8967H265.184L272.124 99.3192L269.565 107.518Z" fill="black"/>
<path d="M240.37 107.518L240.197 107.952L247.268 102.659L254.338 107.735L251.822 99.3192L258.46 94.157L258.807 93.8967H249.87L247.268 86.0449L244.708 93.8967H235.945L242.929 99.3192L240.37 107.518Z" fill="black"/>
<path d="M178.336 181.827H182.761V201.565H184.93V181.827H189.311V179.658H178.336V181.827Z" fill="black"/>
<path d="M278.849 179.658H276.68V201.565H286.57V199.439H278.849V179.658Z" fill="black"/>
<path d="M138.687 197.228C136.995 199.05 134.869 199.961 132.396 199.961L132.353 199.917C129.837 199.917 127.711 199.006 125.933 197.228C124.198 195.449 123.373 193.193 123.373 190.504C123.373 189.159 123.634 187.901 124.241 186.6C124.848 185.342 125.629 184.257 126.714 183.346C127.494 182.695 128.362 182.175 129.273 181.828C130.227 181.481 131.225 181.307 132.266 181.307C132.31 181.307 132.31 181.351 132.353 181.351C134.782 181.351 136.908 182.262 138.643 183.997C140.422 185.819 141.289 187.944 141.289 190.46C141.289 193.107 140.422 195.406 138.687 197.228ZM140.161 182.392C139.077 181.351 137.819 180.526 136.561 180.049C135.259 179.529 133.828 179.225 132.353 179.225C132.31 179.225 132.31 179.182 132.266 179.182C130.748 179.182 129.316 179.485 128.058 180.006C126.757 180.526 125.586 181.307 124.501 182.392C123.417 183.476 122.549 184.734 121.985 186.122C121.378 187.511 121.074 188.986 121.074 190.504C121.074 193.757 122.115 196.49 124.284 198.703C126.41 200.915 129.1 201.956 132.266 201.956C132.31 201.956 132.31 201.913 132.353 201.913C133.915 201.913 135.476 201.609 136.778 201.089C138.209 200.481 139.467 199.57 140.595 198.312C141.55 197.271 142.287 196.1 142.764 194.755C143.285 193.454 143.502 192.022 143.502 190.504C143.502 188.942 143.198 187.467 142.634 186.122C142.07 184.734 141.246 183.476 140.161 182.392Z" fill="black"/>
<path d="M81.1189 189.462H70.7076V179.658H68.582V201.565H70.7076V191.588H81.1189V201.565H83.2445V179.658H81.1189V189.462Z" fill="black"/>
<path d="M226.355 201.565H237.721V199.439H228.524V191.631H237.721V189.462H228.524V181.827H237.721V179.658H226.355V201.565Z" fill="black"/>
</g>
</g>
<defs>
<clipPath id="clip0_1026_1885">
<rect width="288" height="288" fill="white"/>
</clipPath>
<clipPath id="clip1_1026_1885">
<rect width="288" height="288" fill="white"/>
</clipPath>
</defs>
</svg>
