<svg width="198" height="236" viewBox="0 0 198 236" fill="none" xmlns="http://www.w3.org/2000/svg">
<path d="M13.3584 155.968C11.7214 155.968 10.3278 156.508 9.17779 157.59C8.02651 158.674 7.45087 159.993 7.45087 161.506L7.45087 183.29C7.45087 184.888 8.03151 186.242 9.17779 187.29C10.3241 188.339 11.7214 188.871 13.3584 188.871C14.918 188.871 16.2865 188.339 17.4328 187.29C18.5779 186.242 19.1597 184.898 19.1597 183.29L19.1597 161.506C19.1597 159.982 18.5779 158.668 17.4328 157.59C16.2865 156.514 14.918 155.968 13.3584 155.968ZM7.45087 135.195V150.329C9.40505 149.475 11.3742 149.035 13.3584 149.035C15.1914 149.035 16.8934 149.351 18.4617 149.974C20.0188 150.594 21.4311 151.497 22.6723 152.664C23.9147 153.832 24.8924 155.175 25.5817 156.651C26.276 158.141 26.6256 159.764 26.6256 161.506L26.6256 183.29C26.6256 185.059 26.2697 186.71 25.5817 188.201C24.8862 189.704 23.9097 191.011 22.6723 192.087C21.4361 193.166 20.0188 194.06 18.4617 194.736C16.8946 195.417 15.1914 195.762 13.3584 195.762C11.1619 195.762 9.19278 195.048 7.45087 193.626V195.007H0L0 135.195H7.45087ZM49.4165 155.968C47.7807 155.968 46.3884 156.508 45.2372 157.59C44.0859 158.674 43.509 159.989 43.509 161.506V183.29C43.509 184.892 44.0884 186.241 45.2372 187.29C46.3847 188.34 47.7807 188.871 49.4165 188.871C50.9773 188.871 52.3446 188.34 53.4922 187.29C54.6397 186.241 55.2179 184.898 55.2179 183.29V161.506C55.2179 159.982 54.6435 158.674 53.4922 157.59C52.3409 156.508 50.9773 155.968 49.4165 155.968ZM43.509 135.195V150.329C45.4632 149.475 47.4336 149.035 49.4165 149.035C51.2508 149.035 52.9515 149.348 54.5211 149.974C56.0794 150.595 57.4905 151.497 58.7316 152.664C59.9741 153.832 60.9493 155.172 61.6411 156.651C62.3366 158.142 62.685 159.762 62.685 161.506V183.29C62.685 185.062 62.3303 186.709 61.6411 188.201C60.9443 189.706 59.9703 191.01 58.7316 192.087C57.493 193.167 56.0794 194.059 54.5211 194.736C52.9515 195.419 51.2508 195.762 49.4165 195.762C47.2213 195.762 45.2521 195.048 43.509 193.626V195.007H36.0581V135.195H43.509ZM84.3246 155.968C82.8112 155.968 81.4763 156.51 80.3263 157.59C79.1763 158.671 78.5994 159.986 78.5994 161.506V183.29C78.5994 184.895 79.1763 186.238 80.3263 187.29C81.4763 188.343 82.8112 188.871 84.3246 188.871C86.0365 188.871 87.4662 188.345 88.6263 187.29C89.78 186.242 90.3532 184.898 90.3532 183.29V161.506C90.3532 159.982 89.78 158.668 88.6263 157.59C87.4662 156.507 86.0365 155.968 84.3246 155.968ZM90.3532 224.437V193.626C88.5813 195.048 86.5672 195.762 84.3246 195.762C82.5065 195.762 80.8382 195.421 79.2974 194.736C77.7677 194.057 76.373 193.17 75.1318 192.087C73.8894 191.006 72.9216 189.708 72.2086 188.201C71.5006 186.707 71.1335 185.069 71.1335 183.29V161.506C71.1335 159.755 71.4956 158.144 72.2086 156.651C72.9154 155.171 73.8919 153.831 75.1318 152.664C76.3717 151.499 77.7677 150.596 79.2974 149.974C80.8395 149.347 82.5065 149.035 84.3246 149.035C86.3849 149.035 88.4003 149.475 90.3532 150.329V148.963H97.593V224.437L93.9931 226.916L90.3532 224.437ZM127.585 155.968C126.085 155.968 124.752 156.508 123.602 157.59C122.451 158.674 121.875 159.982 121.875 161.506V183.29C121.875 184.898 122.451 186.237 123.602 187.29C124.752 188.344 126.085 188.871 127.585 188.871C129.161 188.871 130.538 188.344 131.721 187.29C132.902 186.237 133.491 184.898 133.491 183.29V161.506C133.491 159.982 132.902 158.674 131.721 157.59C130.538 156.508 129.161 155.968 127.585 155.968ZM140.854 148.878V195.007H133.491V193.626C131.811 195.048 129.841 195.762 127.585 195.762C125.752 195.762 124.04 195.419 122.45 194.736C120.845 194.052 119.451 193.17 118.27 192.087C117.089 191.006 116.15 189.71 115.453 188.201C114.756 186.707 114.408 185.069 114.408 183.29V161.506C114.408 159.755 114.756 158.146 115.453 156.651C116.15 155.17 117.089 153.832 118.27 152.664C119.451 151.497 120.845 150.601 122.45 149.974C124.04 149.347 125.752 149.035 127.585 149.035C129.72 149.035 131.689 149.475 133.491 150.329V148.878H140.854ZM167.419 156.637C166.51 156.352 165.54 156.192 164.541 156.167C163.467 156.14 162.477 156.293 161.587 156.608C160.678 156.931 159.942 157.487 159.361 158.275C158.778 159.065 158.497 160.157 158.497 161.506V195.007H151.228V148.963H158.497V151.17C162.225 148.977 165.949 148.579 169.646 150.002L167.419 156.637ZM182.838 149.831H190.214V156.708H182.838V182.535C182.838 183.994 183.427 185.289 184.579 186.379C185.722 187.461 187.063 188.002 188.563 188.002H190.305V195.007H188.563C186.736 195.007 185.013 194.679 183.414 194.025C181.824 193.376 180.429 192.473 179.248 191.334C178.067 190.194 177.126 188.882 176.431 187.39C175.739 185.911 175.386 184.286 175.386 182.535V135.195H182.838V149.831Z" fill="black"/>
<path fill-rule="evenodd" clip-rule="evenodd" d="M103.055 168.247H108.327V179.15H103.055V168.247Z" fill="black"/>
<path fill-rule="evenodd" clip-rule="evenodd" d="M154.015 80.9C148.494 105.909 124.281 124.742 95.2438 124.742C66.2058 124.742 41.9951 105.909 36.4722 80.9H34.8814C33.5066 80.9 32.3828 79.8436 32.3828 78.5524V77.3775C32.3828 76.0852 33.5066 75.03 34.8814 75.03H35.1187C30.5672 48.4397 47.9376 22.8036 75.4235 14.2094C74.3622 13.1072 73.5955 11.728 73.2658 10.1657C72.7801 7.8687 73.3357 5.59866 74.6256 3.7852C75.9143 1.97292 77.9384 0.621918 80.3908 0.164154C82.8332 -0.291267 85.2494 0.229881 87.1786 1.44354C89.1066 2.65486 90.5425 4.55636 91.0295 6.86279C91.3579 8.4192 91.2093 9.96269 90.6774 11.3618C120.171 9.38873 147.146 27.609 153.039 54.7251L44.2927 75.03H155.424C156.799 75.03 157.923 76.0852 157.923 77.3775V78.5524C157.923 79.8436 156.799 80.9 155.424 80.9H154.015ZM84.7537 4.84746C83.7597 4.22301 82.506 3.95657 81.2274 4.19485C79.9587 4.43195 78.9123 5.12915 78.2468 6.06464C77.5825 6.99777 77.299 8.17741 77.5525 9.37817C77.8048 10.5719 78.5465 11.5555 79.5417 12.1811C79.9525 12.4381 80.407 12.6353 80.889 12.7609C81.5733 12.6095 82.2613 12.4663 82.9556 12.336C83.6498 12.2069 84.3453 12.0931 85.0384 11.9862C85.4329 11.6963 85.7738 11.3501 86.0485 10.9639C86.7128 10.0296 86.9963 8.85114 86.7428 7.64921C86.4906 6.45667 85.7489 5.47307 84.7537 4.84746Z" fill="black"/>
<path d="M126.607 212.205C126.208 212.205 125.866 212.346 125.583 212.629C125.3 212.912 125.159 213.254 125.159 213.653V219.337C125.159 219.758 125.3 220.106 125.583 220.382C125.866 220.658 126.208 220.796 126.607 220.796C126.992 220.796 127.325 220.658 127.609 220.382C127.892 220.106 128.033 219.758 128.033 219.337V213.653C128.033 213.254 127.892 212.912 127.609 212.629C127.325 212.346 126.992 212.205 126.607 212.205ZM125.159 206.782V210.735C125.638 210.51 126.12 210.397 126.607 210.397C127.057 210.397 127.474 210.481 127.859 210.648C128.244 210.807 128.589 211.04 128.893 211.344C129.198 211.649 129.434 211.998 129.601 212.39C129.775 212.775 129.862 213.196 129.862 213.653V219.337C129.862 219.801 129.775 220.23 129.601 220.622C129.434 221.014 129.198 221.351 128.893 221.634C128.589 221.917 128.244 222.15 127.859 222.331C127.474 222.505 127.057 222.592 126.607 222.592C126.07 222.592 125.587 222.407 125.159 222.037V222.396H123.329V206.782H125.159ZM137.872 210.354V222.396H136.021V210.354H137.872ZM136.979 206.804C137.277 206.804 137.549 206.92 137.796 207.152C138.043 207.385 138.166 207.657 138.166 207.969C138.166 208.296 138.043 208.575 137.796 208.807C137.549 209.032 137.277 209.145 136.979 209.145C136.638 209.145 136.348 209.032 136.108 208.807C135.876 208.575 135.76 208.296 135.76 207.969C135.76 207.657 135.876 207.385 136.108 207.152C136.348 206.92 136.638 206.804 136.979 206.804ZM147.058 222.592C146.608 222.592 146.19 222.505 145.806 222.331C145.421 222.15 145.076 221.917 144.771 221.634C144.466 221.351 144.227 221.014 144.053 220.622C143.886 220.23 143.802 219.801 143.802 219.337V219.01H145.631V219.337C145.631 219.758 145.773 220.106 146.056 220.382C146.339 220.658 146.673 220.796 147.058 220.796C147.443 220.796 147.755 220.669 147.994 220.415C148.234 220.161 148.386 219.87 148.452 219.544C148.517 219.217 148.513 218.876 148.441 218.52C148.368 218.157 148.212 217.874 147.973 217.671C147.718 217.431 147.454 217.315 147.178 217.322C146.902 217.33 146.615 217.304 146.317 217.246C145.708 217.108 145.218 216.847 144.847 216.462C144.477 216.077 144.205 215.635 144.031 215.134C143.864 214.626 143.799 214.092 143.835 213.533C143.871 212.974 144.016 212.462 144.27 211.998C144.524 211.526 144.88 211.141 145.337 210.844C145.802 210.546 146.376 210.397 147.058 210.397C147.501 210.397 147.922 210.481 148.321 210.648C148.727 210.807 149.076 211.04 149.366 211.344C149.657 211.649 149.885 211.998 150.052 212.39C150.226 212.775 150.314 213.196 150.314 213.653V213.99H148.528V213.653C148.528 213.254 148.383 212.912 148.092 212.629C147.802 212.346 147.457 212.205 147.058 212.205C146.659 212.205 146.343 212.335 146.111 212.597C145.878 212.858 145.729 213.156 145.664 213.49C145.599 213.823 145.621 214.165 145.729 214.513C145.838 214.862 146.034 215.119 146.317 215.286C146.557 215.431 146.826 215.504 147.123 215.504C147.421 215.504 147.704 215.533 147.973 215.591C148.524 215.744 148.982 216.023 149.345 216.429C149.707 216.836 149.965 217.297 150.118 217.812C150.277 218.328 150.332 218.865 150.281 219.424C150.23 219.976 150.078 220.491 149.824 220.97C149.57 221.442 149.21 221.83 148.746 222.135C148.288 222.44 147.726 222.592 147.058 222.592ZM158.008 210.604H159.815V212.401H158.008V219.141C158.008 219.526 158.149 219.859 158.432 220.143C158.715 220.426 159.042 220.567 159.412 220.567H159.837V222.396H159.412C158.962 222.396 158.541 222.313 158.149 222.146C157.757 221.972 157.416 221.736 157.126 221.438C156.835 221.141 156.603 220.799 156.429 220.415C156.262 220.023 156.178 219.598 156.178 219.141V206.782H158.008V210.604ZM169.382 212.379C169.157 212.306 168.921 212.266 168.674 212.259C168.413 212.252 168.17 212.292 167.945 212.379C167.727 212.459 167.545 212.604 167.4 212.814C167.262 213.018 167.193 213.297 167.193 213.653V222.396H165.407V210.375H167.193V210.952C168.108 210.379 169.019 210.277 169.926 210.648L169.382 212.379ZM179.45 213.544C179.435 213.188 179.301 212.883 179.047 212.629C178.764 212.346 178.415 212.205 178.001 212.205C177.631 212.205 177.304 212.346 177.021 212.629C176.738 212.912 176.597 213.254 176.597 213.653V219.337C176.597 219.758 176.738 220.106 177.021 220.382C177.304 220.658 177.631 220.796 178.001 220.796C178.415 220.796 178.764 220.654 179.047 220.371C179.286 220.146 179.42 219.801 179.45 219.337V213.544ZM181.257 213.522V219.565C181.243 219.921 181.159 220.262 181.007 220.589C180.847 221.003 180.618 221.351 180.321 221.634C180.023 221.917 179.675 222.15 179.275 222.331C178.883 222.505 178.459 222.592 178.001 222.592C177.551 222.592 177.137 222.505 176.76 222.331C176.383 222.15 176.041 221.917 175.736 221.634C175.432 221.351 175.192 221.014 175.018 220.622C174.851 220.23 174.767 219.801 174.767 219.337V213.653C174.767 213.196 174.851 212.775 175.018 212.39C175.192 211.998 175.432 211.649 175.736 211.344C176.041 211.04 176.383 210.807 176.76 210.648C177.137 210.481 177.551 210.397 178.001 210.397C178.459 210.397 178.883 210.481 179.275 210.648C179.675 210.807 180.023 211.04 180.321 211.344C180.618 211.649 180.847 211.987 181.007 212.357C181.159 212.72 181.243 213.108 181.257 213.522Z" fill="black"/>
</svg>
