<svg width="322" height="115" viewBox="0 0 322 115" fill="none" xmlns="http://www.w3.org/2000/svg">
<path d="M131.803 0H67.2617V61.3604H131.803V0Z" fill="black"/>
<path fill-rule="evenodd" clip-rule="evenodd" d="M307.866 83.5564C312.496 83.5564 313.93 79.3149 314.011 75.6033C314.111 71.0906 312.43 67.5527 307.857 67.6477C303.268 67.7441 301.685 71.9145 301.685 75.6033C301.685 79.2984 303.257 83.5564 307.857 83.5564H307.866ZM304.641 96.2465C302.03 96.8892 297.341 98.6005 297.341 101.79C297.341 108.381 311.785 108.584 316.295 106.287C320.458 104.165 319.986 100.51 315.847 98.6727C313.68 97.7106 309.937 96.893 304.633 96.2465H304.641ZM302.546 95.794C298.44 94.8547 294.59 91.5753 298.962 87.832C300.226 86.7508 302.232 85.6606 304.973 84.5692C300.646 83.6375 297.197 80.3506 297.197 75.739C297.197 69.4756 302.642 66.4727 308.656 66.4727C308.834 66.4727 309.9 66.5411 311.853 66.6691C315.235 66.8897 318.606 66.8644 321.994 66.8644V69.1118H315.822C319.045 71.9779 319.399 78.3059 316.187 81.4534C314.671 82.9403 312.238 84.0076 308.996 84.6972C306.876 85.1371 300.944 86.681 300.944 89.4926C300.944 90.8553 303.128 91.9708 307.492 92.8227C311.373 93.5211 316.493 94.3324 319.673 96.4417C321.214 97.4647 321.994 98.8692 321.994 100.649C321.994 103.12 320.569 105.48 317.533 107.243C312.462 110.183 303.28 111.094 297.834 108.04C294.062 105.926 293.222 101.979 296.418 99.0226C297.726 97.8044 299.778 96.7231 302.537 95.7851L302.546 95.794Z" fill="black"/>
<path fill-rule="evenodd" clip-rule="evenodd" d="M271.868 85.3491C271.868 88.3572 272.615 89.6641 275.881 89.8454L275.844 90.7568C271.499 90.6085 267.221 90.7568 262.883 90.7568V89.8454C266.288 89.7744 267.173 88.5043 267.173 85.3491V73.6731C267.173 71.612 266.879 70.1808 266.295 69.3898C265.505 68.3136 264.139 68.197 262.883 68.197V67.2856C265.883 67.117 268.888 66.9243 271.868 66.5364V71.3901C274.947 67.534 283.172 63.4903 287.275 69.1249C290.128 73.0444 289.22 80.6526 289.22 85.3491C289.22 88.5043 290.1 89.7744 293.509 89.8454V90.7568C289.171 90.7568 284.895 90.6072 280.548 90.7568L280.512 89.8454C283.768 89.6629 284.524 88.3496 284.524 85.3491C284.524 81.5526 285.395 73.9685 283.217 70.769C281.46 68.1856 277.767 68.5215 275.325 69.8994C274.089 70.6067 272.933 71.6462 271.868 72.9911V85.3491Z" fill="black"/>
<path fill-rule="evenodd" clip-rule="evenodd" d="M256.125 66.4727L256.153 85.3538C256.153 87.0474 256.438 88.206 256.994 88.8106C257.549 89.4153 258.606 89.7652 260.138 89.8488V90.7615C255.741 90.6715 251.373 90.6183 246.973 90.7615L246.997 89.8488C248.637 89.8159 249.765 89.4825 250.375 88.8791C250.983 88.2656 251.287 87.0905 251.287 85.3538V73.6854C251.287 70.4771 250.919 68.2004 246.997 68.2004L247.034 67.256C250.075 67.1382 253.11 66.8694 256.125 66.4727Z" fill="black"/>
<path fill-rule="evenodd" clip-rule="evenodd" d="M236.128 58.916V66.9971H244.495V68.7946H236.128V81.093C236.128 84.0047 236.495 86.0481 237.22 87.2156C239.014 90.1185 243.16 89.1285 245.552 87.5135L246.036 88.1004C242.898 91.13 236.24 93.7299 233.1 89.1906C231.99 87.5984 231.434 85.086 231.434 81.6799V68.7946H226.875V67.7894C228.791 66.793 230.423 65.5419 231.766 64.0423C233.11 62.5427 234.15 60.8225 234.856 58.916H236.128Z" fill="black"/>
<path fill-rule="evenodd" clip-rule="evenodd" d="M215.799 55.4627C215.799 52.2138 215.283 49.9866 211.375 49.9866V49.041C214.443 48.9522 217.52 48.5821 220.564 48.2246V85.3633C220.564 87.0581 220.843 88.2167 221.398 88.8214C221.954 89.426 223.019 89.7746 224.578 89.8596L224.543 90.771C220.124 90.681 215.794 90.629 211.375 90.771V89.8596C213.058 89.8266 214.223 89.4844 214.85 88.8556C215.478 88.2256 215.799 87.0581 215.799 85.3633V55.4627Z" fill="black"/>
<path fill-rule="evenodd" clip-rule="evenodd" d="M200.465 73.6765C200.465 71.6167 200.169 70.1855 199.588 69.3933C198.796 68.317 197.43 68.2004 196.173 68.2004L196.141 67.256C199.181 67.1331 202.214 66.8644 205.23 66.4727V84.0837C205.23 86.1448 205.526 87.576 206.117 88.3594C206.916 89.4292 208.261 89.5509 209.521 89.5509V90.4966C206.494 90.6347 203.466 90.8274 200.465 91.2204V86.6899C198.056 89.2442 194.836 91.1532 191.13 91.1532C184.453 91.1532 183.185 85.596 183.185 80.3708V73.6854C183.185 71.6243 182.889 70.1855 182.308 69.3933C181.511 68.3107 180.157 68.2004 178.895 68.2004V67.256C181.907 67.1229 184.893 66.8834 187.88 66.4727L187.907 80.7625C187.907 84.2929 188.452 88.7764 193.226 88.7764C196.121 88.7764 198.712 87.1133 200.465 85.0293V73.6765Z" fill="black"/>
<path fill-rule="evenodd" clip-rule="evenodd" d="M159.188 91.2314V83.0717H160.182C160.541 85.3293 161.437 87.1167 162.833 88.4122C164.239 89.7153 165.95 90.3707 167.958 90.3707C170.705 90.3707 172.938 88.7811 172.938 86.0354C172.938 81.742 163.583 79.8988 160.898 76.8464C159.986 75.8082 159.529 74.514 159.529 72.9979C159.529 71.1333 160.271 69.5741 161.741 68.3382C163.21 67.0959 165.091 66.4748 167.349 66.4748C168.209 66.4748 169.213 66.6269 170.331 66.9336C171.45 67.2404 172.142 67.3938 172.391 67.3938C173.155 67.3938 173.793 67.12 173.933 66.3467L174.658 66.3125V73.2616H173.663C173.089 70.0811 170.947 67.5218 167.339 67.5218C163.734 67.5218 161.306 70.8861 163.89 73.4403C166.725 76.2418 171.847 76.6347 174.757 79.8101C175.849 81.0029 176.405 82.4759 176.405 84.2138C176.405 88.6188 172.359 91.5128 167.966 91.5128C165.657 91.5128 163.477 90.1868 161.651 90.0132C160.825 89.9346 160.227 90.3326 160.039 91.2466L159.188 91.2314Z" fill="black"/>
<path fill-rule="evenodd" clip-rule="evenodd" d="M134.824 88.8106C135.398 89.4153 136.455 89.7639 137.986 89.8488L137.951 90.7615C133.675 90.6145 129.467 90.6322 125.186 90.7615H124.988V89.8488C126.628 89.8159 127.756 89.4825 128.366 88.8791C128.974 88.2656 129.279 87.0905 129.279 85.3526V73.6765C129.279 71.6167 128.983 70.1855 128.402 69.3933C127.611 68.317 126.246 68.2004 124.988 68.2004V67.2903C127.99 67.1217 130.995 66.9277 133.974 66.5411V71.3948C136.375 68.7518 139.564 66.4727 143.398 66.4727C150.1 66.4727 151.324 72.1072 151.324 77.3298V85.3526C151.324 88.509 152.206 89.7791 155.616 89.8488V90.7615H155.41C151.131 90.6322 146.927 90.6145 142.654 90.7615L142.618 89.8488C145.875 89.6676 146.63 88.353 146.63 85.3526V76.9381C146.63 73.3153 146.071 68.8482 141.202 68.8482C138.182 68.8482 135.702 70.8143 133.974 72.9958C133.974 75.7973 132.954 86.8053 134.824 88.8106Z" fill="black"/>
<path fill-rule="evenodd" clip-rule="evenodd" d="M99.2082 79.0246C99.2082 83.8644 101.256 90.437 107.503 90.437C113.791 90.437 115.807 83.8986 115.807 79.0246C115.807 74.1012 113.867 67.578 107.503 67.578C101.144 67.578 99.2082 74.1101 99.2082 79.0246ZM93.8242 79.0246C93.8242 71.8867 100.139 66.4727 107.503 66.4727C114.904 66.4727 121.189 71.8474 121.189 79.0246C121.189 86.2247 114.927 91.5779 107.503 91.5779C100.163 91.5779 93.8242 86.1423 93.8242 79.0246Z" fill="black"/>
<path fill-rule="evenodd" clip-rule="evenodd" d="M170.394 34.1219V39.0441C172.419 37.3075 174.166 36.0386 175.598 35.2463C177.388 34.2626 179.194 33.7328 181.206 34.3007C181.788 34.4629 182.407 34.7266 183.051 35.0676L181.028 39.3001C179.466 38.6968 177.591 37.9628 175.876 37.9628C173.715 37.9628 171.822 39.1937 170.394 40.6375V52.9347C170.394 54.7144 170.707 55.9072 171.316 56.503C171.926 57.0988 173.099 57.3967 174.819 57.3967V58.3423C170.262 58.2004 165.794 58.2498 161.24 58.3423L161.203 57.4309C162.915 57.3713 164.088 57.0215 164.698 56.4092C165.315 55.7957 165.628 54.6295 165.628 52.9347V41.2586C165.628 38.0084 165.115 35.7825 161.203 35.7825V34.8711C164.275 34.6924 167.335 34.4426 170.394 34.1219ZM139.228 42.3057H152.844C152.814 38.4876 150.828 35.0333 146.395 35.0333C141.884 35.0333 139.874 38.5142 139.228 42.3057ZM158.398 53.879C155.715 57.2205 152.056 59.1599 147.595 59.1599C139.895 59.1599 134.256 53.6838 134.256 46.3849C134.256 39.3521 139.606 33.9609 147.076 33.9609C153.251 33.9609 157.614 37.6345 157.852 43.5746H139.228C139.228 49.9063 141.806 57.3371 149.754 57.3371C153.052 57.3371 155.72 55.5016 157.708 53.1387L158.398 53.879ZM53.1034 34.1219V39.0441C55.1287 37.3075 56.874 36.0386 58.3087 35.2463C60.9247 33.8088 63.174 33.6998 65.7607 35.0676L63.7367 39.3001C62.5007 38.8223 61.4873 38.4813 60.6993 38.2772C58.9554 37.8259 57.442 37.836 55.7914 38.6435C54.8674 39.1049 53.9634 39.7679 53.1034 40.6375V52.9347C53.1034 56.2216 54.018 57.3967 57.5287 57.3967V58.3423C55.6114 58.2827 54.17 58.2396 53.238 58.232C51.466 58.2156 49.6994 58.2168 47.9261 58.2485C46.9687 58.265 45.6327 58.3081 43.9487 58.3423L43.9141 57.4309C47.3127 57.313 48.3381 56.1519 48.3381 52.9347V41.2586C48.3381 38.0097 47.8247 35.7825 43.9141 35.7825V34.8711C46.9834 34.6924 50.046 34.4426 53.1034 34.1219Z" fill="black"/>
<path fill-rule="evenodd" clip-rule="evenodd" d="M107.983 45.5372L115.417 39.7974C116.449 38.9532 117.653 37.3217 116.036 36.314C115.516 35.9907 114.808 35.7943 113.94 35.7524V34.874H126.939V35.7524C125.389 35.8374 123.955 36.1264 122.656 36.5865C118.907 37.9048 115.376 41.4225 112.328 43.8081C116.288 47.4906 122.036 54.5195 126.901 56.7531C127.699 57.1194 128.551 57.3413 129.447 57.4008V58.3452C126.805 58.2565 124.312 58.2083 121.661 58.3452H121.455L108.735 46.2521L107.983 46.8745V52.9375C107.983 54.6501 108.26 55.8087 108.797 56.4045C109.344 57.0003 110.384 57.3413 111.888 57.4008V58.3452C107.541 58.1969 103.265 58.3452 98.9267 58.3452V57.4351C100.592 57.3742 101.731 57.0421 102.321 56.4463C102.912 55.8505 103.217 54.6742 103.217 52.9375V23.0458C103.217 19.8413 102.847 17.5608 98.9267 17.5608V16.7432C101.965 16.5721 104.979 16.2755 107.983 15.7988V45.5372ZM73.6521 37.7451C79.0121 32.8204 87.6507 32.7963 93.0187 37.7274C98.352 42.6267 98.3747 50.5899 93.0373 55.4931C87.6774 60.433 79.0094 60.3975 73.6614 55.4664C68.3201 50.5265 68.2734 42.6876 73.6521 37.7451ZM77.3254 54.8795C80.3907 59.0716 86.268 59.0982 89.3467 54.896C92.4547 50.6381 92.4667 42.5139 89.3654 38.2636C86.3307 34.1071 80.3307 34.1134 77.2974 38.2636C74.1841 42.5291 74.2187 50.6051 77.3254 54.8795Z" fill="white"/>
<path fill-rule="evenodd" clip-rule="evenodd" d="M88.7545 102.825C84.7665 110.963 76.8038 115.005 67.5319 115.005C53.2252 115.005 42.3359 104.912 42.3359 90.8058C42.3359 85.2599 43.8986 79.9271 47.2639 75.3674C52.4372 68.2536 60.4599 64.7638 69.4585 64.7638C72.1132 64.7638 75.0025 65.1365 78.1158 65.8806C81.2278 66.6259 82.6612 67.1343 83.4798 67.01C84.9012 66.7933 85.6838 65.6664 86.0558 64.5293H87.0865V79.5202H86.0558C84.1372 71.1805 78.1225 66.4345 69.1225 66.4345C55.8212 66.4345 49.6253 76.7504 49.6253 88.2819C49.6253 100.236 56.5372 112.482 70.5785 112.482C78.2092 112.482 83.8052 108.336 87.4665 102.218L88.7545 102.825Z" fill="black"/>
<path fill-rule="evenodd" clip-rule="evenodd" d="M13.2493 33.7068V53.7859H18.344C25.0906 53.7859 30.8213 50.594 30.8213 43.6082C30.8213 36.1 23.8826 33.419 17.012 33.419C15.752 33.419 14.492 33.5103 13.2493 33.7068ZM0 79.5832V78.4449C5.64265 78.3397 6.56265 74.173 6.56265 69.6501V41.6167C6.56265 37.047 5.66532 32.9728 0 32.8448V31.6621H16.4186C24.3719 31.6621 37.2919 32.9247 37.2919 43.1189C37.2919 49.211 31.7426 52.6197 26.3186 54.4045C33.3332 55.6125 40.3839 59.5713 40.3839 67.1593C40.3839 78.1039 28.3493 79.5832 19.4533 79.5832H0ZM13.2493 55.5441V70.2573C13.2493 73.5151 13.7533 75.6333 14.7386 76.5701C15.7346 77.5182 17.728 77.9961 20.6959 77.9961C27.9746 77.9961 32.8346 74.0893 32.8346 66.9995C32.8346 58.7663 25.9399 55.5441 18.176 55.5441H13.2493Z" fill="black"/>
<path fill-rule="evenodd" clip-rule="evenodd" d="M194.339 23.7002C197.079 23.7002 199.313 25.8247 199.313 28.4297C199.313 31.0359 197.079 33.1605 194.339 33.1605C191.598 33.1605 189.363 31.0359 189.363 28.4297C189.363 25.8247 191.598 23.7002 194.339 23.7002ZM194.338 22.8027C197.599 22.8027 200.258 25.3316 200.258 28.431C200.258 31.5316 197.599 34.0592 194.338 34.0592C191.078 34.0592 188.418 31.5316 188.418 28.431C188.418 25.3316 191.078 22.8027 194.338 22.8027Z" fill="black"/>
<path fill-rule="evenodd" clip-rule="evenodd" d="M193.17 28.0381L194.39 28.0444C194.953 28.047 195.628 28.0242 195.628 27.2648C195.628 26.5575 194.888 26.5512 194.328 26.5512L193.17 26.5537V28.0381ZM191.954 31.3124L191.953 25.584H194.514C195.718 25.584 196.801 25.9934 196.814 27.2065C196.825 28.2067 196.232 28.6554 195.292 28.7847C195.926 29.1371 196.253 29.6099 196.636 30.1956L197.37 31.3124H195.916C195.532 30.7052 194.753 29.2271 194.03 28.9863C193.768 28.9001 193.448 28.9204 193.17 28.9204V31.3124H191.954Z" fill="black"/>
<path d="M253.074 59.8032C254.856 59.8032 256.301 58.4298 256.301 56.7356C256.301 55.0414 254.856 53.668 253.074 53.668C251.292 53.668 249.848 55.0414 249.848 56.7356C249.848 58.4298 251.292 59.8032 253.074 59.8032Z" fill="black"/>
</svg>
