<svg width="312" height="56" viewBox="0 0 312 56" fill="none" xmlns="http://www.w3.org/2000/svg">
<path fill-rule="evenodd" clip-rule="evenodd" d="M179.538 39.0532C178.2 39.0532 175.024 38.9167 173.854 36.1857L164.827 15.43L154.128 39.0532H137.913L152.122 7.7832C153.961 3.82325 158.976 0.682589 163.824 0.682589C163.991 0.682589 166.164 0.682589 166.164 0.682589C166.164 0.682589 168.672 0.682589 169.675 0.682589C170.511 0.682589 174.021 0.409489 175.693 3.9598C176.027 4.7791 176.529 6.00805 176.529 6.00805L184.386 24.4423L195.252 0.682589H210.798L196.589 32.0891C194.75 35.776 189.568 39.0532 184.553 39.0532H179.538ZM227.515 0.682589H242.226L224.673 39.0532H209.962L227.515 0.682589ZM93.6132 26.354L87.7623 39.1898H70.8783L84.9204 8.19285C87.0936 3.41359 92.7774 0.81914 96.7894 0.81914H130.557C136.575 0.81914 137.244 4.7791 135.907 7.91975L121.698 39.1898H105.649L111.5 26.354H93.6132ZM115.178 17.7514L117.351 13.2452C118.354 10.9239 116.85 9.14871 114.175 9.14871C114.008 9.14871 110.999 9.14871 110.832 9.14871C110.832 9.14871 106.652 9.14871 106.485 9.14871C103.81 9.14871 100.634 10.7873 99.6313 13.1087L97.4581 17.7514H115.178ZM21.8979 39.1898C16.7157 39.1898 14.8768 35.776 16.5485 32.2257C16.7157 31.9526 21.8979 20.4824 21.8979 20.2093C22.0651 20.0727 27.5816 8.0563 27.5816 7.7832C29.7548 3.14049 35.9401 0.682589 39.4506 0.682589H76.0605L72.3828 9.01215H48.4777C45.6358 9.01215 42.4596 11.197 41.4566 13.1087C41.2895 13.6549 38.2804 20.0727 38.2804 20.0727C38.2804 20.0727 35.4386 26.6271 35.2714 26.7637C33.934 29.6312 36.7759 30.8602 38.4476 30.8602H62.3527L58.675 39.1898H21.8979Z" fill="black"/>
<path fill-rule="evenodd" clip-rule="evenodd" d="M0 55.0297L4.84789 44.6519H267.971C271.983 44.6519 274.156 41.7844 274.825 40.4189C274.825 40.2823 276.162 37.6879 276.664 36.5955C277.165 35.3665 277.5 32.7721 274.491 32.7721C271.314 32.7721 253.26 32.7721 249.415 32.7721C245.738 32.7721 243.23 28.9487 244.568 25.808L252.759 7.37371C254.263 4.09651 258.944 0 265.129 0H311.602L306.921 10.6509H278.001C275.159 10.6509 271.983 12.153 270.813 14.884C270.813 14.884 268.807 18.9805 268.807 19.117C268.138 20.6191 269.141 22.2577 271.314 22.2577C273.488 22.2577 293.381 22.3942 296.39 22.3942C299.399 22.3942 300.402 23.8963 298.229 28.8121C297.393 30.8604 290.037 47.656 289.87 47.7926C288.031 52.0256 282.515 55.0297 278.001 55.0297H0Z" fill="black"/>
</svg>
