<svg width="288" height="288" viewBox="0 0 288 288" fill="none" xmlns="http://www.w3.org/2000/svg">
<g clip-path="url(#clip0_1026_1848)">
<path d="M92.2367 166.039H111.296L107.688 185.098H88.6289L92.2367 166.039Z" fill="black"/>
<path d="M39.8418 122.98H23.2143L26.979 103.607H15.6065L10.3516 130.98H49.6457L54.9006 103.607H43.6065L39.8418 122.98Z" fill="black"/>
<path d="M77.7252 103.607L64.0781 130.98H75.2938L81.8036 117.254L83.137 130.98H93.9605L90.8232 103.607H77.7252Z" fill="black"/>
<path d="M137.176 130.98H147.607L152.862 103.607H142.431L137.176 130.98Z" fill="black"/>
<path d="M112.864 103.607L107.609 130.98H118.041L120.158 119.764L124.158 130.98H135.453L125.492 103.607H112.864Z" fill="black"/>
<path d="M179.608 102.666C172.863 102.666 167.53 104.235 163.687 107.372C159.765 110.509 157.883 114.744 157.883 119.999C157.883 122.117 158.197 123.921 158.746 125.411C159.373 126.901 160.314 128.235 161.491 129.411C162.118 129.96 162.746 130.509 163.451 130.98H189.804C189.648 130.823 189.491 130.666 189.412 130.509C187.295 128.392 183.765 126.509 178.824 124.941C177.02 124.313 175.451 123.764 174.118 123.215C172.706 122.666 171.765 122.195 171.138 121.725C170.353 121.176 169.883 120.627 169.648 120.078C169.412 119.529 169.334 118.901 169.334 118.039C169.334 116.313 170.118 114.901 171.687 113.882C173.255 112.862 175.53 112.392 178.432 112.392C181.412 112.392 184.157 112.941 186.667 114.039C189.177 115.215 191.216 116.627 192.706 118.274H193.961L196.079 106.195C194.118 105.097 191.608 104.235 188.785 103.607C185.883 102.98 182.824 102.666 179.608 102.666Z" fill="black"/>
<path d="M201.488 130.98H231.841L233.41 122.98H214.351L216.155 113.568H236.626L238.586 103.607H206.743L201.488 130.98Z" fill="black"/>
<path d="M248.001 103.607L242.746 130.98H253.177L255.295 119.764L259.295 130.98H270.589L260.628 103.607H248.001Z" fill="black"/>
<path d="M272.312 130.98H282.744L287.999 103.607H277.567L272.312 130.98Z" fill="black"/>
<path d="M5.48828 156.235H16.8608L20.4687 137.176H9.17456L5.48828 156.235Z" fill="black"/>
<path d="M33.4883 156.235H44.7824L48.4687 137.176H37.0961L33.4883 156.235Z" fill="black"/>
<path d="M61.0178 137.176L51.4492 156.156H63.2924L68.4688 145.411H84.4688L85.41 156.156H96.861L94.6649 137.176H61.0178Z" fill="black"/>
<path d="M102.746 156.235H113.177L116.785 137.176H106.432L102.746 156.235Z" fill="black"/>
<path d="M133.097 156.235H142.744L146.352 137.176H126.352L133.097 156.235Z" fill="black"/>
<path d="M178.038 137.176C178.509 137.411 178.901 137.646 179.293 137.882C179.999 138.431 180.47 138.901 180.705 139.45C180.94 139.999 181.097 140.627 181.097 141.333C181.097 143.293 180.313 144.784 178.823 145.882C177.254 146.901 174.901 147.45 171.685 147.45C168.548 147.45 165.646 146.823 162.901 145.646C160.156 144.391 157.803 142.744 155.764 140.47H154.509L152.234 153.097C154.352 154.274 156.94 155.215 159.842 155.999C162.823 156.784 166.117 157.176 169.881 157.176C173.254 157.176 176.313 156.784 178.979 156.078C181.646 155.372 183.999 154.274 186.117 152.705C188.078 151.293 189.646 149.411 190.823 147.137C191.999 144.784 192.548 142.117 192.548 139.137C192.548 138.431 192.47 137.803 192.391 137.176H178.038Z" fill="black"/>
<path d="M211.609 137.176H200.315L196.629 156.156H228.394L230.276 146.195H209.884L211.609 137.176Z" fill="black"/>
<path d="M237.883 156.235H248.314L251.922 137.176H241.569L237.883 156.235Z" fill="black"/>
<path d="M261.488 137.176L268.233 156.156H277.88L281.488 137.176H261.488Z" fill="black"/>
<path d="M3.60784 166.039H22.7451L19.0588 185.098H0L3.60784 166.039Z" fill="black"/>
<path d="M33.1782 166.039H52.237L48.6291 185.098H29.5703L33.1782 166.039Z" fill="black"/>
<path d="M62.7449 166.039H81.8037L78.1174 185.098H59.0586L62.7449 166.039Z" fill="black"/>
<path d="M125.097 174.353H126.587C128.469 174.353 129.959 173.333 129.959 171.608C129.959 170.353 128.783 169.726 127.371 169.726C126.744 169.726 126.273 169.804 125.959 169.883L125.097 174.353ZM121.881 166.51C123.214 166.196 125.254 165.961 127.371 165.961C129.097 165.961 131.057 166.196 132.548 166.981C133.881 167.686 134.901 168.941 134.901 170.902C134.901 173.726 133.175 175.294 130.744 176.157V176.235C131.763 176.784 132.155 177.961 132.391 179.608C132.626 181.49 132.783 184.235 133.175 185.02H128.234C128.077 184.471 127.842 182.981 127.685 180.549C127.45 178.432 126.822 177.883 125.332 177.883H124.469L123.057 185.02H118.352L121.881 166.51Z" fill="black"/>
<path d="M147.921 177.411H141.255L140.627 180.941H148.078L147.294 185.019H135.059L138.588 166.117H150.431L149.647 170.196H142.666L142.039 173.333H148.706L147.921 177.411Z" fill="black"/>
<path d="M158.509 166.117L154.901 185.019H150.195L153.725 166.117H158.509Z" fill="black"/>
<path d="M158.039 185.02L161.647 166.118H167.294L169.019 171.843C169.725 174.353 170.274 176.471 170.745 178.824H170.823C170.902 176.706 171.216 174.432 171.765 171.686L172.784 166.118H177.255L173.647 185.02H168.627L166.745 178.824C165.961 176.157 165.412 174.275 164.863 171.765H164.784C164.549 173.647 164.078 176.628 163.451 179.765L162.51 185.02H158.039ZM182.274 181.177C182.588 181.255 183.059 181.255 183.765 181.255C185.568 181.255 187.451 180.549 188.549 179.216C189.647 177.883 190.196 176.157 190.196 174.118C190.196 171.294 188.549 169.804 185.804 169.804C185.176 169.804 184.784 169.883 184.47 169.883L182.274 181.177ZM180.314 166.432C181.961 166.118 183.843 165.961 185.725 165.961C188.627 165.961 190.902 166.588 192.627 167.843C194.353 169.177 195.372 171.137 195.372 174.118C195.372 177.804 193.804 180.863 191.529 182.667C189.255 184.392 186.51 185.177 182.196 185.177C179.686 185.177 177.647 184.863 176.784 184.706L180.314 166.432Z" fill="black"/>
<path d="M208.156 177.411H201.489L200.862 180.941H208.313L207.528 185.019H195.293L198.822 166.117H210.666L209.881 170.196H202.901L202.273 173.333H208.94L208.156 177.411Z" fill="black"/>
<path d="M216.784 174.354H218.275C220.079 174.354 221.569 173.334 221.569 171.609C221.569 170.354 220.392 169.726 218.981 169.726C218.353 169.726 217.883 169.805 217.569 169.883L216.784 174.354ZM213.569 166.511C214.824 166.197 216.863 165.962 218.981 165.962C220.706 165.962 222.667 166.197 224.157 166.981C225.49 167.687 226.51 168.942 226.51 170.903C226.51 173.726 224.784 175.295 222.353 176.158V176.236C223.373 176.785 223.843 177.962 224 179.609C224.235 181.491 224.392 184.236 224.784 185.02H219.843C219.686 184.471 219.53 182.981 219.294 180.55C219.137 178.432 218.432 177.883 216.941 177.883H216.079L214.745 185.02H209.961L213.569 166.511ZM227.686 180.001C228.863 180.707 230.51 181.177 232.392 181.177C233.647 181.177 234.902 180.707 234.902 179.609C234.902 178.667 234.039 178.118 232.392 177.256C230.588 176.314 228.471 174.824 228.471 172.236C228.471 168.236 232 165.805 236.314 165.805C238.824 165.805 240.157 166.275 241.098 166.746L239.608 170.746C238.981 170.432 237.569 169.883 236 169.962C234.275 169.962 233.49 170.589 233.49 171.452C233.49 172.314 234.745 172.942 236.157 173.726C238.432 174.903 240 176.471 240 178.746C240 183.295 236.079 185.334 231.922 185.334C228.941 185.256 227.059 184.55 226.118 183.922L227.686 180.001ZM260.549 184.55C259.53 184.942 257.883 185.334 255.53 185.334C250.432 185.334 246.902 182.275 246.902 177.256C246.902 172.628 248.941 169.413 252 167.609C253.961 166.354 256.157 165.805 258.824 165.805C260.863 165.805 262.353 166.275 262.981 166.589L261.726 170.432C261.255 170.275 260 169.883 258.432 169.883C256.941 169.883 255.608 170.354 254.588 171.06C253.098 172.236 252.079 174.118 252.079 176.707C252.079 179.53 253.883 181.256 256.784 181.256C258.118 181.256 259.294 181.02 260.235 180.707L260.549 184.55ZM263.216 180.001C264.392 180.707 266.039 181.177 267.843 181.177C269.177 181.177 270.432 180.707 270.432 179.609C270.432 178.667 269.569 178.118 267.922 177.256C266.118 176.314 263.922 174.824 263.922 172.236C263.922 168.236 267.451 165.805 271.843 165.805C274.353 165.805 275.686 166.275 276.549 166.746L275.059 170.746C274.51 170.432 273.098 169.883 271.451 169.962C269.804 169.962 269.02 170.589 269.02 171.452C269.02 172.314 270.275 172.942 271.686 173.726C273.961 174.903 275.53 176.471 275.53 178.746C275.53 183.295 271.608 185.334 267.451 185.334C264.471 185.256 262.588 184.55 261.647 183.922L263.216 180.001Z" fill="black"/>
</g>
<defs>
<clipPath id="clip0_1026_1848">
<rect width="288" height="288" fill="white"/>
</clipPath>
</defs>
</svg>
