<svg width="304" height="109" viewBox="0 0 304 109" fill="none" xmlns="http://www.w3.org/2000/svg">
<path d="M2.58168 95.2323C2.58168 94.4493 2.53345 93.3972 1.67648 93.0798C1.5789 93.0315 1.50599 93.0069 1.50599 92.9081C1.50599 92.7612 1.5789 92.7612 1.89746 92.7612C2.19022 92.7612 2.72863 92.8599 3.6327 92.8599C4.19579 92.8599 4.78243 92.7612 5.34552 92.7612C5.4431 92.7612 5.76054 92.7612 5.76054 92.8846C5.76054 92.9822 5.71231 93.0551 5.59004 93.0798C4.75775 93.3243 4.68484 94.2777 4.68484 95.2323V99.8054H15.4227V95.2323C15.4227 94.2777 15.3487 93.3243 14.5175 93.0798C14.3953 93.0551 14.3459 92.9822 14.3459 92.8846C14.3459 92.7612 14.6634 92.7612 14.7621 92.7612C15.324 92.7612 15.9118 92.8599 16.4738 92.8599C17.379 92.8599 17.9174 92.7612 18.2101 92.7612C18.5287 92.7612 18.6016 92.7612 18.6016 92.9081C18.6016 93.0069 18.5287 93.0315 18.43 93.0798C17.5741 93.3972 17.5259 94.4493 17.5259 95.2323V103.841C17.5259 105.407 17.5988 107.558 18.6756 108.244C18.8461 108.366 19.0177 108.439 19.0177 108.488C19.0177 108.561 18.919 108.586 18.7239 108.586C18.504 108.586 17.8433 108.513 16.4738 108.513C15.2993 108.513 14.5422 108.586 14.3212 108.586C14.1743 108.586 14.0532 108.561 14.0532 108.513C14.0532 108.439 14.1261 108.366 14.3212 108.293C15.4227 107.804 15.4227 106.067 15.4227 103.841V100.418H4.68484V103.841C4.68484 106.067 4.68484 107.804 5.78522 108.293C5.98151 108.366 6.05442 108.439 6.05442 108.513C6.05442 108.561 5.93216 108.586 5.78522 108.586C5.56537 108.586 4.80711 108.513 3.6327 108.513C2.26425 108.513 1.60358 108.586 1.38373 108.586C1.18743 108.586 1.08984 108.561 1.08984 108.488C1.08984 108.439 1.26146 108.366 1.43196 108.244C2.50878 107.558 2.58168 105.407 2.58168 103.841V95.2323Z" fill="#231F20"/>
<path d="M36.4747 100.855C36.4747 96.2565 34.5914 92.9801 29.9442 92.9801C25.2971 92.9801 23.4138 96.2565 23.4138 100.855C23.4138 105.111 25.2971 108.389 29.9442 108.389C34.5914 108.389 36.4747 105.111 36.4747 100.855ZM20.7969 100.636C20.7969 95.45 25.3464 92.3688 29.9442 92.3688C34.542 92.3688 39.0916 95.45 39.0916 100.636C39.0916 105.918 34.542 109 29.9442 109C25.3464 109 20.7969 105.918 20.7969 100.636Z" fill="#231F20"/>
<path d="M56.2297 92.8627L57.0127 95.5772C57.0374 95.6759 57.062 95.7488 57.062 95.8217C57.062 95.8711 57.062 95.9204 57.0127 95.9204C56.9151 95.9204 56.8164 95.7981 56.6952 95.6512C55.6184 94.0371 53.0991 93.474 51.2652 93.474C50.4093 93.474 49.798 93.5469 49.798 94.4768V103.722C49.798 106.779 50.1154 107.929 50.9713 108.222C51.3381 108.344 51.5826 108.443 51.5826 108.491C51.5826 108.565 51.485 108.59 51.3134 108.59C51.1429 108.59 50.5551 108.516 48.8434 108.516C46.9108 108.516 46.2512 108.59 46.0067 108.59C45.8104 108.59 45.7857 108.516 45.7857 108.443C45.7857 108.321 46.0549 108.321 46.3971 108.247C47.3763 108.002 47.6937 105.826 47.6937 103.282V94.4768C47.6937 93.5469 47.0824 93.474 46.2266 93.474C44.3926 93.474 41.8733 94.0371 40.7965 95.6512C40.6742 95.7981 40.5766 95.9204 40.479 95.9204C40.4297 95.9204 40.4297 95.8711 40.4297 95.8217C40.4297 95.7488 40.4544 95.6759 40.479 95.5772L41.262 92.8627H56.2297Z" fill="#231F20"/>
<path d="M61.6533 103.595C61.6533 104.55 61.7262 105.479 61.825 106.432C61.9719 107.778 62.6561 107.9 65.1508 107.9C67.5231 107.9 70.1894 107.778 72.3172 106.604C73.1001 106.164 73.3682 105.796 73.7844 105.282C73.8573 105.209 73.9313 105.161 74.0042 105.161C74.0782 105.161 74.1276 105.209 74.1276 105.282C74.1276 105.356 74.1276 105.454 74.0782 105.576L73.1001 108.512H58.2288C57.9843 108.512 57.8867 108.512 57.8867 108.438C57.8867 108.34 58.009 108.218 58.3275 108.145C59.4773 107.826 59.5502 105.039 59.5502 103.889V95.3532C59.5502 94.4234 59.5008 93.5922 58.6203 93.1514C58.5227 93.1031 58.4498 93.0785 58.4498 93.0055C58.4498 92.8586 58.7426 92.8586 58.9635 92.8586H71.9751L72.4148 94.2764C72.6111 94.8877 72.8792 95.867 72.8792 95.9646C72.8792 96.0375 72.8062 96.0621 72.7322 96.0621C72.6593 96.0621 72.5617 95.9399 72.4888 95.8176C71.2404 94.0083 69.089 93.4699 66.1042 93.4699H61.6533V99.8041H64.0257C67.5478 99.8041 69.0396 99.6818 69.6263 99.1199C69.9942 98.7531 70.14 98.4839 70.3116 98.0924C70.361 98.0184 70.4092 97.9701 70.4832 97.9701C70.6044 97.9701 70.6044 98.1171 70.6044 98.3616V101.957C70.6044 102.104 70.6044 102.348 70.5079 102.348C70.4586 102.348 70.4092 102.299 70.361 102.226C70.1894 101.859 70.0177 101.54 69.5287 101.198C68.3554 100.417 65.4682 100.417 64.0257 100.417H61.6533V103.595Z" fill="#231F20"/>
<path d="M77.1292 108.513C76.1018 108.513 75.6127 108.586 75.4411 108.586C75.2459 108.586 75.1719 108.561 75.1719 108.44C75.1719 108.341 75.3188 108.293 75.5151 108.244C76.7377 107.877 77.0799 106.947 77.0799 104.038V95.4521C77.0799 93.7898 76.7624 93.2996 76.0771 93.1044C75.9301 93.0551 75.8819 92.9822 75.8819 92.9328C75.8819 92.8352 76.0042 92.7623 76.3216 92.7623C76.6155 92.7623 77.1528 92.8599 78.058 92.8599C79.1101 92.8599 79.7943 92.7623 80.3081 92.7623C80.4057 92.7623 80.5773 92.7623 80.5773 92.9081C80.5773 93.0069 80.4797 93.0315 80.3821 93.0798C79.4029 93.349 79.2077 94.2788 79.1841 95.2323V102.154C79.1841 107.633 79.5498 107.902 81.9222 107.902C84.2463 107.902 88.355 107.633 90.0185 105.602C90.1408 105.407 90.263 105.235 90.41 105.235C90.5076 105.235 90.5322 105.309 90.5322 105.407C90.5322 105.455 90.5076 105.602 90.4829 105.7L89.5541 108.513H77.1292Z" fill="#231F20"/>
<path d="M105.906 94.0791C104.634 94.0791 103.827 94.9349 103.827 96.1587C103.827 97.5271 104.756 98.8732 105.662 99.8266C107.129 99.4351 108.156 97.968 108.156 96.4761C108.156 95.1065 107.373 94.0062 105.906 94.0791ZM106.64 108.387C108.034 108.387 109.379 107.775 110.406 106.821C108.229 105.012 106.101 103.129 104.17 101.074C102.971 101.759 102.115 102.737 102.115 104.18C102.115 106.504 104.414 108.387 106.64 108.387ZM114.026 100.658C114.173 102.224 113.048 104.644 112.143 105.819C113.709 107.091 114.857 107.874 116.375 108.167C116.595 108.192 116.692 108.265 116.692 108.363C116.692 108.51 116.521 108.51 116.375 108.51H112.828C112.437 108.485 111.262 107.433 110.895 107.188C109.478 108.313 107.618 108.999 105.809 108.999C103.192 109.047 100.012 107.849 100.012 104.865C100.012 102.737 102.14 101.465 103.827 100.634C102.995 99.7784 102.359 98.5299 102.359 97.332C102.359 95.0819 104.317 93.4678 106.371 93.4678C108.425 93.4678 109.82 94.373 109.82 96.2551C109.82 98.457 107.814 99.5327 106.028 100.267C107.717 102.101 109.575 103.788 111.556 105.28C111.948 104.694 112.143 103.96 112.143 103.324C112.143 101.906 111.36 101.123 110.162 100.902C110.04 100.879 109.991 100.829 109.991 100.781C109.991 100.658 110.112 100.658 110.211 100.658H114.026Z" fill="#231F20"/>
<path d="M128.23 99.9523H132.755C135.225 99.9523 138.015 99.488 138.015 96.4549C138.015 94.2048 135.862 93.3736 133.807 93.3736H128.23V99.9523ZM128.23 104.135C128.23 106.091 128.45 107.975 129.454 108.293C129.624 108.341 129.844 108.414 129.844 108.488C129.844 108.538 129.649 108.586 129.356 108.586C129.111 108.586 128.671 108.513 127.204 108.513C125.369 108.513 124.807 108.586 124.708 108.586C124.611 108.586 124.488 108.561 124.488 108.488C124.488 108.439 124.708 108.341 124.88 108.244C125.712 107.828 126.127 106.532 126.127 103.377V95.2558C126.127 94.474 125.98 93.4712 125.173 93.1527C124.904 93.0551 124.807 92.9575 124.807 92.8846C124.807 92.8106 124.929 92.7612 125.296 92.7612H132.487C138.993 92.7612 140.632 94.474 140.632 96.6019C140.632 99.7078 136.376 100.393 134.835 100.393V100.443C137.648 101.224 138.748 101.738 139.824 104.575C140.288 105.749 140.779 107.51 141.732 108.122C142.147 108.391 142.319 108.318 142.319 108.439C142.319 108.488 142.294 108.513 142.147 108.513H139.334C138.796 108.513 138.675 108.464 138.454 107.852C137.916 106.361 137.158 104.233 136.644 103.108C135.666 100.98 134.737 100.564 130.896 100.564H128.23V104.135Z" fill="#231F20"/>
<path d="M146.781 103.595C146.781 104.55 146.854 105.479 146.953 106.432C147.1 107.778 147.785 107.9 150.279 107.9C152.651 107.9 155.317 107.778 157.446 106.604C158.228 106.164 158.497 105.796 158.912 105.282C158.986 105.209 159.059 105.161 159.133 105.161C159.206 105.161 159.255 105.209 159.255 105.282C159.255 105.356 159.255 105.454 159.206 105.576L158.228 108.512H143.357C143.112 108.512 143.016 108.512 143.016 108.438C143.016 108.34 143.138 108.218 143.455 108.145C144.605 107.826 144.678 105.039 144.678 103.889V95.3532C144.678 94.4234 144.63 93.5922 143.749 93.1514C143.65 93.1031 143.578 93.0785 143.578 93.0055C143.578 92.8586 143.87 92.8586 144.091 92.8586H157.103L157.544 94.2764C157.739 94.8877 158.008 95.867 158.008 95.9646C158.008 96.0375 157.934 96.0621 157.861 96.0621C157.788 96.0621 157.691 95.9399 157.617 95.8176C156.369 94.0083 154.217 93.4699 151.233 93.4699H146.781V99.8041H149.153C152.677 99.8041 154.169 99.6818 154.754 99.1199C155.122 98.7531 155.268 98.4839 155.441 98.0924C155.489 98.0184 155.538 97.9701 155.611 97.9701C155.733 97.9701 155.733 98.1171 155.733 98.3616V101.957C155.733 102.104 155.733 102.348 155.636 102.348C155.587 102.348 155.538 102.299 155.489 102.226C155.317 101.859 155.147 101.54 154.656 101.198C153.483 100.417 150.597 100.417 149.153 100.417H146.781V103.595Z" fill="#231F20"/>
<path d="M166.102 101.052C164.097 100.66 161.162 99.7551 161.162 97.2122C161.162 94.0569 164.293 92.3688 168.108 92.3688C170.211 92.3688 172.657 92.9072 174.516 93.8853L173.832 95.8909C173.734 96.1601 173.636 96.4046 173.562 96.4046C173.489 96.4046 173.44 96.1847 173.342 95.8909C172.608 93.6408 169.135 92.9801 167.374 92.9801C165.589 92.9801 163.266 93.7384 163.266 96.1847C163.266 98.5324 166.273 98.9486 167.986 99.2907L170.872 99.8291C173.048 100.244 174.98 101.346 174.98 103.791C174.98 107.68 169.967 109 167.179 109C164.904 109 162.017 108.218 160.061 107.288C159.89 107.215 159.816 107.166 159.816 107.141C159.816 107.118 159.841 107.044 159.865 106.994L160.672 104.524C160.698 104.427 160.771 104.353 160.869 104.353C160.941 104.353 161.015 104.427 161.039 104.549C161.359 107.288 165.1 108.39 167.473 108.39C169.723 108.39 172.877 107.483 172.877 104.769C172.877 102.641 171.215 102.079 169.185 101.663L166.102 101.052Z" fill="#231F20"/>
<path d="M192.093 92.8627L192.875 95.5772C192.901 95.6759 192.924 95.7488 192.924 95.8217C192.924 95.8711 192.924 95.9204 192.875 95.9204C192.777 95.9204 192.68 95.7981 192.557 95.6512C191.482 94.0371 188.962 93.474 187.127 93.474C186.273 93.474 185.66 93.5469 185.66 94.4768V103.722C185.66 106.779 185.979 107.929 186.835 108.222C187.201 108.344 187.445 108.443 187.445 108.491C187.445 108.565 187.348 108.59 187.177 108.59C187.006 108.59 186.418 108.516 184.707 108.516C182.774 108.516 182.115 108.59 181.87 108.59C181.674 108.59 181.649 108.516 181.649 108.443C181.649 108.321 181.918 108.321 182.26 108.247C183.238 108.002 183.557 105.826 183.557 103.282V94.4768C183.557 93.5469 182.946 93.474 182.09 93.474C180.255 93.474 177.735 94.0371 176.66 95.6512C176.537 95.7981 176.44 95.9204 176.341 95.9204C176.293 95.9204 176.293 95.8711 176.293 95.8217C176.293 95.7488 176.318 95.6759 176.341 95.5772L177.124 92.8627H192.093Z" fill="#231F20"/>
<path d="M200.286 94.984L197.325 100.267H203.049L200.286 94.984ZM197.033 100.878L195.467 103.839C194.979 104.743 194.391 106.015 194.391 106.969C194.391 107.384 194.636 107.776 195.002 108.045C195.296 108.265 195.687 108.314 195.687 108.461C195.687 108.534 195.541 108.559 195.32 108.559C194.733 108.559 194.171 108.509 193.608 108.509C193.02 108.509 192.41 108.559 191.823 108.559C191.603 108.559 191.383 108.559 191.383 108.436C191.383 108.289 191.75 108.118 191.897 107.972C192.899 107.017 193.828 105.379 194.416 104.351L200.848 92.514C200.897 92.4153 200.946 92.3671 201.019 92.3671H201.067C201.141 92.3671 201.24 92.4647 201.24 92.514L208.454 106.406C208.797 107.066 209.384 107.751 209.995 108.167C210.216 108.314 210.362 108.387 210.362 108.436C210.362 108.485 210.338 108.559 210.118 108.559C209.408 108.559 208.577 108.509 207.819 108.509C207.061 108.509 206.033 108.559 205.349 108.559C205.226 108.559 205.153 108.534 205.153 108.485C205.153 108.338 205.372 108.314 205.617 108.192C205.837 108.07 206.058 107.849 206.058 107.311C206.058 106.651 205.519 105.379 204.883 104.107L203.294 100.878H197.033Z" fill="#231F20"/>
<path d="M212.625 95.2302C212.625 93.4938 212.185 93.2975 211.867 93.1506C211.622 93.053 211.5 93.0048 211.5 92.9061C211.5 92.8332 211.549 92.7591 211.769 92.7591C212.357 92.7591 212.992 92.8578 213.58 92.8578C214.166 92.8578 214.802 92.7591 215.732 92.7591C215.903 92.7591 216.099 92.8085 216.099 92.8825C216.099 92.9307 216.025 93.053 215.756 93.1506C214.778 93.4938 214.729 95.0586 214.729 96.5751V102.714C214.729 106.016 216.441 108.389 220.183 108.389C224.022 108.389 226.542 107.19 226.542 102.151V96.7961C226.542 94.6671 226.175 93.6643 225.197 93.2246C224.83 93.053 224.708 92.9801 224.708 92.8825C224.708 92.7838 224.929 92.7591 225.002 92.7591C225.222 92.7591 225.564 92.8578 226.983 92.8578C227.619 92.8578 228.524 92.8085 228.719 92.8085C228.914 92.8085 228.988 92.8578 228.988 92.9061C228.988 92.9801 228.768 93.0777 228.572 93.1999C227.643 93.7384 227.325 94.3497 227.325 96.7961V101.736C227.325 107.728 224.562 109 220.061 109C214.435 109 212.625 106.994 212.625 103.277V95.2302Z" fill="#231F20"/>
<path d="M233.75 99.9523H238.275C240.745 99.9523 243.533 99.488 243.533 96.4549C243.533 94.2048 241.381 93.3736 239.327 93.3736H233.75V99.9523ZM233.75 104.135C233.75 106.091 233.97 107.975 234.972 108.293C235.144 108.341 235.364 108.414 235.364 108.488C235.364 108.538 235.169 108.586 234.875 108.586C234.63 108.586 234.191 108.513 232.722 108.513C230.888 108.513 230.325 108.586 230.228 108.586C230.13 108.586 230.008 108.561 230.008 108.488C230.008 108.439 230.228 108.341 230.399 108.244C231.23 107.828 231.647 106.532 231.647 103.377V95.2558C231.647 94.474 231.5 93.4712 230.692 93.1527C230.423 93.0551 230.325 92.9575 230.325 92.8846C230.325 92.8106 230.449 92.7612 230.815 92.7612H238.005C244.511 92.7612 246.15 94.474 246.15 96.6019C246.15 99.7078 241.894 100.393 240.354 100.393V100.443C243.166 101.224 244.267 101.738 245.343 104.575C245.808 105.749 246.297 107.51 247.25 108.122C247.666 108.391 247.838 108.318 247.838 108.439C247.838 108.488 247.813 108.513 247.666 108.513H244.853C244.316 108.513 244.194 108.464 243.973 107.852C243.436 106.361 242.677 104.233 242.164 103.108C241.185 100.98 240.256 100.564 236.416 100.564H233.75V104.135Z" fill="#231F20"/>
<path d="M256.887 94.984L253.928 100.267H259.652L256.887 94.984ZM253.635 100.878L252.07 103.839C251.58 104.743 250.993 106.015 250.993 106.969C250.993 107.384 251.238 107.776 251.605 108.045C251.899 108.265 252.289 108.314 252.289 108.461C252.289 108.534 252.144 108.559 251.923 108.559C251.336 108.559 250.773 108.509 250.211 108.509C249.623 108.509 249.012 108.559 248.425 108.559C248.205 108.559 247.984 108.559 247.984 108.436C247.984 108.289 248.352 108.118 248.498 107.972C249.501 107.017 250.431 105.379 251.019 104.351L257.45 92.514C257.5 92.4153 257.548 92.3671 257.621 92.3671H257.67C257.744 92.3671 257.842 92.4647 257.842 92.514L265.056 106.406C265.4 107.066 265.985 107.751 266.598 108.167C266.819 108.314 266.964 108.387 266.964 108.436C266.964 108.485 266.94 108.559 266.72 108.559C266.011 108.559 265.18 108.509 264.422 108.509C263.662 108.509 262.636 108.559 261.95 108.559C261.828 108.559 261.755 108.534 261.755 108.485C261.755 108.338 261.975 108.314 262.22 108.192C262.44 108.07 262.659 107.849 262.659 107.311C262.659 106.651 262.122 105.379 261.486 104.107L259.897 100.878H253.635Z" fill="#231F20"/>
<path d="M269.229 95.6946C269.206 94.3979 269.034 93.4938 267.908 93.1012C267.787 93.053 267.689 92.9801 267.689 92.9307C267.689 92.8332 267.738 92.7591 268.007 92.7591C268.251 92.7591 269.229 92.8578 269.816 92.8578C270.427 92.8578 271.137 92.8332 271.651 92.8085C272.532 94.0558 273.558 95.1808 274.635 96.2565L282.779 104.939V96.7703C282.779 94.6918 282.069 93.6643 281.41 93.2729C281.091 93.1012 280.847 93.1012 280.847 92.9801C280.847 92.8578 280.994 92.7591 281.264 92.7591C281.631 92.7591 282.682 92.8578 283.171 92.8578C283.685 92.8578 284.345 92.7591 284.859 92.7591C285.2 92.7591 285.275 92.8825 285.275 92.9554C285.275 93.0294 285.152 93.1012 284.883 93.2246C284.271 93.4692 283.561 94.1287 283.561 96.7703V106.677C283.561 107.973 283.489 109 283.318 109H283.27C283.024 109 282.73 108.437 281.215 106.702C278.23 103.277 273.828 98.3361 270.012 94.6436V104.597C270.012 107.092 270.721 107.826 271.26 108.144C271.602 108.364 271.773 108.364 271.773 108.486C271.773 108.559 271.699 108.584 271.578 108.584C271.284 108.584 270.501 108.511 269.622 108.511C269.108 108.511 267.762 108.584 267.47 108.584C267.297 108.584 267.199 108.559 267.199 108.486C267.199 108.339 267.811 108.242 268.178 107.923C268.961 107.239 269.229 106.261 269.229 104.084V95.6946Z" fill="#231F20"/>
<path d="M301.679 92.8627L302.461 95.5772C302.485 95.6759 302.51 95.7488 302.51 95.8217C302.51 95.8711 302.51 95.9204 302.461 95.9204C302.363 95.9204 302.266 95.7981 302.143 95.6512C301.067 94.0371 298.548 93.474 296.713 93.474C295.859 93.474 295.246 93.5469 295.246 94.4768V103.722C295.246 106.779 295.565 107.929 296.421 108.222C296.787 108.344 297.031 108.443 297.031 108.491C297.031 108.565 296.934 108.59 296.763 108.59C296.591 108.59 296.004 108.516 294.292 108.516C292.36 108.516 291.7 108.59 291.455 108.59C291.26 108.59 291.235 108.516 291.235 108.443C291.235 108.321 291.504 108.321 291.846 108.247C292.824 108.002 293.143 105.826 293.143 103.282V94.4768C293.143 93.5469 292.532 93.474 291.675 93.474C289.841 93.474 287.321 94.0371 286.246 95.6512C286.123 95.7981 286.026 95.9204 285.927 95.9204C285.879 95.9204 285.879 95.8711 285.879 95.8217C285.879 95.7488 285.904 95.6759 285.927 95.5772L286.71 92.8627H301.679Z" fill="#231F20"/>
<path d="M4.16369 42.1639C4.16369 39.9789 4.02685 37.0445 1.63766 36.1562C1.36397 36.0193 1.15982 35.9509 1.15982 35.6783C1.15982 35.2689 1.36397 35.2689 2.25234 35.2689C3.07117 35.2689 4.57311 35.5426 7.09914 35.5426C8.6695 35.5426 10.3083 35.2689 11.8775 35.2689C12.1512 35.2689 13.0385 35.2689 13.0385 35.6099C13.0385 35.8836 12.9016 36.0877 12.5606 36.1562C10.2399 36.8393 10.0346 39.501 10.0346 42.1639V66.1938C10.0346 72.4068 10.0346 77.2536 13.1069 78.6187C13.652 78.8239 13.8573 79.0281 13.8573 79.2334C13.8573 79.3691 13.5163 79.4375 13.1069 79.4375C12.4922 79.4375 10.3756 79.2334 7.09914 79.2334C3.27532 79.2334 1.43239 79.4375 0.81883 79.4375C0.272569 79.4375 0 79.3691 0 79.1649C0 79.0281 0.476716 78.8239 0.955676 78.4818C3.95843 76.5705 4.16369 70.5627 4.16369 66.1938V42.1639Z" fill="#231F20"/>
<path d="M34.8878 65.7159C34.8878 75.2738 35.0931 77.5261 40.0072 77.5261C42.0554 77.5261 44.1036 77.7314 46.1518 77.7314C48.0631 77.7314 49.8387 77.663 53.1152 77.4577C60.0102 77.0483 64.7886 74.0444 64.7886 67.4916C64.7886 56.637 51.8858 56.637 43.3532 56.637H34.8878V65.7159ZM34.8878 54.9298H45.7424C52.4321 54.9298 60.829 54.2467 60.829 45.4404C60.829 39.9116 56.1875 36.975 45.6739 36.975H34.8878V54.9298ZM29.0169 44.6899C29.0169 39.9116 28.9485 37.6581 26.2183 36.3614C25.672 36.1562 25.3984 36.0193 25.3984 35.6783C25.3984 35.5426 25.7393 35.2689 26.9003 35.2689H41.4418C56.7337 35.2689 67.9293 36.634 67.9293 45.5772C67.9293 53.2226 57.0747 55.6813 53.5246 55.6813V55.8171C60.0102 56.4317 72.093 58.2062 72.093 67.2179C72.093 74.796 63.1509 78.8239 57.2105 79.0965C53.8656 79.3018 50.5207 79.4375 47.7906 79.4375C45.6055 79.4375 42.7385 79.2334 39.7346 79.2334H30.1094C26.6277 79.2334 25.1258 79.4375 24.4427 79.4375C24.0333 79.4375 23.9648 79.3018 23.9648 79.1649C23.9648 78.9597 24.4427 78.7555 25.4668 78.4134C27.2424 77.7987 29.0169 75.0001 29.0169 66.5348V44.6899Z" fill="#231F20"/>
<path d="M89.9706 56.6341V65.5089C89.9706 68.1718 90.1759 70.7651 90.4484 73.428C90.8578 77.1823 92.7692 77.5244 99.7326 77.5244C106.355 77.5244 113.796 77.1823 119.736 73.9058C121.92 72.6765 122.67 71.6524 123.831 70.2189C124.036 70.0147 124.241 69.8779 124.446 69.8779C124.651 69.8779 124.787 70.0147 124.787 70.2189C124.787 70.4241 124.787 70.6967 124.651 71.0388L121.92 79.2305H80.4127C79.7307 79.2305 79.457 79.2305 79.457 79.0252C79.457 78.7526 79.7991 78.4116 80.6864 78.2064C83.8944 77.3191 84.0997 69.5357 84.0997 66.3277V42.502C84.0997 39.9087 83.9628 37.5879 81.5052 36.3586C81.2327 36.2217 81.0274 36.1533 81.0274 35.9491C81.0274 35.5397 81.8462 35.5397 82.4609 35.5397H118.78L120.008 39.4993C120.554 41.2054 121.306 43.9367 121.306 44.2092C121.306 44.4134 121.101 44.4829 120.895 44.4829C120.691 44.4829 120.418 44.1408 120.213 43.7998C116.732 38.7477 110.724 37.2458 102.395 37.2458H89.9706" fill="#231F20"/>
<path d="M141.45 55.3392H154.079C160.974 55.3392 168.756 54.0426 168.756 45.5772C168.756 39.2969 162.749 36.975 157.015 36.975H141.45V55.3392ZM141.45 67.0137C141.45 72.4741 142.064 77.7314 144.863 78.6187C145.341 78.7544 145.956 78.9597 145.956 79.1649C145.956 79.3018 145.409 79.4375 144.59 79.4375C143.907 79.4375 142.678 79.2334 138.582 79.2334C133.463 79.2334 131.892 79.4375 131.619 79.4375C131.346 79.4375 131.004 79.3691 131.004 79.1649C131.004 79.0281 131.619 78.7544 132.096 78.4818C134.417 77.322 135.579 73.7034 135.579 64.8971V42.2323C135.579 40.0473 135.169 37.2487 132.916 36.3614C132.166 36.0877 131.892 35.8152 131.892 35.6099C131.892 35.4058 132.233 35.2689 133.257 35.2689H153.329C171.487 35.2689 176.061 40.0473 176.061 45.9866C176.061 54.6572 164.183 56.5686 159.883 56.5686V56.7043C167.733 58.8894 170.805 60.3229 173.809 68.242C175.105 71.5184 176.471 76.4347 179.133 78.1408C180.294 78.8924 180.772 78.6871 180.772 79.0281C180.772 79.1649 180.704 79.2334 180.294 79.2334H172.443C170.941 79.2334 170.599 79.0965 169.985 77.3904C168.484 73.2256 166.367 67.2863 164.934 64.1467C162.202 58.2063 159.608 57.0453 148.891 57.0453H141.45V67.0137Z" fill="#231F20"/>
<path d="M191.216 42.1639C191.216 39.9789 191.079 37.0445 188.69 36.1562C188.416 36.0193 188.211 35.9509 188.211 35.6783C188.211 35.2689 188.416 35.2689 189.303 35.2689C190.122 35.2689 191.624 35.5426 194.15 35.5426C195.721 35.5426 197.359 35.2689 198.929 35.2689C199.202 35.2689 200.089 35.2689 200.089 35.6099C200.089 35.8836 199.954 36.0877 199.611 36.1562C197.291 36.8393 197.085 39.501 197.085 42.1639V66.1938C197.085 72.4068 197.085 77.2536 200.159 78.6187C200.704 78.8239 200.909 79.0281 200.909 79.2334C200.909 79.3691 200.568 79.4375 200.159 79.4375C199.544 79.4375 197.427 79.2334 194.15 79.2334C190.327 79.2334 188.484 79.4375 187.871 79.4375C187.323 79.4375 187.051 79.3691 187.051 79.1649C187.051 79.0281 187.529 78.8239 188.006 78.4818C191.01 76.5705 191.216 70.5627 191.216 66.1938V42.1639Z" fill="#231F20"/>
<path d="M231.833 41.4789L223.573 56.2246H239.548L231.833 41.4789ZM222.753 57.9307L218.385 66.1919C217.019 68.7179 215.381 72.2669 215.381 74.9298C215.381 76.0896 216.063 77.1833 217.087 77.9337C217.906 78.5484 219 78.6841 219 79.0946C219 79.2988 218.589 79.3672 217.976 79.3672C216.337 79.3672 214.767 79.2303 213.196 79.2303C211.557 79.2303 209.85 79.3672 208.213 79.3672C207.599 79.3672 206.984 79.3672 206.984 79.0262C206.984 78.6157 208.008 78.1389 208.418 77.7284C211.216 75.0666 213.811 70.4924 215.45 67.6254L233.403 34.5839C233.539 34.3102 233.677 34.1745 233.881 34.1745H234.018C234.222 34.1745 234.496 34.4471 234.496 34.5839L254.635 73.3594C255.59 75.2024 257.229 77.1148 258.935 78.2747C259.55 78.6841 259.959 78.8893 259.959 79.0262C259.959 79.1619 259.892 79.3672 259.277 79.3672C257.296 79.3672 254.976 79.2303 252.859 79.2303C250.742 79.2303 247.877 79.3672 245.965 79.3672C245.623 79.3672 245.418 79.2988 245.418 79.1619C245.418 78.7525 246.032 78.6841 246.716 78.3431C247.329 78.0021 247.944 77.3874 247.944 75.8855C247.944 74.0425 246.442 70.4924 244.667 66.9423L240.23 57.9307H222.753Z" fill="#231F20"/>
<path d="M303.652 53.2119L303.463 52.5523L302.994 52.4581L302.714 52.0834L302.243 51.9892L301.584 51.803L300.928 51.895L300.457 51.803L300.645 51.4261L300.833 51.0493L300.928 50.5804L300.74 49.9231L300.365 49.7358L299.988 49.5462L299.517 49.8289L298.861 50.2035L298.955 49.8289L299.05 49.452L299.237 48.7947L299.331 48.1385L299.142 47.6696L298.767 47.2938L298.109 47.4812L297.546 47.5754L297.829 47.1043L297.923 46.7296V46.0701L297.546 45.6012L297.359 45.3208L296.512 45.2266L295.668 45.3208L294.823 45.7897L295.104 45.3208L295.48 44.8497L295.763 44.0051L295.668 43.4409L295.48 42.9709L295.104 42.5031L294.633 42.5962L293.883 42.7836L293.225 43.0651L292.66 43.4409L291.628 44.3808L291.063 44.8497C291.063 44.8497 291.157 44.1004 291.251 43.8177C291.346 43.534 291.533 43.2535 291.533 43.2535L291.817 42.6893L292.098 42.2205L292.755 41.4678L293.131 40.9047L293.602 40.4347L294.069 39.7763L294.54 39.2144L294.823 38.4628L294.726 37.8986L294.54 37.3355L294.26 36.8655L293.975 36.3036L293.506 35.7383L293.131 35.2683L292.66 34.9878L292.285 34.7063L292.191 34.1421L292.098 33.5779L291.81 33.164L291.533 32.7321L290.876 32.8264L290.217 32.7321L289.936 32.1691L289.372 31.7922L288.904 31.2291L288.529 30.666L287.965 30.4776L287.212 30.1007L286.555 30.3833L285.71 30.9475L285.146 31.4175L284.866 32.0748L284.113 32.7321L283.549 32.5437L282.891 32.3575L282.328 32.639L281.763 33.6721L281.385 34.3563L280.919 35.2683L280.074 36.4898L279.418 37.2424L278.854 38.0871L278.289 38.557L277.82 39.3075L277.443 40.529L276.974 41.1863L276.598 42.1262V41.6563V40.9047L276.506 40.3405L276.411 39.6832V38.9328L276.316 38.2744L276.223 37.6182L276.035 36.3036L275.752 35.8325L275.659 34.8936L275.465 34.3563L275.659 33.6721L276.218 33.164L276.316 32.2621L276.223 31.0406L276.035 30.1949L275.659 29.7271L275.189 29.4456L274.343 29.0698L273.591 28.693L273.028 28.5056H272.277L271.148 28.8814L270.773 29.5387L270.868 30.4776L270.678 32.0748L270.585 33.4837L270.211 34.7063L269.648 35.8325L268.803 37.3355L268.049 39.027L267.392 40.8105L266.828 42.4089L266.169 44.4751L265.982 46.9181L266.077 49.2647L266.828 50.7677L267.484 52.0834L268.143 53.8669L269.142 55.5023L261.965 52.5288L28.8701 53.6011L13.1172 56.2393L28.8701 58.6935L261.965 59.767L269.235 56.8338L269.178 56.9695L268.707 57.7199L268.332 58.6588L267.955 59.9723L267.58 61.0087L267.392 62.1349L267.112 63.5437L267.015 65.2352L266.828 66.644L267.206 68.4286L267.392 69.557L268.049 71.1521L268.52 72.2805L269.835 73.4067L270.962 74.5351L271.806 75.1924L272.557 76.0381L273.31 77.0712L273.873 78.1043L274.438 79.2305L275.095 80.7346L275.752 81.4862L276.974 82.4261L278.102 82.8008L279.229 82.7066H279.979L281.107 82.5204L281.763 82.0493L282.14 81.5804L282.517 81.1093L282.704 80.5473L283.266 79.9831L283.831 80.0762H284.583L285.052 79.7947L285.426 79.7004L285.523 78.8569L285.426 78.1974L285.24 77.3516L284.959 76.4128L284.677 75.6624L284.113 74.5351L284.866 75.0982L285.617 75.8497L286.649 76.8839L287.401 77.7274L288.246 78.6663L288.998 79.512L289.936 79.8889L290.688 79.7004L291.533 79.3247L291.909 78.9489L292.191 78.5732L292.285 77.9147L292.191 77.1643H292.66L293.413 76.8839L293.975 76.6012V76.0381L294.54 75.5682L294.726 74.9097L294.633 74.2524L294.069 73.5951L293.694 72.9378L293.037 72.2805L292.568 71.6232L292.285 70.9636L291.722 70.1201L291.44 69.557L291.251 69.1802L290.312 68.7102L289.655 68.4286L289.936 67.7713L290.501 68.2402H291.251L292.003 67.9575L292.847 67.584L294.26 67.2082L295.009 66.9267L296.043 66.4545L296.795 65.8925L297.735 65.3294L298.203 64.8583L298.579 64.3906L298.955 63.9206L299.237 63.3564L299.612 62.6991L300.081 61.758L300.365 61.0087V60.1607L300.457 59.3172L301.022 58.8461L301.584 58.6588L302.243 58.283L302.617 57.9084L303.088 57.6257L303.183 57.1557L302.994 56.5915L302.714 56.31L302.148 55.7469L302.806 55.8411L303.463 55.6526L303.84 55.1827V54.6207V53.8669L303.652 53.2119Z" fill="black"/>
<path d="M150.573 -0.000522614L153.202 8.45698L162.06 8.34481L154.827 13.4586L157.672 21.8477L150.573 16.5488L143.475 21.8477L146.319 13.4586L139.086 8.34481L147.943 8.45698L150.573 -0.000522614Z" fill="#231F20"/>
<path d="M120.822 0.00728989L123.451 8.46592L132.308 8.3515L125.075 13.4675L127.921 21.8555L120.822 16.5566L113.723 21.8555L116.569 13.4675L109.336 8.3515L118.194 8.46592L120.822 0.00728989Z" fill="#231F20"/>
<path d="M180.896 0.335415L183.527 8.79292L192.38 8.67963L185.15 13.7945L187.993 22.1836L180.896 16.8848L173.797 22.1836L176.642 13.7945L169.41 8.67963L178.266 8.79292L180.896 0.335415Z" fill="#231F20"/>
</svg>
