<svg width="324" height="81" viewBox="0 0 324 81" fill="none" xmlns="http://www.w3.org/2000/svg">
<g clip-path="url(#clip0_1034_3000)">
<path d="M70.7074 0H39.0977V30.3231H70.7074V0Z" fill="black"/>
<path d="M70.7074 37.8008H39.0977V81.0008H70.7074V37.8008Z" fill="black"/>
<path d="M31.6098 37.8008H0V81.0008H31.6098V37.8008Z" fill="black"/>
<path d="M0 0H31.6098V30.3231H0V0Z" fill="black"/>
<path d="M120.304 18.5684L115.063 48.3515C114.232 52.9622 112.298 56.5138 109.261 59.0061C106.225 61.4984 102.503 62.7445 98.0939 62.7445C94.1011 62.7445 90.9401 61.7476 88.611 59.7538C86.3235 57.7599 85.1797 54.8938 85.1797 51.1553C85.1797 49.8676 85.2837 48.7045 85.4916 47.6661H96.0975C95.9728 48.3307 95.9104 48.933 95.9104 49.473C95.9104 50.7192 96.2223 51.6538 96.8462 52.2768C97.4701 52.8999 98.3435 53.2115 99.4665 53.2115C100.756 53.2115 101.816 52.8169 102.648 52.0276C103.522 51.1969 104.104 49.9715 104.395 48.3515L109.636 18.5684H120.304ZM135.035 18.5684V62.3084H124.367V18.5684H135.035ZM165.101 62.3084L155.993 45.7969H153.435V62.3084H142.766V18.5684H160.672C164.124 18.5684 167.056 19.1707 169.468 20.3753C171.922 21.5799 173.752 23.2415 174.958 25.3599C176.165 27.4369 176.768 29.763 176.768 32.3384C176.768 35.2461 175.936 37.8422 174.272 40.1269C172.65 42.4115 170.238 44.0315 167.035 44.9869L177.142 62.3084H165.101ZM153.435 38.2576H160.048C162.003 38.2576 163.458 37.7799 164.415 36.8245C165.413 35.8692 165.912 34.5192 165.912 32.7745C165.912 31.113 165.413 29.8045 164.415 28.8492C163.458 27.8938 162.003 27.4161 160.048 27.4161H153.435V38.2576ZM204.427 18.5684C208.461 18.5684 211.934 19.2953 214.846 20.7492C217.799 22.1615 220.045 24.1761 221.584 26.793C223.164 29.3684 223.954 32.4007 223.954 35.8899C223.954 37.0945 223.809 38.6107 223.518 40.4384C222.769 44.7169 221.147 48.5176 218.651 51.8407C216.198 55.1638 213.057 57.7392 209.231 59.5668C205.446 61.3945 201.266 62.3084 196.691 62.3084H180.283L188.019 18.5684H204.427ZM197.627 53.2115C201.661 53.2115 205.009 52.0899 207.671 49.8469C210.333 47.6038 211.997 44.4676 212.662 40.4384C212.87 39.1922 212.974 38.1538 212.974 37.323C212.974 34.2492 212.038 31.8815 210.167 30.2199C208.295 28.5169 205.633 27.6653 202.181 27.6653H197.065L192.573 53.2115H197.627ZM249.506 62.7445C245.388 62.7445 241.603 61.7892 238.151 59.8784C234.741 57.9676 232.017 55.3092 229.979 51.903C227.982 48.4553 226.984 44.5922 226.984 40.3138C226.984 36.0353 227.982 32.193 229.979 28.7869C232.017 25.3807 234.741 22.7222 238.151 20.8115C241.603 18.9007 245.388 17.9453 249.506 17.9453C253.624 17.9453 257.388 18.9007 260.798 20.8115C264.25 22.7222 266.954 25.3807 268.909 28.7869C270.905 32.193 271.903 36.0353 271.903 40.3138C271.903 44.5922 270.905 48.4553 268.909 51.903C266.912 55.3092 264.209 57.9676 260.798 59.8784C257.388 61.7892 253.624 62.7445 249.506 62.7445ZM249.506 53.0245C253 53.0245 255.786 51.8615 257.866 49.5353C259.987 47.2092 261.048 44.1353 261.048 40.3138C261.048 36.4507 259.987 33.3769 257.866 31.0922C255.786 28.7661 253 27.603 249.506 27.603C245.971 27.603 243.142 28.7453 241.021 31.0299C238.942 33.3145 237.902 36.4092 237.902 40.3138C237.902 44.1769 238.942 47.2715 241.021 49.5976C243.142 51.8822 245.971 53.0245 249.506 53.0245ZM293.685 62.7445C290.482 62.7445 287.612 62.2253 285.075 61.1869C282.538 60.1484 280.5 58.6115 278.961 56.5761C277.464 54.5407 276.674 52.0899 276.59 49.2238H287.945C288.111 50.8438 288.673 52.0899 289.63 52.9622C290.586 53.793 291.834 54.2084 293.373 54.2084C294.953 54.2084 296.201 53.8553 297.116 53.1492C298.031 52.4015 298.489 51.3838 298.489 50.0961C298.489 49.0161 298.114 48.123 297.366 47.4168C296.659 46.7107 295.764 46.1292 294.683 45.6722C293.643 45.2153 292.146 44.6961 290.191 44.1145C287.363 43.2422 285.054 42.3699 283.266 41.4976C281.478 40.6253 279.939 39.3376 278.649 37.6345C277.36 35.9315 276.715 33.7092 276.715 30.9676C276.715 26.8969 278.192 23.7192 281.145 21.4345C284.098 19.1084 287.945 17.9453 292.687 17.9453C297.511 17.9453 301.4 19.1084 304.353 21.4345C307.306 23.7192 308.887 26.9176 309.094 31.0299H297.553C297.47 29.6176 296.95 28.5169 295.993 27.7276C295.036 26.8969 293.809 26.4815 292.312 26.4815C291.023 26.4815 289.983 26.8345 289.193 27.5407C288.403 28.2053 288.007 29.1815 288.007 30.4692C288.007 31.8815 288.673 32.9822 290.004 33.7715C291.335 34.5607 293.414 35.4122 296.243 36.3261C299.071 37.2815 301.358 38.1953 303.105 39.0676C304.894 39.9399 306.433 41.2069 307.722 42.8684C309.011 44.5299 309.656 46.6692 309.656 49.2861C309.656 51.7784 309.011 54.0422 307.722 56.0776C306.474 58.113 304.644 59.733 302.232 60.9376C299.82 62.1422 296.97 62.7445 293.685 62.7445Z" fill="black"/>
</g>
<defs>
<clipPath id="clip0_1034_3000">
<rect width="324" height="81" fill="white"/>
</clipPath>
</defs>
</svg>
