<svg width="245" height="119" viewBox="0 0 245 119" fill="none" xmlns="http://www.w3.org/2000/svg">
<path d="M1.00007 0.983475C0.0657696 1.91777 0.0165961 2.6062 0.0165961 20.6529V39.388L1.24593 40.5682C2.37693 41.7484 2.77031 41.7975 7.88436 41.7975H13.2935V59.5V77.2025H7.6385C-0.721008 77.2025 0.0165961 75.1864 0.0165961 98.1012C0.0165961 116.394 0.0657696 117.082 1.00007 118.017C1.98354 119 2.62279 119 109.919 119H217.905L219.036 117.869C220.216 116.64 220.314 114.624 219.183 113.198C218.839 112.755 196.908 112.607 112.575 112.607H6.40916V98.1012V83.595H9.80213H13.1951L13.5393 85.6603C14.0802 88.7583 15.4079 91.0694 18.0633 93.4298L20.4236 95.495L20.6695 102.92L20.9154 110.395H44.2728H67.6302L67.8761 102.969L68.122 95.495L70.6298 93.2331C75.0554 89.2992 74.7604 92.0037 74.7604 54.4843V21.3413L73.3835 19.1285C70.0397 13.9161 64.3356 10.8674 54.4517 9.09711C50.567 8.40868 48.0592 8.31033 41.9125 8.50703C33.0121 8.85124 28.4881 9.78554 23.0298 12.5393C19.391 14.3587 16.4897 16.8665 14.9162 19.5219C13.736 21.5872 13.5885 22.3248 13.3918 28.324L13.1459 34.9132H9.80213H6.40916V20.6529V6.39256H112.28C214.266 6.39256 218.249 6.34339 218.986 5.50744C220.068 4.2781 220.019 1.81943 218.937 0.835953C218.101 0.0491791 209.84 0 110.018 0C2.62279 0 1.98354 0 1.00007 0.983475ZM51.1571 16.9649C58.1889 18.0467 63.1554 19.8661 65.8108 22.2756L66.8926 23.2591V54.6318V86.0045L65.8108 87.0864C64.1881 88.6107 60.0083 90.381 55.1401 91.6103C49.0918 93.0855 38.8145 93.0855 33.0612 91.5612C28.2422 90.2335 23.5216 88.0207 22.4397 86.4471C21.7513 85.4636 21.653 81.7756 21.653 54.9269C21.653 29.5041 21.7513 24.2917 22.3414 23.1607C23.2265 21.4888 27.7013 19.0302 31.8811 17.9483C38.9129 16.1781 44.2236 15.8831 51.1571 16.9649ZM32.6678 99.6748C36.8968 100.904 51.993 100.855 56.3695 99.6748C60.4509 98.5438 60.5001 98.5438 60.5001 100.806V102.773H44.5187H28.5373V100.806C28.5373 98.5438 28.5864 98.5438 32.6678 99.6748Z" fill="black"/>
<path d="M231.036 0.49127C225.234 2.21235 222.431 9.63755 225.381 15.2925C228.479 21.095 236.298 22.4227 241.314 18.0462C247.116 12.9322 245.543 3.73672 238.412 0.786312C236.445 -0.0496387 233.2 -0.197159 231.036 0.49127ZM237.675 2.65491C240.084 3.63838 242.346 6.49044 242.69 8.99829C243.231 12.588 241.019 16.571 237.675 17.9971C231.921 20.4557 225.873 15.8826 226.365 9.5392C226.758 3.88424 232.462 0.442097 237.675 2.65491Z" fill="black"/>
<path d="M229.856 5.06517C229.758 5.40938 229.708 7.91724 229.758 10.6218C229.905 15.4408 229.905 15.49 231.134 15.49C232.216 15.49 232.364 15.2441 232.511 13.3755C232.659 11.7528 232.856 11.3102 233.593 11.3102C234.134 11.3102 234.921 12.097 235.658 13.3755C236.494 14.9491 237.134 15.5391 238.166 15.6375C239.789 15.8342 239.789 15.5883 238.265 12.8346C237.035 10.7693 237.035 10.5726 237.773 8.99905C239.15 6.09781 237.281 4.42591 232.56 4.42591C230.987 4.42591 230.053 4.67178 229.856 5.06517ZM235.068 7.13046C235.953 8.1631 235.314 9.34327 233.839 9.34327C232.856 9.34327 232.61 9.0974 232.61 8.21228C232.61 6.29451 233.888 5.7536 235.068 7.13046Z" fill="black"/>
<path d="M78.2031 59.9914V110.148H87.0544H95.9056V87.086C95.9056 74.3501 96.1023 63.8761 96.3482 63.7286C96.594 63.5811 97.5283 63.9253 98.4135 64.5646C103.183 67.6625 105.74 80.6443 105.74 101.248V110.148H114.887H124.033L123.787 95.4947C123.492 80.6935 123 75.7761 121.23 70.5637C119.902 66.679 117.64 62.7943 115.083 59.8931L112.674 57.1885L114.641 54.8282C121.623 46.3703 123.935 37.765 123.935 20.0133V9.8344H114.837H105.74V17.2596C105.74 30.0939 104.56 39.8794 102.249 45.9278C101.266 48.6323 97.43 53.5989 96.3482 53.5989C96.1023 53.5989 95.9056 43.7641 95.9056 31.7166V9.8344H87.0544H78.2031V59.9914Z" fill="black"/>
<path d="M129.34 59.7451V109.656H138.437H147.534V88.5116V67.367H151.96H156.385V88.5116V109.656H165.482H174.58V59.7451V9.83394H165.482H156.385V32.2079V54.631L151.911 54.4835L147.436 54.336L147.337 32.2079L147.288 10.0798L138.339 9.93229L129.34 9.83394V59.7451Z" fill="black"/>
<path d="M177.043 16.4728V23.1113H183.19H189.336V66.6298V110.148H198.433H207.531V66.6298V23.1113H213.628H219.676L220.021 20.1117C220.414 16.3253 220.414 12.3914 220.021 10.9162L219.726 9.8344H198.384H177.043V16.4728Z" fill="black"/>
</svg>
