<svg width="293" height="147" viewBox="0 0 293 147" fill="none" xmlns="http://www.w3.org/2000/svg">
<path d="M0 146.717H292.137V0.000610352H0V146.717Z" fill="black"/>
<path d="M74.4093 58.4961L34.4727 69.8292L49.7759 96.6694L34.4727 130.369L75.1554 118.738L74.4093 58.4961Z" fill="white"/>
<path d="M37.3272 70.9976L51.909 96.5726L37.9055 127.411L73.2352 117.31L72.5378 61.0057L37.3272 70.9976ZM31.0391 133.33L47.6416 96.7693L31.6174 68.6634L76.2802 55.9892L77.0751 120.169L31.0391 133.33Z" fill="white"/>
<path d="M74.1044 65.5948L40.8125 72.2168L73.1542 61.9112L74.1044 65.5948Z" fill="black"/>
<path d="M74.1258 70.1985L42.332 76.8438L73.1308 66.5267L74.1258 70.1985Z" fill="black"/>
<path d="M74.1093 74.8083L45.6641 80.2656L73.1486 71.1275L74.1093 74.8083Z" fill="black"/>
<path d="M74.1454 79.4091L49.3945 84.4434L73.1086 75.7491L74.1454 79.4091Z" fill="black"/>
<path d="M74.1299 84.0206L50.8945 88.3164L73.1395 80.3478L74.1299 84.0206Z" fill="black"/>
<path d="M74.156 88.627L54.6289 92.1973L73.1163 84.9676L74.156 88.627Z" fill="black"/>
<path d="M74.1437 93.2384L54.6289 96.6699L73.1283 89.5724L74.1437 93.2384Z" fill="black"/>
<path d="M74.1397 102.455L49.3945 107.406L73.1143 98.7914L74.1397 102.455Z" fill="black"/>
<path d="M74.1955 97.8325L52.3828 102.637L73.0638 94.2006L74.1955 97.8325Z" fill="black"/>
<path d="M74.1917 107.049L47.1602 113.369L73.0739 103.413L74.1917 107.049Z" fill="black"/>
<path d="M74.1458 111.668L44.1719 118.139L73.1142 108.007L74.1458 111.668Z" fill="black"/>
<path d="M74.1261 116.286L42.332 122.932L73.1311 112.614L74.1261 116.286Z" fill="black"/>
<path d="M75.6666 56.5899L60.207 77.3109L76.0658 88.1211L75.6666 56.5899Z" fill="white"/>
<path d="M232.875 110.273L272.812 98.941L257.508 72.1003L272.812 38.4013L232.129 50.0319L232.875 110.273Z" fill="white"/>
<path d="M234.051 51.4608L234.749 107.765L269.959 97.7734L255.377 72.198L269.381 41.3603L234.051 51.4608ZM231.006 112.781L230.211 48.602L276.247 35.4409L259.644 72.0014L275.669 100.108L231.006 112.781Z" fill="white"/>
<path d="M233.176 103.176L266.467 96.5542L234.126 106.859L233.176 103.176Z" fill="black"/>
<path d="M233.152 98.5705L264.946 91.9254L234.147 102.242L233.152 98.5705Z" fill="black"/>
<path d="M233.168 93.9579L261.613 88.5008L234.129 97.6387L233.168 93.9579Z" fill="black"/>
<path d="M233.137 89.3575L257.888 84.3227L234.173 93.0176L233.137 89.3575Z" fill="black"/>
<path d="M233.152 84.741L256.388 80.4457L234.143 88.4141L233.152 84.741Z" fill="black"/>
<path d="M233.133 80.1413L252.66 76.5705L234.172 83.8008L233.133 80.1413Z" fill="black"/>
<path d="M233.148 75.5313L252.663 72.0995L234.164 79.1973L233.148 75.5313Z" fill="black"/>
<path d="M233.141 66.3131L257.886 61.3613L234.166 69.9766L233.141 66.3131Z" fill="black"/>
<path d="M233.086 70.9384L254.899 66.1342L234.218 74.5703L233.086 70.9384Z" fill="black"/>
<path d="M233.094 61.7174L260.125 55.3977L234.212 65.3535L233.094 61.7174Z" fill="black"/>
<path d="M233.141 57.0984L263.115 50.6281L234.172 60.7598L233.141 57.0984Z" fill="black"/>
<path d="M233.152 52.4787L264.946 45.8333L234.147 56.1504L233.152 52.4787Z" fill="black"/>
<path d="M231.614 112.18L246.382 90.2277L231.215 80.6485L231.614 112.18Z" fill="white"/>
<path d="M60.207 77.3092V129.424C60.207 129.424 63.5153 135.19 93.2585 128.48C99.0392 127.175 106.023 125.449 114.814 122.421C123.606 119.393 136.445 114.613 149.341 108.837C154.593 106.485 163.447 101.459 166.227 100.347C176.336 96.3059 183.01 94.8747 188.818 93.9357C211.408 90.2822 230.42 91.6242 230.42 91.6242L231.104 40.1157C231.104 40.1157 202.37 38.3017 179.871 42.6404C163.632 45.7718 154.82 54.4947 106.06 70.8228C93.8794 74.9014 82.2168 77.7313 74.4552 78.0794C66.6936 78.4276 60.207 77.3092 60.207 77.3092Z" fill="white"/>
<path d="M72.0075 104.848C72.2412 103.898 72.4566 103.034 72.6573 102.233C72.8576 101.433 73.0455 100.696 73.2265 99.998C73.4073 99.3 73.5813 98.6411 73.7549 97.9989C73.9288 97.3568 74.1036 96.7313 74.2841 96.1058C74.4645 95.4799 74.6507 94.8536 74.8496 94.2192C75.0489 93.5849 75.2595 92.942 75.4903 92.2971C76.1957 92.2146 76.8118 92.1351 77.3828 92.058C77.9537 91.9813 78.4809 91.9057 79.0059 91.827C79.5311 91.7483 80.0558 91.6664 80.6228 91.5729C81.1898 91.4794 81.8002 91.3746 82.4957 91.2484C82.2689 91.8586 82.0574 92.4702 81.8579 93.0752C81.6581 93.6803 81.47 94.2794 81.2881 94.876C81.1065 95.4723 80.9316 96.0654 80.7592 96.6662C80.5867 97.2668 80.4161 97.8749 80.2428 98.5036C80.0694 99.1323 79.8941 99.7817 79.711 100.467C79.528 101.153 79.3376 101.876 79.1352 102.65C78.9331 103.425 78.7186 104.251 78.4875 105.146C78.6924 105.999 78.8846 106.801 79.0667 107.56C79.2489 108.318 79.4211 109.034 79.5874 109.716C79.7539 110.398 79.9148 111.047 80.072 111.673C80.2291 112.299 80.3828 112.902 80.5372 113.492C80.6915 114.082 80.8453 114.659 81.0025 115.232C81.1596 115.805 81.3204 116.372 81.4873 116.939C81.6547 117.505 81.8281 118.072 82.0117 118.635C82.195 119.198 82.3882 119.758 82.5943 120.304C81.8465 120.438 81.1909 120.547 80.5813 120.646C79.9719 120.744 79.4075 120.831 78.8436 120.913C78.2794 120.996 77.7148 121.074 77.1023 121.154C76.4898 121.234 75.8302 121.314 75.0741 121.399C74.8923 120.825 74.7257 120.25 74.5689 119.681C74.4119 119.111 74.2644 118.547 74.1229 117.982C73.9814 117.417 73.8449 116.851 73.7088 116.268C73.5724 115.685 73.4366 115.087 73.295 114.45C73.1535 113.814 73.0071 113.139 72.8508 112.405C72.6942 111.672 72.528 110.879 72.3461 110.003C71.7944 110.05 71.5184 110.072 70.9654 110.112C70.9662 111.004 70.9662 111.811 70.9665 112.559C70.9671 113.306 70.9679 113.993 70.9682 114.643C70.9688 115.292 70.9699 115.906 70.9705 116.503C70.9711 117.099 70.9713 117.679 70.9719 118.259C70.9722 118.838 70.9722 119.417 70.9728 120.003C70.973 120.588 70.9739 121.182 70.9745 121.775C70.2668 121.826 69.6469 121.865 69.07 121.895C68.4936 121.926 67.961 121.95 67.4275 121.969C66.8941 121.989 66.3598 122.004 65.7811 122.016C65.2022 122.027 64.5781 122.035 63.8633 122.035V119.949V117.739V115.475V113.196C63.8633 112.436 63.8636 111.675 63.8636 110.917C63.8636 110.159 63.8633 109.403 63.8633 108.646V106.376V104.104V101.827V99.5472V97.2838V95.0741V92.9877C64.5781 92.9877 65.2013 92.9794 65.7794 92.9681C66.3572 92.9567 66.8899 92.9414 67.4216 92.9217C67.953 92.9022 68.4831 92.8786 69.0569 92.8479C69.631 92.8175 70.2492 92.7791 70.9526 92.7279C70.9528 93.3453 70.954 93.9646 70.9543 94.577C70.9548 95.1894 70.9548 95.7943 70.9551 96.401C70.9557 97.0078 70.9568 97.6155 70.9574 98.2402C70.9577 98.8649 70.9574 99.5074 70.9577 100.188C70.9582 100.869 70.9591 101.589 70.9597 102.371C70.96 103.153 70.9608 103.997 70.9614 104.928C71.3803 104.897 71.5892 104.883 72.0075 104.848Z" fill="black"/>
<path d="M91.0457 93.7899C91.0537 94.564 91.0614 95.2919 91.0684 95.9868C91.0753 96.682 91.0815 97.3442 91.0875 97.9999C91.0937 98.6555 91.0988 99.3038 91.1051 99.9771C91.1111 100.65 91.1173 101.349 91.1244 102.105C91.1313 102.861 91.1392 103.676 91.1472 104.58C91.8014 104.417 92.2917 104.29 92.7808 104.162C93.2702 104.033 93.7584 103.903 94.4096 103.724C94.8368 103.607 95.0476 103.321 95.0426 102.869C95.0334 102.074 95.0255 101.358 95.018 100.694C95.0107 100.029 95.0042 99.4161 94.997 98.8244C94.9899 98.2323 94.9832 97.6617 94.976 97.0839C94.9692 96.5058 94.9627 95.9194 94.955 95.3027C94.9476 94.686 94.9391 94.0377 94.9297 93.3425C94.9246 92.9474 94.7097 92.817 94.2854 92.9341C93.6394 93.1123 93.154 93.2428 92.6683 93.3715C92.1826 93.4997 91.6957 93.6265 91.0457 93.7899ZM101.605 103.971C101.61 104.329 101.553 104.69 101.433 105.054C101.314 105.418 101.131 105.786 100.886 106.157C100.639 106.528 100.333 106.843 99.9667 107.101C99.6 107.36 99.1735 107.563 98.6858 107.71C99.0476 108.603 99.3642 109.359 99.6592 110.038C99.9539 110.717 100.226 111.32 100.498 111.898C100.771 112.477 101.044 113.03 101.34 113.59C101.636 114.15 101.954 114.718 102.32 115.294C101.632 115.515 101.031 115.704 100.47 115.878C99.9105 116.051 99.3932 116.21 98.8753 116.366C98.3578 116.521 97.8397 116.673 97.2775 116.836C96.7151 116.999 96.1097 117.172 95.4159 117.364C95.0806 116.766 94.787 116.178 94.5148 115.599C94.2425 115.021 93.9909 114.452 93.7403 113.857C93.4896 113.263 93.2392 112.642 92.9678 111.945C92.6967 111.248 92.406 110.473 92.0731 109.558C91.7224 109.648 91.5459 109.692 91.1946 109.78C91.2037 110.777 91.2117 111.625 91.2197 112.391C91.2273 113.157 91.2344 113.842 91.2415 114.501C91.2483 115.16 91.2546 115.795 91.2623 116.444C91.2703 117.094 91.279 117.76 91.2884 118.448C90.614 118.615 90.0234 118.757 89.4743 118.885C88.9252 119.014 88.417 119.129 87.9089 119.242C87.4011 119.354 86.8929 119.465 86.3412 119.581C85.7896 119.696 85.1961 119.817 84.5155 119.949C84.5103 119.285 84.5052 118.584 84.4998 117.864C84.4947 117.143 84.4899 116.401 84.4851 115.652C84.4803 114.904 84.4762 114.149 84.472 113.39C84.4675 112.631 84.4623 111.871 84.4578 111.11C84.4535 110.35 84.4492 109.59 84.4447 108.832C84.4404 108.074 84.4373 107.317 84.4333 106.56C84.4293 105.803 84.4251 105.048 84.4211 104.291C84.4171 103.535 84.4135 102.777 84.4089 102.019C84.4046 101.261 84.4007 100.501 84.3964 99.7412C84.3918 98.9809 84.3884 98.2204 84.3841 97.4616C84.3796 96.7027 84.3754 95.947 84.3705 95.1987C84.3657 94.4503 84.3609 93.71 84.3557 92.9893C84.3503 92.2682 84.3452 91.5662 84.3398 90.9017C85.1865 90.7343 85.9615 90.573 86.6871 90.4146C87.4127 90.2566 88.09 90.1031 88.7431 89.9499C89.3962 89.7965 90.0251 89.6436 90.6527 89.487C91.2799 89.3301 91.9069 89.1686 92.5552 88.997C93.2034 88.8253 93.8728 88.6431 94.5878 88.4431C95.3028 88.243 96.0634 88.025 96.8907 87.78C97.6581 87.553 98.3211 87.4125 98.8825 87.3685C99.4438 87.3244 99.9033 87.3756 100.261 87.5342C100.618 87.6931 100.888 87.9338 101.072 88.2666C101.256 88.5996 101.354 89.0251 101.364 89.5515C101.377 90.2569 101.391 90.9463 101.403 91.6168C101.415 92.2876 101.425 92.9389 101.436 93.5799C101.447 94.2208 101.458 94.8511 101.469 95.4809C101.479 96.111 101.489 96.7414 101.499 97.386C101.51 98.0308 101.521 98.691 101.532 99.3799C101.542 100.069 101.553 100.786 101.565 101.548C101.577 102.31 101.59 103.114 101.605 103.971Z" fill="black"/>
<path d="M104.07 85.4815C104.717 85.2602 105.282 85.063 105.805 84.8782C106.329 84.6935 106.812 84.5209 107.295 84.3468C107.778 84.1723 108.259 83.9972 108.781 83.805C109.302 83.6126 109.864 83.4026 110.505 83.161C110.528 83.8255 110.55 84.5274 110.571 85.2482C110.593 85.9689 110.612 86.7097 110.632 87.4579C110.653 88.2063 110.672 88.9625 110.691 89.7214C110.71 90.4799 110.728 91.2396 110.746 91.9999C110.764 92.7602 110.782 93.5198 110.799 94.2781C110.817 95.0364 110.834 95.7935 110.852 96.5501C110.869 97.3069 110.886 98.0626 110.903 98.8191C110.921 99.5757 110.939 100.333 110.956 101.091C110.974 101.85 110.99 102.609 111.008 103.37C111.026 104.13 111.045 104.891 111.064 105.649C111.083 106.408 111.102 107.164 111.122 107.912C111.142 108.661 111.162 109.402 111.184 110.123C111.205 110.844 111.227 111.544 111.25 112.208C110.593 112.45 110.018 112.66 109.483 112.852C108.948 113.045 108.455 113.22 107.961 113.394C107.466 113.568 106.97 113.741 106.433 113.926C105.896 114.11 105.318 114.308 104.656 114.529C104.638 113.865 104.62 113.164 104.603 112.443C104.587 111.722 104.571 110.981 104.555 110.233C104.539 109.484 104.524 108.728 104.509 107.97C104.495 107.211 104.48 106.451 104.465 105.69C104.451 104.93 104.438 104.17 104.424 103.412C104.41 102.653 104.397 101.897 104.383 101.14C104.37 100.384 104.356 99.6277 104.343 98.8712C104.329 98.1146 104.315 97.3569 104.301 96.5987C104.288 95.8404 104.274 95.0809 104.26 94.321C104.245 93.5607 104.231 92.8002 104.216 92.0414C104.201 91.2826 104.186 90.526 104.17 89.7777C104.154 89.0293 104.139 88.2901 104.122 87.5693C104.105 86.8483 104.088 86.146 104.07 85.4815Z" fill="black"/>
<path d="M121.024 91.3386C121.186 90.4641 121.337 89.6583 121.479 88.9044C121.62 88.1503 121.752 87.4481 121.88 86.7821C122.008 86.1163 122.131 85.4868 122.252 84.8771C122.372 84.2672 122.491 83.6777 122.611 83.0937C122.732 82.5097 122.854 81.9298 122.98 81.3481C123.107 80.7664 123.238 80.1811 123.377 79.5866C123.515 78.9921 123.662 78.3884 123.82 77.781C124.472 77.5042 125.042 77.2603 125.571 77.0336C126.1 76.807 126.588 76.5967 127.075 76.3867C127.563 76.1767 128.05 75.9663 128.578 75.7375C129.106 75.5085 129.674 75.2618 130.322 74.9796C130.14 75.6415 129.969 76.3023 129.807 76.9537C129.646 77.6051 129.495 78.2477 129.348 78.8871C129.201 79.5269 129.06 80.1624 128.92 80.8047C128.78 81.4467 128.644 82.0965 128.503 82.7669C128.363 83.4376 128.221 84.1299 128.072 84.8609C127.924 85.5916 127.77 86.361 127.606 87.1866C127.442 88.0122 127.267 88.8935 127.079 89.8471C127.33 90.7633 127.563 91.6191 127.783 92.422C128.003 93.2249 128.211 93.9754 128.411 94.6894C128.611 95.403 128.804 96.0803 128.995 96.7334C129.185 97.3868 129.373 98.0163 129.564 98.6362C129.754 99.256 129.949 99.866 130.15 100.472C130.351 101.079 130.56 101.682 130.783 102.281C131.006 102.879 131.243 103.473 131.497 104.046C130.795 104.345 130.18 104.606 129.608 104.849C129.037 105.091 128.509 105.315 127.98 105.538C127.452 105.761 126.923 105.982 126.349 106.222C125.776 106.462 125.156 106.721 124.449 107.014C124.21 106.386 123.998 105.75 123.798 105.12C123.599 104.49 123.413 103.864 123.234 103.229C123.054 102.594 122.879 101.948 122.699 101.263C122.52 100.579 122.336 99.8546 122.137 99.0557C121.94 98.2565 121.728 97.3825 121.493 96.3958C120.98 96.6066 120.723 96.7107 120.209 96.9202C120.235 97.812 120.26 98.6214 120.283 99.3689C120.307 100.116 120.328 100.804 120.349 101.453C120.37 102.103 120.39 102.714 120.41 103.311C120.43 103.907 120.45 104.487 120.471 105.067C120.492 105.646 120.513 106.226 120.536 106.812C120.559 107.398 120.584 107.991 120.61 108.585C119.948 108.852 119.368 109.085 118.829 109.299C118.29 109.514 117.792 109.711 117.293 109.906C116.794 110.102 116.294 110.296 115.753 110.506C115.212 110.716 114.629 110.94 113.961 111.193C113.936 110.529 113.912 109.829 113.888 109.108C113.865 108.387 113.843 107.646 113.821 106.897C113.799 106.149 113.779 105.392 113.758 104.634C113.738 103.875 113.717 103.115 113.697 102.355C113.677 101.595 113.658 100.835 113.639 100.076C113.62 99.3177 113.601 98.5606 113.582 97.804C113.564 97.0475 113.545 96.2918 113.527 95.5349C113.508 94.7783 113.489 94.0212 113.47 93.263C113.451 92.5044 113.432 91.7456 113.412 90.9856C113.393 90.2253 113.372 89.4648 113.351 88.706C113.33 87.9472 113.31 87.1912 113.288 86.4428C113.266 85.6945 113.244 84.9539 113.221 84.2331C113.198 83.5124 113.173 82.8104 113.148 82.1459C113.8 81.8921 114.369 81.6684 114.897 81.4586C115.426 81.2489 115.912 81.0539 116.399 80.8584C116.886 80.6626 117.372 80.4662 117.898 80.2516C118.424 80.037 118.991 79.8046 119.637 79.5374C119.665 80.1547 119.69 80.7729 119.714 81.3853C119.738 81.9978 119.761 82.6038 119.782 83.2105C119.804 83.8173 119.825 84.4252 119.846 85.0499C119.867 85.6746 119.888 86.3163 119.909 86.997C119.931 87.6777 119.954 88.3968 119.978 89.1791C120.002 89.9616 120.027 90.8066 120.055 91.7373C120.443 91.5785 120.636 91.4986 121.024 91.3386Z" fill="black"/>
<path d="M132.047 74.2276C132.69 73.9468 133.252 73.7004 133.775 73.4719C134.297 73.2434 134.778 73.0328 135.26 72.8222C135.741 72.6116 136.222 72.401 136.743 72.1731C137.264 71.9451 137.825 71.6998 138.465 71.4205C138.506 72.0594 138.544 72.7273 138.581 73.4079C138.619 74.0886 138.654 74.7818 138.689 75.4801C138.723 76.1782 138.758 76.881 138.79 77.585C138.822 78.2887 138.854 78.9924 138.885 79.6997C138.916 80.4068 138.947 81.1174 138.977 81.8308C139.008 82.5441 139.038 83.2623 139.069 83.9882C139.099 84.7143 139.13 85.4481 139.161 86.1936C139.192 86.9388 139.225 87.6962 139.257 88.4673C139.289 89.2384 139.322 90.0233 139.356 90.8239C139.391 91.624 139.428 92.4394 139.465 93.2653C139.502 94.0915 139.54 94.9282 139.581 95.7678C140.217 95.4938 140.772 95.2553 141.288 95.0339C141.804 94.8122 142.28 94.6081 142.755 94.4047C143.23 94.2012 143.705 93.9983 144.22 93.7791C144.734 93.5597 145.286 93.3247 145.918 93.0575C145.81 93.8229 145.719 94.4373 145.635 94.9941C145.55 95.5506 145.473 96.0494 145.388 96.5664C145.304 97.083 145.214 97.6197 145.105 98.217C144.324 98.5487 143.606 98.8536 142.931 99.1416C142.257 99.4295 141.626 99.7004 141.015 99.9621C140.404 100.224 139.815 100.477 139.225 100.731C138.634 100.984 138.043 101.239 137.43 101.503C136.816 101.767 136.18 102.04 135.5 102.332C134.819 102.625 134.094 102.936 133.302 103.275C133.266 102.659 133.232 102.01 133.198 101.343C133.165 100.677 133.132 99.9911 133.101 99.2987C133.069 98.6064 133.038 97.9061 133.008 97.2027C132.978 96.4996 132.95 95.7939 132.921 95.0879C132.893 94.3819 132.864 93.6768 132.837 92.9717C132.809 92.2669 132.782 91.5621 132.755 90.8586C132.728 90.1555 132.701 89.4538 132.674 88.7515C132.647 88.049 132.621 87.3469 132.594 86.6438C132.567 85.9409 132.539 85.2358 132.512 84.5313C132.484 83.8262 132.456 83.1219 132.428 82.4159C132.399 81.7099 132.37 81.0032 132.34 80.3C132.311 79.5966 132.28 78.8963 132.248 78.204C132.217 77.5113 132.185 76.827 132.152 76.1602C132.119 75.4934 132.083 74.8444 132.047 74.2276Z" fill="black"/>
<path d="M153.738 69.469C153.367 69.6176 153.191 69.8715 153.21 70.2398C153.251 71.0145 153.291 71.7762 153.328 72.5197C153.365 73.2632 153.399 73.9882 153.433 74.6978C153.468 75.4073 153.5 76.0995 153.532 76.7819C153.564 77.4644 153.595 78.1371 153.627 78.8053C153.658 79.4731 153.688 80.1385 153.719 80.8064C153.75 81.4742 153.782 82.1461 153.813 82.829C153.845 83.5117 153.877 84.2043 153.912 84.914C153.946 85.6239 153.981 86.3501 154.018 87.0941C154.055 87.838 154.094 88.6011 154.135 89.3769C154.146 89.5881 154.19 89.7223 154.266 89.7837C154.341 89.8453 154.51 89.8263 154.767 89.7234C155.239 89.5352 155.591 89.3945 155.944 89.255C156.298 89.1157 156.652 88.9765 157.123 88.7929C157.379 88.6928 157.54 88.584 157.607 88.4652C157.672 88.3472 157.701 88.1841 157.69 87.9729C157.649 87.197 157.61 86.4348 157.573 85.6907C157.536 84.947 157.501 84.2211 157.466 83.5114C157.433 82.8015 157.399 82.1077 157.367 81.4247C157.335 80.7421 157.305 80.0697 157.274 79.4018C157.243 78.7339 157.211 78.0694 157.18 77.4015C157.149 76.7337 157.118 76.0621 157.086 75.3797C157.055 74.6973 157.022 74.0041 156.988 73.2944C156.954 72.5851 156.918 71.8592 156.881 71.1155C156.844 70.3722 156.805 69.6114 156.764 68.8363C156.744 68.4683 156.549 68.3614 156.179 68.5059C155.691 68.696 155.325 68.8394 154.959 68.9841C154.593 69.1288 154.226 69.2738 153.738 69.469ZM164.04 87.1365C164.068 87.6583 164.025 88.1585 163.909 88.6366C163.793 89.1155 163.573 89.5614 163.252 89.986C162.931 90.4106 162.493 90.8082 161.938 91.1899C161.66 91.3814 161.344 91.563 160.992 91.7381C160.64 91.9135 160.252 92.082 159.825 92.244C159.108 92.5163 158.479 92.7584 157.895 92.9847C157.312 93.2109 156.772 93.4215 156.232 93.6346C155.692 93.8478 155.152 94.0632 154.566 94.2982C153.98 94.5333 153.349 94.7865 152.626 95.081C152.195 95.2564 151.8 95.397 151.438 95.5019C151.077 95.6065 150.748 95.6761 150.455 95.7085C149.868 95.7736 149.392 95.7332 149.028 95.5755C148.663 95.4183 148.396 95.1606 148.227 94.7928C148.057 94.4253 147.959 93.9814 147.93 93.4596C147.891 92.7434 147.854 92.026 147.818 91.316C147.782 90.6064 147.748 89.9038 147.715 89.2101C147.681 88.5163 147.649 87.8319 147.618 87.1564C147.586 86.4811 147.556 85.8135 147.526 85.153C147.496 84.4925 147.467 83.8386 147.437 83.1863C147.408 82.5341 147.378 81.8832 147.349 81.2315C147.319 80.5796 147.29 79.9273 147.259 79.2685C147.229 78.6097 147.199 77.9452 147.168 77.2734C147.136 76.6015 147.104 75.9213 147.071 75.2333C147.037 74.5452 147.003 73.8495 146.967 73.1473C146.931 72.4452 146.894 71.7367 146.855 71.0313C146.826 70.5049 146.884 70.0161 147.028 69.5554C147.173 69.095 147.405 68.6621 147.723 68.2501C148.041 67.8385 148.462 67.4614 148.985 67.1109C149.508 66.7611 150.133 66.4373 150.861 66.1392C151.631 65.8229 152.306 65.5501 152.932 65.2982C153.558 65.0462 154.135 64.8157 154.714 64.5874C155.291 64.3592 155.869 64.133 156.496 63.8909C157.121 63.6484 157.796 63.3901 158.567 63.0996C159.295 62.8254 159.929 62.6546 160.47 62.5883C161.011 62.5221 161.457 62.5605 161.81 62.7108C162.163 62.8615 162.436 63.0973 162.627 63.4279C162.819 63.7579 162.929 64.1819 162.958 64.7085C162.997 65.4139 163.035 66.1222 163.071 66.8242C163.108 67.5264 163.141 68.2216 163.174 68.91C163.208 69.598 163.241 70.2793 163.272 70.9512C163.304 71.6233 163.335 72.2872 163.365 72.946C163.395 73.6048 163.425 74.2573 163.454 74.9093C163.484 75.561 163.513 76.2107 163.543 76.863C163.573 77.515 163.602 78.1703 163.632 78.8308C163.662 79.4913 163.693 80.1581 163.725 80.8333C163.756 81.5089 163.789 82.1932 163.823 82.887C163.857 83.5808 163.891 84.2836 163.928 84.9936C163.964 85.7035 164 86.4203 164.04 87.1365Z" fill="black"/>
<path d="M171.565 88.1701C170.681 88.4435 169.925 88.6208 169.297 88.6907C168.668 88.7607 168.169 88.724 167.799 88.5651C167.43 88.4065 167.142 88.1198 166.937 87.6852C166.731 87.2504 166.608 86.6669 166.568 85.9103C166.527 85.137 166.489 84.3602 166.451 83.5884C166.413 82.8164 166.376 82.0496 166.341 81.293C166.305 80.5365 166.271 79.789 166.238 79.0529C166.205 78.3169 166.171 77.5916 166.14 76.8756C166.108 76.1594 166.076 75.4526 166.045 74.7538C166.014 74.0549 165.984 73.3631 165.953 72.6762C165.922 71.989 165.891 71.306 165.86 70.6259C165.829 69.9458 165.797 69.268 165.765 68.5909C165.733 67.9143 165.701 67.2379 165.667 66.5634C165.633 65.8893 165.6 65.2166 165.565 64.5492C165.529 63.882 165.493 63.2191 165.455 62.5703C165.417 61.9215 165.377 61.286 165.336 60.6775C166.183 60.3919 166.889 60.1605 167.548 59.9482C168.206 59.7359 168.819 59.5427 169.478 59.3392C170.138 59.1359 170.844 58.9222 171.693 58.6749C171.733 59.3053 171.77 59.963 171.807 60.6332C171.843 61.3033 171.877 61.9857 171.91 62.6726C171.943 63.3593 171.976 64.0505 172.008 64.7431C172.039 65.4357 172.071 66.1303 172.101 66.826C172.131 67.522 172.16 68.2201 172.19 68.9226C172.219 69.6252 172.248 70.3326 172.278 71.0479C172.308 71.763 172.337 72.4869 172.367 73.2222C172.397 73.9574 172.428 74.7049 172.459 75.4668C172.491 76.2285 172.524 77.0052 172.557 77.7973C172.59 78.5894 172.625 79.3966 172.66 80.217C172.696 81.0376 172.734 81.87 172.773 82.7073C172.783 82.9187 172.826 83.0648 172.901 83.1475C172.976 83.2303 173.141 83.234 173.395 83.1598C174.256 82.9083 174.685 82.7866 175.545 82.5504C175.798 82.4808 175.958 82.3855 176.024 82.2628C176.089 82.1411 176.116 81.9746 176.107 81.7631C176.07 80.9262 176.036 80.0926 176.002 79.272C175.968 78.4518 175.935 77.6444 175.904 76.8523C175.873 76.0605 175.843 75.2838 175.814 74.5218C175.784 73.7599 175.756 73.0121 175.727 72.2768C175.699 71.5416 175.671 70.8186 175.644 70.1035C175.616 69.3882 175.588 68.6805 175.561 67.9782C175.533 67.2756 175.505 66.5771 175.477 65.8813C175.449 65.1853 175.42 64.4907 175.391 63.7981C175.361 63.1055 175.331 62.4148 175.3 61.7279C175.269 61.0413 175.235 60.3586 175.202 59.6884C175.168 59.0183 175.134 58.3603 175.097 57.7299C175.948 57.5057 176.657 57.327 177.32 57.1649C177.983 57.0033 178.599 56.8583 179.263 56.708C179.927 56.5573 180.639 56.4013 181.495 56.2253C181.524 56.8338 181.552 57.4699 181.579 58.119C181.606 58.7679 181.632 59.4298 181.657 60.0971C181.683 60.7647 181.707 61.4378 181.732 62.1121C181.755 62.7863 181.78 63.4621 181.802 64.1391C181.825 64.8158 181.847 65.4943 181.87 66.1746C181.892 66.855 181.914 67.5377 181.936 68.2249C181.958 68.9121 181.98 69.6036 182.002 70.3027C182.025 71.0016 182.046 71.7085 182.069 72.4244C182.092 73.1406 182.116 73.8655 182.141 74.6016C182.164 75.3377 182.188 76.0844 182.213 76.841C182.239 77.5978 182.266 78.3643 182.293 79.1362C182.32 79.9082 182.348 80.6858 182.378 81.4591C182.407 82.2156 182.344 82.8465 182.191 83.3786C182.037 83.9106 181.793 84.3449 181.458 84.6993C181.123 85.054 180.652 85.3615 180.047 85.6386C179.441 85.9154 178.701 86.1624 177.822 86.3895C176.99 86.6044 176.296 86.7922 175.648 86.9718C175 87.1514 174.398 87.3223 173.749 87.5121C173.099 87.7022 172.402 87.9115 171.565 88.1701Z" fill="black"/>
<path d="M184.098 55.7269C184.897 55.583 185.564 55.4716 186.187 55.3733C186.81 55.2746 187.389 55.1888 188.014 55.1021C188.638 55.0155 189.308 54.9279 190.112 54.8344C190.345 55.3875 190.558 55.9414 190.757 56.4897C190.956 57.0376 191.141 57.5805 191.32 58.1244C191.498 58.6681 191.671 59.2135 191.842 59.7751C192.013 60.3367 192.183 60.9142 192.36 61.5278C192.536 62.1417 192.719 62.7917 192.913 63.4999C193.107 64.2084 193.512 64.1744 193.502 63.4499C193.491 62.7258 193.483 62.0602 193.473 61.4309C193.463 60.8017 193.454 60.2088 193.445 59.6316C193.436 59.054 193.428 58.4924 193.418 57.9311C193.408 57.3699 193.4 56.8088 193.389 56.2407C193.379 55.6722 193.367 55.0953 193.355 54.5175C194.227 54.4485 194.956 54.4036 195.636 54.368C196.316 54.3325 196.949 54.3064 197.631 54.2871C198.313 54.268 199.044 54.2547 199.924 54.2547V56.341V58.5508V60.8138V63.0938V65.3717V67.644V69.9128V72.1845V74.4632V76.7426V79.006V81.2158V83.3021C199.11 83.3021 198.431 83.3152 197.798 83.3345C197.164 83.3536 196.573 83.3789 195.938 83.4147C195.303 83.4507 194.622 83.4968 193.804 83.5659C193.577 82.9824 193.368 82.3969 193.171 81.8194C192.974 81.2419 192.789 80.6704 192.609 80.0985C192.43 79.5267 192.256 78.9537 192.081 78.3649C191.907 77.776 191.731 77.1712 191.549 76.5294C191.367 75.8877 191.178 75.2093 190.974 74.4718C190.771 73.7345 190.349 73.7851 190.365 74.5445C190.38 75.3036 190.395 76.0014 190.409 76.6613C190.423 77.3215 190.436 77.9436 190.45 78.5496C190.464 79.1555 190.478 79.7453 190.492 80.3336C190.505 80.9222 190.52 81.5096 190.536 82.1042C190.552 82.6988 190.568 83.3007 190.586 83.9024C189.848 83.9944 189.232 84.08 188.656 84.165C188.081 84.2497 187.547 84.3344 186.971 84.4304C186.395 84.5265 185.777 84.6342 185.034 84.7734C185.005 84.109 184.979 83.4087 184.952 82.688C184.926 81.9672 184.898 81.2257 184.874 80.4774C184.849 79.729 184.824 78.9728 184.8 78.2139C184.777 77.4551 184.754 76.6954 184.731 75.9354C184.708 75.1752 184.685 74.4147 184.663 73.6564C184.642 72.8978 184.621 72.1418 184.599 71.385C184.578 70.6284 184.556 69.8719 184.535 69.1153C184.513 68.3585 184.49 67.6014 184.468 66.843C184.446 66.0848 184.425 65.3257 184.402 64.5654C184.379 63.8055 184.355 63.0449 184.332 62.2861C184.308 61.5275 184.284 60.7707 184.259 60.0223C184.234 59.2741 184.208 58.5339 184.182 57.8132C184.155 57.0924 184.126 56.3913 184.098 55.7269Z" fill="black"/>
<path d="M200.612 42.1797C197.521 42.0206 188.81 42.0294 175.754 45.7034C169.586 47.4396 162.422 50.7159 153.353 54.8634C140.677 60.6618 124.899 67.8778 104.944 73.8985C75.2605 82.8541 64.7252 80.7101 63.1797 80.2903V84.2229C64.4186 84.4494 66.2511 84.6543 68.8399 84.6543C75.4933 84.6543 87.1202 83.3021 106.369 77.494C126.635 71.3795 142.573 64.0901 155.378 58.2329C164.263 54.1693 171.281 50.9601 177.094 49.3242C189.935 45.7105 198.319 45.8597 200.612 45.9938V42.1797Z" fill="black"/>
<path d="M214.322 86.2471C211.231 86.0878 195.981 84.693 175.754 90.135C169.566 91.7999 162.422 95.1475 153.353 99.295C140.677 105.093 124.899 112.309 104.944 118.33C75.2601 127.286 64.7252 125.142 63.1797 124.722V128.655C64.4185 128.881 66.2511 129.086 68.8399 129.086C75.4932 129.086 87.1202 127.733 106.369 121.926C126.635 115.811 142.573 108.522 155.378 102.665C164.263 98.6009 171.34 95.5915 177.094 93.7558C192.179 88.9428 211.806 88.3612 214.099 88.4954L214.322 86.2471Z" fill="black"/>
<path d="M95.3282 81.9335C95.0528 82.3223 94.8061 82.6477 94.5753 82.9442C94.3443 83.2403 94.1292 83.5069 93.9134 83.77C93.6978 84.033 93.4815 84.2922 93.2476 84.571C93.0139 84.8498 92.7624 85.1476 92.4773 85.4892C92.1456 85.2139 91.8671 84.9828 91.6039 84.7608C91.341 84.5389 91.0938 84.3271 90.8241 84.0875C90.5543 83.848 90.2619 83.5819 89.9038 83.2323C89.4397 83.3352 89.0228 83.4253 88.6351 83.5072C88.2472 83.589 87.8882 83.663 87.5395 83.7331C87.1908 83.8031 86.8522 83.8695 86.5064 83.9355C86.1602 84.0014 85.8064 84.0671 85.4276 84.1347C85.0487 84.2027 84.6446 84.2723 84.1992 84.345C84.5576 84.6642 84.8885 84.9382 85.1984 85.1871C85.5089 85.4358 85.7991 85.6592 86.0781 85.871C86.3575 86.0827 86.6258 86.2822 86.8929 86.4811C87.1604 86.6801 87.4267 86.8779 87.7023 87.0859C87.978 87.2937 88.2628 87.5114 88.5681 87.7526C88.873 87.9943 89.1982 88.2588 89.5574 88.5684C90.0098 88.4669 90.4183 88.3706 90.7999 88.2776C91.1814 88.185 91.5363 88.0957 91.8825 88.0068C92.2286 87.9175 92.5662 87.8286 92.9133 87.7351C93.2603 87.6415 93.6167 87.5438 94.001 87.4364C94.3852 87.3287 94.7974 87.2113 95.2558 87.0783C95.5365 86.7071 95.8051 86.3723 96.0641 86.0622C96.323 85.7519 96.5716 85.4662 96.8138 85.1957C97.0556 84.9248 97.2904 84.6696 97.5217 84.4218C97.753 84.1739 97.9807 83.9335 98.2086 83.6942C98.4369 83.4549 98.6651 83.2162 98.897 82.9717C99.1292 82.7273 99.3651 82.4769 99.6078 82.2131C99.8505 81.9495 100.1 81.6723 100.358 81.3728C100.615 81.0732 100.881 80.7512 101.154 80.3943C100.699 80.5176 100.285 80.6293 99.8981 80.7333C99.5106 80.8376 99.1491 80.9345 98.7955 81.0286C98.442 81.123 98.0964 81.2145 97.7403 81.3083C97.3845 81.402 97.0178 81.4981 96.6222 81.601C96.2266 81.7036 95.8014 81.813 95.3282 81.9335Z" fill="black"/>
<path d="M208.3 92.6175C208.3 92.6175 212.391 96.2117 213.713 98.101C214.697 99.5068 209.899 100.364 211.745 102.882C213.291 104.991 214.854 102.533 216.386 104.054C222.713 110.334 236.244 102.61 239.586 100.07C246.617 94.7261 249.121 89.3674 249.709 84.1814C250.178 80.0562 247.366 69.7916 246.053 65.7608C244.421 60.7487 242.931 57.4969 241.133 53.3875C240.147 51.1377 239.727 49.0331 239.727 49.0331C239.727 49.0331 241.225 49.6891 242.07 47.8142C242.913 45.9395 242.819 45.1892 242.819 45.1892C242.819 45.1892 245.913 44.5333 246.663 43.4084C247.412 42.2834 247.412 42.279 247.412 42.279C247.412 42.279 247.226 44.2522 248.257 42.8459C249.288 41.4396 249.253 39.652 248.585 38.6237C247.976 37.6856 246.992 36.3265 245.773 36.7954C244.554 37.2644 243.851 38.5339 243.851 38.5339C243.851 38.5339 247.897 33.4665 245.773 28.4991C244.203 24.8311 234.002 9.60634 220.073 15.1754C215.855 16.861 212.955 17.124 215.198 19.9757C216.392 21.4945 215.354 26.0623 215.354 26.0623C215.354 26.0623 208.887 23.7192 206.042 26.4557C204.65 27.7956 204.632 29.8345 205.061 30.5851C205.061 30.5851 202.812 32.771 203.474 34.9177C203.919 36.3611 205.693 35.766 205.414 36.7974C204.637 39.6603 192.851 32.3657 194.45 42.9354C194.59 43.8617 214.374 39.5821 217.51 39.889C220.646 40.1954 223.885 42.9429 225.853 48.4735C227.822 54.0039 229.884 77.7185 222.197 84.3735C214.51 91.0297 208.3 92.6175 208.3 92.6175Z" fill="white"/>
<path d="M215.156 103.304C215.615 103.304 216.09 103.437 216.554 103.898C222.843 110.141 236.434 102.195 239.461 99.8941C245.622 95.2118 248.811 90.212 249.497 84.1589C249.951 80.1692 247.237 70.0892 245.851 65.8326C244.382 61.3225 243.027 58.238 241.459 54.6661L240.939 53.4798C239.955 51.234 239.522 49.101 239.518 49.0797L239.433 48.6591L239.827 48.831C239.879 48.8529 241.137 49.3668 241.876 47.7249C242.671 45.9591 242.608 45.2244 242.607 45.2171L242.587 45.0173L242.783 44.9732C243.619 44.7955 245.914 44.147 246.488 43.2872C247.15 42.2911 247.224 42.1768 247.233 42.1638L247.413 42.2777L247.645 42.3024C247.614 42.6336 247.642 43.0067 247.703 43.1207C247.751 43.0954 247.872 43.0093 248.087 42.7163C249.085 41.3546 248.998 39.6556 248.408 38.7482C247.709 37.6722 246.862 36.6238 245.863 37.0068C245.242 37.2456 244.759 37.7162 244.449 38.0917C244.208 38.4577 244.045 38.666 244.037 38.6762L243.666 38.4284C243.679 38.404 243.83 38.1371 244.104 37.8046C245.06 36.3423 247.209 32.4055 245.577 28.59C244.173 25.3083 234.107 9.81207 220.166 15.386C219.42 15.6841 218.706 15.9413 218.076 16.1681C216.236 16.8307 214.906 17.3095 214.686 18.0772C214.562 18.5092 214.79 19.0858 215.384 19.8404C216.63 21.4242 215.625 25.9239 215.582 26.1149L215.526 26.3616L215.288 26.2757C215.224 26.2524 208.919 24.0117 206.208 26.6199C204.876 27.9022 204.886 29.8127 205.265 30.4769L205.351 30.6272L205.227 30.7483C205.206 30.769 203.084 32.8656 203.698 34.8543C203.894 35.4917 204.378 35.6582 204.845 35.8194C205.284 35.9706 205.83 36.1585 205.64 36.8587C205.316 38.0508 203.588 37.7941 201.587 37.4977C199.358 37.1677 196.831 36.7928 195.492 38.1343C194.62 39.0099 194.343 40.5876 194.669 42.8243C195.426 43.0349 200.894 42.0998 205.309 41.3447C210.561 40.446 215.993 39.5178 217.542 39.6692C221.113 40.018 224.223 43.2006 226.074 48.4013C227.928 53.6111 230.27 77.6918 222.354 84.5454C215.806 90.2148 210.252 92.2455 208.759 92.7201C209.737 93.594 212.78 96.3648 213.907 97.9757C214.447 98.7464 213.678 99.3564 212.935 99.9464C211.768 100.873 211.068 101.569 211.936 102.753C212.677 103.764 213.381 103.614 214.196 103.439C214.502 103.373 214.825 103.304 215.156 103.304ZM222.906 106.672C220.378 106.672 218.03 105.993 216.239 104.215C215.612 103.593 214.999 103.724 214.289 103.876C213.445 104.057 212.487 104.262 211.575 103.017C210.387 101.397 211.699 100.356 212.657 99.5956C213.478 98.9437 213.81 98.6177 213.54 98.232C212.249 96.3864 208.204 92.8241 208.163 92.7883L207.845 92.5089L208.255 92.4035C208.317 92.3879 214.509 90.746 222.061 84.2075C225.286 81.4155 227.193 74.9489 227.432 65.9986C227.626 58.7515 226.68 51.4366 225.653 48.5514C223.889 43.5948 220.84 40.4409 217.498 40.1144C216.003 39.9691 210.606 40.8922 205.384 41.7858C198.112 43.03 194.872 43.5373 194.366 43.173C194.296 43.1224 194.251 43.051 194.239 42.9721C193.866 40.5103 194.173 38.8246 195.176 37.8186C196.673 36.3174 199.434 36.7266 201.652 37.0551C203.442 37.3206 204.989 37.55 205.208 36.7417C205.278 36.4813 205.217 36.4205 204.7 36.2423C204.208 36.0729 203.534 35.841 203.271 34.9861C202.657 32.9986 204.334 31.0401 204.801 30.5442C204.425 29.6549 204.469 27.6726 205.897 26.2973C208.526 23.7695 213.964 25.3654 215.197 25.7715C215.387 24.8183 215.995 21.341 215.032 20.1169C214.334 19.2291 214.087 18.5418 214.256 17.9538C214.539 16.9662 215.959 16.4549 217.924 15.7475C218.551 15.5216 219.262 15.2658 220 14.9705C234.276 9.26248 244.556 25.0664 245.988 28.4141C247.36 31.6211 246.207 34.8875 245.18 36.8485C245.342 36.7493 245.516 36.6612 245.703 36.5896C247.171 36.024 248.301 37.7622 248.783 38.5046C249.471 39.5633 249.577 41.4411 248.447 42.9812C248.203 43.3146 247.879 43.6803 247.543 43.553C247.348 43.4785 247.252 43.2602 247.21 43.0082C247.116 43.1505 247 43.3237 246.86 43.5351C246.167 44.5736 243.737 45.2093 243.052 45.3705C243.033 45.7186 242.908 46.5213 242.284 47.9085C241.631 49.3579 240.592 49.4281 240.035 49.342C240.197 50.0292 240.618 51.6324 241.348 53.3007L241.868 54.4862C243.441 58.0689 244.8 61.1631 246.276 65.6942C247.386 69.1027 250.441 79.8202 249.942 84.2092C249.241 90.3916 245.997 95.4889 239.732 100.25C237.492 101.953 229.574 106.672 222.906 106.672Z" fill="black"/>
<path d="M226.149 11.7268C223.847 11.7268 221.525 12.1883 219.249 13.0984C218.543 13.3806 217.879 13.6196 217.238 13.8503C214.902 14.6916 212.884 15.418 212.317 17.3956C211.8 19.1965 212.968 20.7486 213.41 21.3128C213.543 21.6209 213.571 22.3737 213.511 23.2545C212.526 23.0553 211.355 22.8916 210.166 22.8916C207.751 22.8916 205.844 23.5484 204.498 24.8435C203.013 26.2728 202.441 28.3373 202.619 30.0198C201.819 31.1077 200.84 32.9201 201.193 34.9517C200.328 34.8308 199.401 34.7246 198.482 34.7246C196.28 34.7246 194.602 35.3779 193.493 36.6674C192.207 38.1623 191.799 40.322 192.244 43.2699C192.317 43.7482 192.732 45.3036 195.029 45.3036C196.622 45.3036 200.13 44.723 205.719 43.7669C210.26 42.9901 215.406 42.1097 217.13 42.1097C217.24 42.1097 217.289 42.114 217.298 42.1148C219.844 42.3634 222.256 45.0208 223.752 49.2234C224.544 51.4479 225.621 58.2999 225.416 65.9419C225.195 74.1984 223.491 80.3001 220.74 82.6824C213.609 88.8562 207.802 90.4373 207.744 90.4523C206.941 90.6578 206.321 91.2902 206.128 92.0968C205.934 92.9036 206.207 93.75 206.83 94.2973C207.978 95.3063 209.824 97.03 211.012 98.3294C210.492 98.7588 209.933 99.2869 209.544 100.006C208.822 101.339 208.969 102.87 209.947 104.205C211.049 105.707 212.39 106.022 213.32 106.022C213.863 106.022 214.331 105.922 214.706 105.842C214.787 105.824 214.883 105.804 214.967 105.788C216.993 107.717 219.67 108.693 222.929 108.693C230.287 108.693 238.61 103.625 240.946 101.85C247.586 96.8035 251.181 91.1066 251.938 84.4331C252.581 78.7791 248.231 65.2038 248.186 65.0683C246.679 60.4417 245.302 57.3051 243.707 53.6735C243.537 53.2858 243.364 52.8925 243.189 52.4909C242.918 51.8739 242.694 51.2657 242.514 50.7195C243.177 50.2673 243.727 49.5943 244.115 48.7335C244.419 48.0576 244.63 47.4778 244.775 46.9844C245.709 46.6868 246.795 46.237 247.631 45.5875C247.646 45.5878 247.662 45.5875 247.677 45.5875C249.026 45.5875 249.809 44.5189 250.066 44.1679C251.564 42.1264 251.729 39.3449 250.467 37.4037C250.072 36.7956 249.31 35.6218 248.123 34.9556C248.747 32.8343 248.959 30.2454 247.835 27.6187C247.164 26.0488 244.88 22.1117 241.045 18.4468C236.443 14.0501 231.292 11.7262 226.149 11.7262V11.7268ZM226.149 13.9634C236.907 13.9634 244.448 25.3881 245.779 28.499C247.462 32.4341 245.272 36.4323 244.29 37.9239C244.008 38.2624 243.858 38.5338 243.858 38.5338C243.858 38.5338 244.032 38.3149 244.29 37.9239C244.618 37.5306 245.123 37.0471 245.779 36.795C245.95 36.7294 246.117 36.6995 246.278 36.6995C247.267 36.6995 248.068 37.8171 248.591 38.6233C249.26 39.6516 249.294 41.4396 248.263 42.8458C247.992 43.2152 247.805 43.3514 247.677 43.3514C247.317 43.3514 247.419 42.2786 247.419 42.2786C247.419 42.2786 247.419 42.2831 246.67 43.4083C245.919 44.5329 242.825 45.1888 242.825 45.1888C242.825 45.1888 242.919 45.9391 242.077 47.814C241.579 48.917 240.856 49.1439 240.345 49.1439C239.987 49.1439 239.733 49.0327 239.733 49.0327C239.733 49.0327 240.154 51.1373 241.139 53.3874C242.937 57.4967 244.427 60.7486 246.06 65.7606C247.372 69.7916 250.184 80.056 249.715 84.1813C249.127 89.3669 246.623 94.7259 239.592 100.069C237.175 101.907 229.426 106.457 222.929 106.457C220.445 106.457 218.142 105.791 216.392 104.054C215.981 103.645 215.567 103.524 215.152 103.524C214.543 103.524 213.932 103.785 213.32 103.785C212.797 103.785 212.273 103.594 211.751 102.882C209.905 100.364 214.704 99.5067 213.72 98.1007C212.397 96.2112 208.307 92.6175 208.307 92.6175C208.307 92.6175 214.517 91.0293 222.204 84.3734C229.89 77.7184 227.828 54.0038 225.859 48.4734C223.891 42.9425 220.653 40.1953 217.516 39.8886C217.407 39.8781 217.278 39.873 217.13 39.873C213.444 39.8733 198.187 43.0669 195.029 43.0669C194.672 43.0669 194.47 43.026 194.456 42.9353C193.71 38.0035 195.877 36.961 198.481 36.961C200.389 36.9613 202.532 37.5211 203.933 37.5211C204.719 37.5211 205.271 37.3452 205.42 36.797C205.699 35.7656 203.925 36.3607 203.48 34.9173C202.818 32.7709 205.067 30.5851 205.067 30.5851C204.639 29.8342 204.657 27.7956 206.048 26.4553C207.097 25.4466 208.638 25.1282 210.166 25.1282C212.782 25.1282 215.36 26.0622 215.36 26.0622C215.36 26.0622 216.399 21.4941 215.204 19.9753C212.961 17.1236 215.861 16.861 220.079 15.1753C222.194 14.3295 224.223 13.9634 226.149 13.9634Z" fill="white"/>
<path d="M209.269 86.2467C209.269 86.2467 207.113 82.2858 206.621 88.895C206.392 91.9721 207.332 95.2854 213.159 96.6982C217.799 97.8234 228.348 96.8409 234.813 89.5276C239.453 84.2774 242.078 76.4976 241.327 69.6544C239.911 56.7471 236.961 56.0883 236.737 54.3524C236.737 54.3524 239.033 88.5901 218.361 89.4335C208.632 89.8303 209.269 86.2467 209.269 86.2467Z" fill="black"/>
<path d="M209.327 86.2351C209.413 89.4435 215.756 89.3915 218.066 89.3003C223.985 89.1855 228.803 85.8204 231.593 80.6982C235.817 72.937 236.653 63.0844 236.294 54.3802L237.168 54.2947C237.287 54.9745 237.927 55.6333 238.272 56.2758C238.712 56.9989 239.089 57.762 239.407 58.5402C240.654 61.6485 241.226 64.9417 241.687 68.231C241.921 69.8679 242.07 71.5731 241.982 73.2385C241.537 81.5567 237.337 90.0892 229.935 94.2853C224.971 97.0518 218.465 98.408 212.877 97.0892C209.438 96.2134 206.363 94.0557 206.336 90.1901C206.311 89.3395 206.413 88.5128 206.534 87.6934C206.687 86.8618 206.803 86.0094 207.316 85.2938C208.055 84.3588 208.995 85.5373 209.327 86.2351ZM209.202 86.2555C208.315 84.9164 207.533 84.6706 207.12 86.5502C206.599 89.1934 206.575 92.4127 208.833 94.264C210.664 95.7833 213.112 96.3853 215.454 96.5427C223.401 96.9446 231.77 93.45 236.187 86.675C239.783 81.3658 241.58 74.7491 240.635 68.3641C240.24 65.1554 239.708 61.9046 238.54 58.8906C238.245 58.1457 237.9 57.4277 237.495 56.7422C237.081 55.9865 236.431 55.3081 236.297 54.4069L237.17 54.3214C237.278 56.6246 237.234 58.8999 237.104 61.1833C236.651 67.9878 235.492 74.975 232.062 80.9685C229.13 86.162 224.127 89.5577 218.075 89.5808C215.67 89.6481 209.244 89.5657 209.202 86.2555Z" fill="black"/>
<path d="M196.738 44.2909C196.738 44.2909 193.114 43.0449 193.614 40.6351C194.112 38.2256 196.52 37.5131 197.846 37.8462C200.298 38.4623 200.745 38.7738 202.506 37.9482C204.266 37.1229 208.607 35.0757 211.891 34.686C215.195 34.2938 231.392 38.1306 235.328 51.418C235.328 51.418 207.693 38.8844 199.598 41.1947C195.707 42.3042 196.738 44.2909 196.738 44.2909Z" fill="black"/>
<path d="M196.685 44.2518C196.653 44.282 196.68 44.3345 196.671 44.3112L196.666 44.3007L196.657 44.2805C196.098 42.8489 197.612 41.7744 198.788 41.3543C203.013 39.6326 211.316 42.2336 215.69 43.51C222.443 45.6154 229.021 48.1963 235.511 51.0068L234.888 51.5491C232.552 43.6709 225.157 38.5156 217.569 36.2792C216.471 35.9495 215.357 35.6676 214.238 35.4831C213.276 35.3274 212.342 35.2182 211.39 35.4029L210.976 35.4798C208.737 35.9114 206.559 36.7708 204.445 37.6539C203.279 38.097 202.32 38.7657 201.013 38.917C199.854 38.9763 198.907 38.5403 197.856 38.2806C196.735 37.9563 195.425 38.365 194.618 39.239C193.935 40.0077 193.49 41.2156 194.09 42.1762C194.659 43.1246 195.705 43.763 196.704 44.2128C196.713 44.2171 196.733 44.2245 196.741 44.2284C196.758 44.2284 196.69 44.2226 196.685 44.2518ZM196.781 44.3345C196.767 44.3606 196.69 44.353 196.699 44.349L196.685 44.3447L196.659 44.3362C196.113 44.1531 195.585 43.915 195.094 43.6129C194.333 43.1405 193.575 42.4414 193.373 41.5117C193.086 39.9145 194.203 38.286 195.673 37.7008C196.394 37.393 197.278 37.2705 198.06 37.4757L198.491 37.5766L199.343 37.7784C200.504 38.1063 201.357 38.0043 202.41 37.4265C204.003 36.6452 205.608 35.8983 207.28 35.2805C208.83 34.718 210.45 34.1741 212.125 34.03C212.908 33.997 213.692 34.0908 214.443 34.2045C221.48 35.4515 228.266 39.1034 232.589 44.8706C234.011 46.8031 235.095 48.9881 235.759 51.2914C235.873 51.6503 235.477 52.0019 235.136 51.8336C227.122 48.2401 218.937 44.8941 210.471 42.5138C206.795 41.6044 201.081 39.95 197.7 42.1213C196.995 42.5605 196.435 43.4177 196.782 44.2484C196.782 44.2481 196.786 44.2566 196.786 44.2566C196.78 44.2395 196.81 44.2984 196.781 44.3345Z" fill="black"/>
<path d="M195.715 43.684C200.495 47.0737 212.259 50.4333 217.884 63.5569C220.65 70.0093 213.094 78.7234 210.527 81.5987C206.635 85.9607 207.385 90.0846 213.947 90.7414C221.094 91.4556 231.784 85.1329 235.507 79.8673C246.506 64.3092 235.62 49.6918 229.507 44.1532C225.713 40.7137 222.885 39.8346 209.406 38.8646C209.128 38.845 190.774 40.1808 195.715 43.684Z" fill="black"/>
<path d="M209.394 39.0901C208.658 39.0901 195.846 40.1584 195.131 42.3676C195.022 42.7041 195.266 43.0863 195.855 43.5039C196.912 44.2536 198.314 45.0019 199.938 45.8681C205.419 48.7919 213.701 53.2101 218.1 63.4709C220.019 67.9506 217.531 74.1005 210.704 81.7503C208.725 83.9677 207.98 86.0754 208.607 87.6851C209.216 89.2494 211.074 90.23 213.979 90.521C220.89 91.211 231.495 85.1708 235.334 79.7407C240.092 73.0115 241.231 65.8065 238.722 58.3265C236.249 50.9552 230.936 45.7429 229.367 44.321C225.5 40.8158 222.514 40.0337 209.4 39.0901H209.394ZM215.084 91.0215C214.692 91.0217 214.308 91.0033 213.935 90.9661C210.039 90.5761 208.66 89.055 208.19 87.8477C207.499 86.0731 208.274 83.8017 210.37 81.4521C217.072 73.9437 219.534 67.9531 217.689 63.6471C213.352 53.5308 205.478 49.3299 199.727 46.2627C198.091 45.3893 196.677 44.635 195.596 43.8685C194.814 43.3145 194.518 42.7533 194.716 42.1999C195.66 39.5559 209.164 38.644 209.428 38.644H209.431C222.677 39.5972 225.703 40.3966 229.667 43.9896C231.705 45.8355 236.708 50.9143 239.146 58.1844C241.704 65.8071 240.544 73.1464 235.699 79.9987C232 85.2318 222.107 91.0212 215.084 91.0215Z" fill="black"/>
<path d="M230.268 51.0352C230.268 51.0352 223.732 45.7079 219.092 45.9836C214.467 46.2584 209.863 44.6641 205.3 45.9146C197.601 48.0248 215.56 47.48 215.56 47.48C215.56 47.48 194.526 49.4976 197.755 47.1534C200.045 45.4905 209.35 45.7395 217.685 45.4268C225.602 45.1293 230.268 51.0352 230.268 51.0352Z" fill="white"/>
<path d="M230.237 51.0001C230.227 51.0029 230.215 51.0152 230.214 51.0297C230.214 51.0433 230.223 51.051 230.217 51.0442L230.2 51.0248L230.166 50.9862L230.097 50.9095C227.14 47.7883 222.917 45.746 218.596 45.7357C216.688 45.7832 213.893 45.9487 211.952 45.9918C209.048 46.1846 199.685 46.0726 197.882 47.682C197.879 47.6866 197.912 47.6311 197.895 47.5364C197.874 47.4455 197.831 47.4211 197.841 47.428C197.846 47.4331 197.878 47.453 197.917 47.4706C199.298 47.8923 200.803 47.796 202.262 47.8361C206.682 47.8051 211.122 47.4942 215.529 47.1216L215.574 47.8378C213.867 47.8733 212.164 47.8841 210.457 47.867C208.32 47.8144 206.158 47.8452 204.034 47.4541C203.708 47.3745 203.027 47.2287 203.118 46.7052C203.169 46.4812 203.397 46.3357 203.532 46.2581C204.355 45.8458 205.168 45.6661 206.044 45.4712C207.751 45.1321 209.492 45.1503 211.195 45.2893C212.901 45.4263 214.585 45.6727 216.275 45.7969C217.974 45.9884 219.707 45.6522 221.375 46.1033C224.594 46.9584 227.43 48.8032 230.051 50.7969C230.051 50.7972 230.176 50.8964 230.176 50.8964L230.239 50.9465L230.27 50.9718C230.273 50.9746 230.289 50.9854 230.277 50.9788C230.266 50.972 230.239 50.9854 230.238 51.0002L230.237 51.0001ZM230.304 51.0678C230.279 51.082 230.233 51.0717 230.209 51.0462L230.178 51.0217L230.115 50.9729C227.465 48.9891 224.556 47.1426 221.321 46.3278C219.659 45.9003 217.942 46.2724 216.254 46.116C212.119 45.8909 207.708 44.94 203.808 46.7379C203.732 46.7794 203.657 46.8411 203.651 46.8552C203.649 46.8672 203.678 46.8073 203.657 46.7533C203.638 46.7083 203.634 46.7214 203.657 46.7334C204.148 46.9698 204.82 46.9977 205.385 47.0633C208.753 47.3112 212.173 47.2126 215.552 47.1202L215.597 47.8364C213.381 48.0544 211.167 48.2419 208.946 48.4037C206.727 48.5611 204.504 48.6938 202.268 48.7319C200.706 48.7057 199.053 48.8552 197.525 48.3399C196.575 47.9091 196.908 47.0312 197.694 46.6191C198.994 45.9 200.509 45.7383 201.907 45.5618C205.241 45.2085 208.594 45.2114 211.933 45.1699C213.873 45.167 216.691 45.0784 218.609 45.1077C223.065 45.2557 227.314 47.4666 230.177 50.8396L230.242 50.9214L230.275 50.9627L230.291 50.9834C230.291 50.9834 230.305 50.9976 230.31 51.0181C230.315 51.0395 230.307 51.059 230.304 51.0678Z" fill="black"/>
<path d="M208.615 84.0989C208.615 84.0989 206.766 83.9906 208.779 81.3236C210.792 78.6561 222.083 69.7584 222.083 69.7584C222.083 69.7584 215.69 79.0369 214.167 82.8469C212.989 85.7899 215.528 89.7041 218.085 88.8335L208.615 84.0989Z" fill="white"/>
<path d="M208.61 84.1475C207.365 84.0125 207.768 82.6665 208.241 81.9514C208.684 81.1749 209.305 80.5216 209.912 79.8856C211.154 78.6302 212.461 77.4485 213.776 76.2772C216.999 73.4388 220.371 70.6729 223.713 67.9678C221.047 71.9081 218.477 75.9939 216.085 80.097C215.54 81.0525 214.994 82.0196 214.552 83.0237C214.234 83.7621 214.186 84.5775 214.311 85.3739C214.584 87.1223 216.055 89.2703 218.068 88.7898L218.099 88.8796C217.62 89.0796 217.073 89.1138 216.569 88.9731C214.508 88.3427 213.363 85.9752 213.503 83.9142C213.669 82.367 214.558 80.9738 215.248 79.6263C216.218 77.864 217.287 76.1698 218.394 74.5038C219.5 72.8363 220.634 71.1927 221.782 69.5537L222.305 70.044C219.526 72.19 216.773 74.3781 214.07 76.62C212.844 77.75 206.909 82.1151 208.07 83.7894C208.205 83.9378 208.412 84.0279 208.616 84.0526L208.61 84.1475Z" fill="black"/>
<path d="M210.064 89.1042C209.361 88.4014 207.652 84.6868 207.652 84.6868C207.652 84.6868 218.855 85.7866 228.233 78.8459C237.647 71.8803 238.625 64.6969 238.625 64.6969C238.625 64.6969 243.308 74.1872 232.152 83.2546C218.641 94.2364 210.768 89.8076 210.064 89.1042Z" fill="white"/>
<path d="M210.093 89.0726C211.61 90.1762 213.611 90.4467 215.448 90.4641C222.276 90.4283 230.206 84.9493 234.759 80.1033C237.208 77.3843 238.988 73.9281 239.147 70.2262C239.23 68.4215 238.978 66.5344 238.272 64.8709L239.005 64.7515C238.672 66.4628 237.993 67.9886 237.177 69.4938C234.72 73.8916 230.961 77.4503 226.763 80.1647C221.095 83.694 214.267 85.1591 207.642 84.7405L207.694 84.6671C208.421 86.1618 209.078 87.7502 210.093 89.0726ZM210.025 89.14C208.995 87.8275 208.35 86.1925 207.6 84.7106L207.562 84.6321L207.652 84.637C217.544 85.1565 227.559 80.9255 233.812 73.207C235.619 71.0061 237.133 68.5255 237.966 65.7951C238.212 65.0528 238.319 64.0544 238.443 63.3024C242.547 71.6646 238.186 79.5952 231.198 84.5907C226.652 87.9583 221.234 90.787 215.445 90.6889C213.569 90.6002 211.56 90.299 210.025 89.14Z" fill="black"/>
<path d="M238.457 65.5508C238.457 65.5508 234.371 71.9828 230.59 74.9132C226.821 77.8366 218.069 82.8614 213.097 83.1837C204.708 83.7271 221.227 70.371 221.227 70.371C221.227 70.371 203.104 81.653 208.493 85.2422C212.314 87.7848 223.707 83.221 230.264 77.478C236.494 72.0225 238.457 65.5508 238.457 65.5508Z" fill="white"/>
<path d="M238.477 65.5091C238.482 65.5298 238.496 65.5701 238.489 65.609C238.48 65.6509 238.475 65.6583 238.469 65.6801C238.296 66.2443 238.089 66.799 237.866 67.3448C235.208 73.8258 230.047 79.0314 223.937 82.3572C220.357 84.408 210.845 88.7431 207.511 84.9863C204.332 80.7102 217.886 72.1223 221.039 70.0703L221.451 70.6495C219.821 71.9722 218.224 73.3557 216.684 74.7873C214.798 76.5935 212.859 78.4021 211.494 80.6258C210.383 82.5237 211.229 83.0697 213.191 82.9145C215.246 82.7298 217.255 82.0162 219.192 81.2229C221.133 80.4155 223.022 79.4739 224.858 78.4402C226.689 77.4003 228.495 76.3016 230.186 75.0491C231.879 73.8062 233.307 72.2323 234.66 70.6196C235.914 69.0955 237.098 67.4956 238.199 65.8566L238.309 65.6921L238.363 65.6094C238.374 65.5775 238.444 65.5193 238.477 65.5091ZM238.437 65.5954C238.434 65.6406 238.469 65.6384 238.444 65.6617C238.413 65.7066 238.316 65.8631 238.283 65.912C237.201 67.5707 236.038 69.1884 234.801 70.7348C233.465 72.3712 232.051 73.9765 230.348 75.2639C228.659 76.5511 226.862 77.6783 225.034 78.7494C221.332 80.8059 217.512 82.8898 213.23 83.4295C212.183 83.5576 210.362 83.4173 210.451 81.9573C210.724 79.4887 214.493 76.0713 216.241 74.3164C217.781 72.855 219.366 71.4527 221.004 70.0956L221.416 70.6748C218.706 72.409 205.989 80.9484 208.269 84.4015C211.221 87.4192 220.328 83.3539 223.524 81.6097C229.994 78.2254 235.471 72.7939 238.246 65.976L238.331 65.7577L238.372 65.648C238.379 65.6327 238.387 65.6031 238.39 65.6073C238.395 65.6102 238.421 65.6122 238.437 65.5954Z" fill="black"/>
<mask id="mask0_1030_2065" style="mask-type:luminance" maskUnits="userSpaceOnUse" x="205" y="66" width="15" height="6">
<path d="M205 68.0161C205 68.0161 208.364 68.138 211.047 69.7037C216.109 72.6557 219.764 70.1255 219.764 70.1255C219.764 70.1255 215.828 67.3126 213.155 66.6098C212.774 66.5095 212.335 66.4663 211.863 66.4663C209.03 66.4663 205 68.0161 205 68.0161Z" fill="white"/>
</mask>
<g mask="url(#mask0_1030_2065)">
<path fill-rule="evenodd" clip-rule="evenodd" d="M205 68.0161C205 68.0161 208.364 68.138 211.047 69.7037C216.109 72.6557 219.764 70.1255 219.764 70.1255C219.764 70.1255 215.828 67.3126 213.155 66.6098C212.774 66.5095 212.335 66.4663 211.863 66.4663C209.03 66.4663 205 68.0161 205 68.0161Z" fill="white"/>
</g>
<path d="M206.043 67.8804C207.262 68.037 209.349 68.4465 211.161 69.5041C215.238 71.8815 218.405 70.5977 219.35 70.1018C218.4 69.451 215.292 67.3958 213.101 66.8197C211.19 66.317 207.722 67.3223 206.043 67.8804ZM215.941 71.3418C214.535 71.3418 212.826 70.9928 210.936 69.8904C208.335 68.3724 205.027 68.2342 204.994 68.2329L203.902 68.1928L204.922 67.8008C205.148 67.7133 210.504 65.6727 213.214 66.3872C215.896 67.0923 219.734 69.821 219.896 69.9367L220.155 70.1217L219.893 70.3027C219.869 70.3192 218.349 71.3418 215.941 71.3418Z" fill="black"/>
<path d="M197.7 41.3841L196.949 47.3556C196.949 47.3556 203.972 45.4713 214.415 46.3242C224.897 47.1811 235.369 54.1621 235.369 54.1621C232.861 49.9209 230.642 40.5008 214.373 38.9104C208.608 38.3467 204.328 39.5302 201.653 39.9406C198.37 40.4434 197.7 41.3841 197.7 41.3841Z" fill="white"/>
<path d="M197.654 41.3674C197.978 40.9729 198.399 40.7782 198.836 40.5633C200.126 39.9813 201.534 39.8006 202.903 39.4993C206.548 38.6882 210.318 38.1439 214.069 38.4711C223.475 39.2245 230.426 42.6167 234.463 51.4954C235.089 52.7985 235.831 54.1985 236.566 55.4297C230.608 51.4621 223.935 48.2247 216.847 46.939C211.915 46.1842 206.87 46.2007 201.909 46.6773C200.198 46.8651 198.48 47.1055 196.809 47.5097L196.832 47.3418L197.654 41.3674ZM197.743 41.4021L197.064 47.3708L196.917 47.2431C198.549 46.8228 200.203 46.5567 201.869 46.337C206.024 45.8016 210.256 45.7416 214.433 46.0355C222.016 46.7292 229.159 49.8803 235.595 53.8211L235.014 54.3716C234.069 52.7434 233.343 51.0501 232.373 49.4591C228.552 42.7367 221.392 39.9822 213.997 39.2966C210.312 38.9129 206.628 39.2864 202.984 39.9333C201.223 40.2467 199.202 40.251 197.743 41.4021Z" fill="black"/>
<mask id="mask1_1030_2065" style="mask-type:luminance" maskUnits="userSpaceOnUse" x="192" y="58" width="44" height="19">
<path d="M225.108 59.0094C224.385 59.5985 222.883 60.3346 222.155 59.8532C220.878 59.0082 219.295 58.2133 217.514 59.0568C215.733 59.9007 211.217 63.2842 207.11 64.7748C205.243 65.4527 202.871 65.2659 200.572 65.0792C197.814 64.8552 195.162 64.6313 193.611 65.8997C190.518 68.4308 192.345 76.445 196.283 76.3048C199.662 76.1841 203.52 69.9551 206.548 68.0088C208.165 66.9689 211.627 68.1819 215.453 69.3946C218.785 70.451 222.393 71.5071 225.299 71.0754C229.764 70.4115 234.107 68.4308 235.232 64.3531C236.159 60.0962 232.048 58.0144 228.587 58.0141C227.201 58.0141 225.92 58.3478 225.108 59.0094Z" fill="white"/>
</mask>
<g mask="url(#mask1_1030_2065)">
<path fill-rule="evenodd" clip-rule="evenodd" d="M225.108 59.0094C224.385 59.5985 222.883 60.3346 222.155 59.8532C220.878 59.0082 219.295 58.2133 217.514 59.0568C215.733 59.9007 211.217 63.2842 207.11 64.7748C205.243 65.4527 202.871 65.2659 200.572 65.0792C197.814 64.8552 195.162 64.6313 193.611 65.8997C190.518 68.4308 192.345 76.445 196.283 76.3048C199.662 76.1841 203.52 69.9551 206.548 68.0088C208.165 66.9689 211.627 68.1819 215.453 69.3946C218.785 70.451 222.393 71.5071 225.299 71.0754C229.764 70.4115 234.107 68.4308 235.232 64.3531C236.159 60.0962 232.048 58.0144 228.587 58.0141C227.201 58.0141 225.92 58.3478 225.108 59.0094Z" fill="white"/>
</g>
<path d="M225.086 58.9862C226.91 57.6419 229.453 57.7936 231.52 58.4451C235.266 59.6643 236.578 63.1689 234.382 66.4958C232.472 69.3572 229.001 70.6472 225.755 71.2497C223.533 71.6894 221.23 71.2815 219.062 70.7601C216.889 70.2303 214.784 69.501 212.672 68.8585C210.889 68.3838 209.004 67.6551 207.168 68.082C205.957 68.5964 205.058 69.6809 204.101 70.6029C203.333 71.3944 202.58 72.2107 201.8 73.0067C200.245 74.5017 198.441 76.5164 196.118 76.5664C192.101 76.3146 190.779 69.4689 192.713 66.6083C193.668 65.0639 195.617 64.7107 197.295 64.719C199.523 64.711 201.721 65.0967 203.938 65.0822C205.033 65.0725 206.137 64.9699 207.153 64.586C210.808 63.2831 213.993 60.9569 217.374 59.0934C218.911 58.2296 220.736 58.8265 222.085 59.7723C222.994 60.3595 224.329 59.5421 225.086 58.9862ZM225.126 59.0354C224.361 59.6032 222.974 60.4367 222.05 59.8258C220.715 58.8924 218.923 58.2961 217.402 59.1505C214.1 61.0362 210.853 63.5366 207.264 64.8883C205.128 65.6773 202.814 65.4138 200.604 65.2635C198.481 65.1487 196.112 64.7417 194.174 65.7543C190.372 67.8353 192.666 78.0326 197.613 75.68C201.058 73.819 203.014 70.1806 206.148 67.8859C207.969 66.5771 210.908 67.7233 212.86 68.2403C217.029 69.4376 221.278 71.4118 225.675 70.772C227.834 70.4299 229.988 69.7983 231.827 68.6049C236.066 65.8847 236.88 60.4536 231.482 58.555C229.454 57.8957 226.933 57.7257 225.126 59.0354Z" fill="black"/>
<path d="M222.666 10.9475C222.666 10.9475 227.71 9.94335 232.061 15.9492C236.41 21.9562 235.159 27.7578 235.159 27.7578C235.159 27.7578 232.876 17.6255 227.513 15.8921C217.994 12.815 222.666 10.9475 222.666 10.9475Z" fill="black"/>
<path d="M222.734 11.1679C222.592 11.2302 221.726 11.6363 221.748 12.2712C221.769 12.8476 222.554 14.0572 227.586 15.684C231.964 17.0988 234.293 23.797 235.077 26.5458C235.192 24.5681 234.98 20.36 231.885 16.085C227.815 10.4671 223.086 11.1105 222.734 11.1679ZM235.168 28.8007L234.945 27.8115C234.923 27.7114 232.628 17.7835 227.449 16.1097C223.354 14.7859 221.343 13.5351 221.301 12.2855C221.268 11.2836 222.534 10.7658 222.587 10.7442L222.627 10.7325C222.678 10.722 227.863 9.77081 232.247 15.8224C236.604 21.8408 235.395 27.7503 235.382 27.8095L235.168 28.8007Z" fill="black"/>
<path d="M218.891 18.0932C218.891 18.0932 216.252 17.4205 213.738 19.4966C211.224 21.5719 211.686 23.8848 211.686 23.8848C211.686 23.8848 213.247 20.098 216.15 19.731C221.303 19.0785 218.891 18.0932 218.891 18.0932Z" fill="black"/>
<path d="M217.843 18.2196C216.88 18.2196 215.35 18.4549 213.876 19.6719C212.424 20.8701 212.003 22.1306 211.899 22.9491C212.558 21.775 213.975 19.7828 216.117 19.5119C219.127 19.1311 219.223 18.6627 219.226 18.6428C219.236 18.5675 219.032 18.4023 218.817 18.3096C218.742 18.2929 218.381 18.2196 217.843 18.2196ZM211.606 24.6543L211.462 23.9316C211.442 23.8318 211.003 21.4632 213.591 19.3269C216.163 17.203 218.83 17.8507 218.941 17.8793L218.971 17.889C219.098 17.9413 219.732 18.2255 219.669 18.7013C219.619 19.0855 219.175 19.5758 216.173 19.9558C213.435 20.3022 211.903 23.9364 211.888 23.973L211.606 24.6543Z" fill="black"/>
<path d="M217.852 24.3015C217.852 24.3015 216.484 23.5631 214.906 24.0056C214.024 24.2532 213.641 24.6911 213.473 25.0305C213.572 25.0666 213.672 25.1015 213.758 25.1484C214.251 24.7823 215.139 24.2947 216.194 24.5209C219.064 25.1331 217.852 24.3015 217.852 24.3015Z" fill="black"/>
<path d="M215.945 24.0886C215.637 24.0886 215.306 24.1253 214.967 24.2204C214.495 24.3529 214.182 24.5417 213.975 24.7332C214.552 24.3873 215.337 24.1076 216.24 24.3015C217.141 24.4939 217.571 24.5274 217.773 24.5212C217.761 24.5112 217.748 24.5016 217.736 24.4924C217.64 24.4442 216.903 24.0886 215.945 24.0886ZM213.776 25.4121L213.651 25.3445C213.583 25.3076 213.498 25.2769 213.408 25.2442L213.172 25.1589L213.272 24.9301C213.456 24.5595 213.879 24.061 214.846 23.7896C216.491 23.3284 217.899 24.0721 217.958 24.1042L217.978 24.1167C218.115 24.2105 218.421 24.4577 218.304 24.7286C218.187 25.002 217.796 25.0909 216.147 24.7388C215.208 24.5384 214.402 24.948 213.89 25.3271L213.776 25.4121Z" fill="black"/>
<path d="M215.527 34.2358C216.508 34.6448 217.565 34.9196 218.585 34.8301C220.297 34.7337 221.065 33.4372 220.185 31.9508C219.365 30.6502 218.186 29.7374 216.956 28.7258L216.994 28.6386C218.639 28.9879 220.283 29.9517 221.009 31.5395C221.884 33.5486 220.845 35.3573 218.6 35.2953C217.466 35.2609 216.414 34.8651 215.484 34.3208L215.527 34.2358Z" fill="black"/>
<path d="M216.37 33.9639C216.507 34.7241 213.459 33.2318 212.248 33.4526C211.037 33.6726 210.089 32.3217 209.949 31.5618C209.812 30.8024 211.522 30.7466 212.646 31.2483C214.483 32.0685 216.231 33.2033 216.37 33.9639Z" fill="black"/>
<path d="M212.529 33.2109C213.141 33.2109 213.966 33.4425 214.709 33.6511C215.222 33.7958 215.909 33.9919 216.144 33.9628C215.971 33.359 214.486 32.3167 212.56 31.4565C211.691 31.0688 210.587 31.072 210.253 31.3334C210.182 31.3891 210.159 31.4448 210.174 31.5261C210.305 32.2352 211.177 33.4269 212.213 33.2364C212.31 33.2188 212.416 33.2109 212.529 33.2109ZM216.156 34.0078C216.156 34.0106 216.156 34.0124 216.156 34.0146L216.375 33.9677L216.156 34.0079L216.156 34.0078ZM216.097 34.4082C215.772 34.4082 215.287 34.2781 214.588 34.0817C213.796 33.8594 212.811 33.5817 212.293 33.6767C210.928 33.9231 209.887 32.4387 209.734 31.6062C209.69 31.3609 209.776 31.1393 209.978 30.9812C210.536 30.543 211.883 30.6646 212.742 31.048C214.413 31.7943 216.425 32.9963 216.595 33.9273C216.63 34.1234 216.541 34.2383 216.484 34.2897C216.395 34.3713 216.268 34.4076 216.097 34.4076" fill="black"/>
<path d="M205.119 34.4903C205.188 34.8748 206.44 34.2595 206.688 33.985C207.391 33.2119 206.83 33.3521 206.452 33.0317C206.153 32.778 206.013 31.9677 205.775 32.3684C205.385 33.0238 205.049 34.1049 205.119 34.4903Z" fill="black"/>
<path d="M221.984 24.5545C223.39 23.296 225.224 22.8086 227.087 23.1138C228.515 23.452 229.519 24.6389 230.292 25.8016L230.193 25.8809C229.133 24.9819 227.926 23.9241 226.465 24.102C225.766 24.2038 225.07 24.4769 224.348 24.55C223.609 24.6514 222.852 24.7332 222.028 24.6735L221.984 24.5545Z" fill="black"/>
<path d="M202.485 39.5745C202.483 40.717 202.459 41.8582 202.431 42.9989C202.436 44.1482 202.378 45.2859 202.064 46.4043L202.02 46.4015C201.846 45.2532 201.928 44.1169 202.074 42.977C202.186 41.8413 202.302 40.7059 202.441 39.5716L202.485 39.5745Z" fill="black"/>
<path d="M211.078 38.8703C211.055 39.8167 210.989 41.7174 210.945 42.6628C210.923 43.9346 210.84 45.1944 210.5 46.4316L210.456 46.4282C210.228 44.5902 210.623 42.5832 210.8 40.7503L211.033 38.8669L211.078 38.8703Z" fill="black"/>
<path d="M219.49 39.9309C219.401 41.089 219.201 43.4135 219.091 44.5691C218.979 46.1226 218.808 47.663 218.38 49.1699L218.336 49.1645C218.238 46.9053 218.774 44.4609 219.079 42.2247L219.445 39.9255L219.49 39.9309Z" fill="black"/>
<path d="M225.897 42.2473C225.816 43.2574 225.631 45.2846 225.529 46.2924C225.428 47.649 225.266 48.9913 224.849 50.2969L224.805 50.2912C224.692 48.3157 225.212 46.1909 225.502 44.2424L225.853 42.2415L225.897 42.2473Z" fill="black"/>
<path d="M230.707 46.0784C230.657 47.0218 230.583 47.9619 230.507 48.9018C230.462 49.8533 230.355 50.7875 229.995 51.6855L229.951 51.6799C229.827 50.7207 229.957 49.7893 230.152 48.8565C230.312 47.9275 230.476 46.9987 230.663 46.0727L230.707 46.0784Z" fill="black"/>
<path d="M236.466 70.4823C236.939 70.8843 237.394 71.302 237.847 71.7221C238.333 72.1273 238.76 72.5682 239 73.1763L238.968 73.207C238.375 72.93 237.961 72.4772 237.587 71.9674C237.195 71.4893 236.806 71.009 236.434 70.513L236.466 70.4823Z" fill="black"/>
<path d="M232.434 75.3524C233.128 75.9532 233.805 76.5702 234.479 77.1898C235.183 77.7915 235.834 78.4315 236.302 79.2477L236.27 79.2793C235.457 78.8061 234.822 78.1499 234.225 77.4419C233.611 76.7629 232.998 76.0817 232.402 75.3839L232.434 75.3524Z" fill="black"/>
<path d="M212.982 86.3446C213.544 87.0188 214.087 87.7065 214.628 88.396C215.2 89.073 215.714 89.779 216.018 90.6285L215.982 90.6543C215.281 90.0862 214.785 89.3674 214.336 88.6029C213.864 87.8645 213.395 87.1242 212.945 86.3704L212.982 86.3446Z" fill="black"/>
<path d="M220.998 83.5117C221.677 84.1822 222.339 84.8679 222.998 85.556C223.687 86.2279 224.322 86.9347 224.762 87.8064L224.729 87.8359C223.922 87.2851 223.305 86.563 222.729 85.7916C222.134 85.0481 221.54 84.3024 220.965 83.5412L220.998 83.5117Z" fill="black"/>
<path d="M227.25 80.3188C227.93 80.8871 228.593 81.4724 229.255 82.0598C229.945 82.6291 230.583 83.2376 231.04 84.0246L231.009 84.0566C230.212 83.6173 229.589 82.9929 229.004 82.3156C228.402 81.6679 227.803 81.0177 227.219 80.3509L227.25 80.3188Z" fill="black"/>
<path d="M213.215 78.0189C213.665 78.286 214.1 78.5714 214.533 78.8593C214.999 79.1284 215.407 79.4419 215.657 79.9455L215.629 79.9805C215.081 79.8546 214.681 79.5303 214.312 79.14C213.931 78.786 213.552 78.429 213.188 78.0541L213.215 78.0189Z" fill="black"/>
<path d="M216.14 75.3704C216.477 75.6543 216.852 75.9149 217.127 76.2466C217.196 76.3774 217.252 76.5195 217.249 76.7099L217.214 76.7383C216.861 76.6746 216.676 76.4618 216.539 76.1685C216.387 75.9184 216.237 75.666 216.105 75.3989L216.14 75.3704Z" fill="black"/>
<path d="M211.324 81.1165C211.812 81.325 212.289 81.5536 212.764 81.7849C213.269 81.9932 213.724 82.2533 214.047 82.7233L214.024 82.7617C213.456 82.7063 213.009 82.4343 212.583 82.0933C212.15 81.7892 211.72 81.482 211.301 81.1551L211.324 81.1165Z" fill="black"/>
<path d="M242.975 39.5688C243.962 40.2282 243.786 41.5668 243.12 42.399C242.699 43.066 242.07 43.6367 241.256 43.7291C240.995 43.7682 240.725 43.7717 240.454 43.6898L240.438 43.5961C240.764 43.2931 241.173 42.9668 241.503 42.6866C242.513 42.0028 243.9 40.9677 242.914 39.6421L242.975 39.5688Z" fill="black"/>
<path d="M198.672 69.9766C199.655 67.6315 201.704 65.5304 204.332 65.2018C208.131 64.8483 211.965 66.0806 215.725 65.3067C219.357 64.5857 222.147 61.5299 223.53 58.2175L224.713 58.675C223.325 61.691 220.916 64.3342 217.797 65.5793C215.942 66.2898 213.894 66.3301 211.961 66.1784C210.674 66.0784 209.406 65.8928 208.144 65.7316C205.576 65.3883 203.062 65.1342 200.967 66.9713C200.002 67.7856 199.209 68.8201 198.672 69.9766Z" fill="black"/>
<path d="M234.066 16.1001C234.066 16.1001 243.947 23.2071 244.51 29.2533C245.073 35.299 241.276 37.2208 241.276 37.2208L242.541 40.4082C242.541 40.4082 245.915 37.2208 246.619 32.7215C247.321 28.2219 241.63 20.8555 238.745 18.5196C235.792 16.1297 234.066 16.1001 234.066 16.1001Z" fill="black"/>
<path d="M219.77 29.2233C220.602 29.4742 221.267 30.0594 221.896 30.6315C222.832 31.5097 223.621 32.5252 224.36 33.5702C225.071 34.5428 225.685 35.7711 226.505 36.6621C228.444 38.709 231.252 40.2423 234.12 40.2261C234.532 40.2067 234.94 40.1133 235.307 39.9146L235.344 39.9666C235.004 40.2372 234.576 40.3881 234.15 40.464C231.161 40.8582 227.984 39.3109 226.039 37.0691C225.197 36.0866 224.693 34.885 223.993 33.8141C223.319 32.7517 222.585 31.7206 221.732 30.7946C221.163 30.2009 220.537 29.5791 219.758 29.2855L219.77 29.2233Z" fill="black"/>
<path d="M223.211 24.3672C227.512 23.3696 232.026 26.2248 233.727 30.1491L233.67 30.1777C232.07 27.29 229.514 25.5648 226.311 24.9188C225.307 24.6772 224.278 24.5197 223.218 24.4302L223.211 24.3672Z" fill="black"/>
<path d="M247.364 42.5665C247.348 41.5047 247.293 40.0262 246.485 39.3211C246.204 39.0826 245.774 39.1674 245.438 39.2171C244.643 39.2719 243.886 39.1819 243.102 38.8587V38.7635C244.029 38.338 244.911 38.172 245.902 38.2755C247.115 38.3755 247.661 39.6338 247.653 40.6958C247.668 41.341 247.604 41.9682 247.458 42.5801L247.364 42.5665Z" fill="black"/>
<path d="M241.149 41.7363C239.927 42.5616 239.333 44.054 239.283 45.4841C239.238 46.5704 239.482 47.6424 239.655 48.7119C239.979 50.1329 239.939 50.154 239.353 48.7992C238.687 47.0467 238.678 44.9674 239.574 43.292C239.951 42.6383 240.47 42.0574 241.129 41.6965L241.149 41.7363Z" fill="black"/>
<path d="M219.842 23.6358C220.348 24.6096 219.989 26.013 218.898 26.4429C217.887 26.8747 216.709 26.8267 215.666 26.5839C214.97 26.4049 214.298 26.1514 213.672 25.8024L213.687 25.7603C214.737 25.9397 215.738 26.1698 216.779 26.3088C218.804 26.6198 220.343 25.8331 219.842 23.6358Z" fill="black"/>
<path d="M208.523 33.7699C206.512 34.0547 204.992 31.397 205.069 29.6281L205.113 29.6181C205.233 29.8395 205.337 30.0609 205.425 30.2849C205.987 31.5271 206.402 33.1022 207.818 33.6135C208.038 33.6931 208.278 33.7392 208.515 33.726L208.523 33.7699Z" fill="black"/>
<path d="M207.266 34.0556C207.391 35.1874 206.484 36.5203 205.283 36.5391L205.266 36.4978C205.365 36.3788 205.47 36.2847 205.576 36.1981C206.056 35.743 206.684 35.4562 206.977 34.8276C207.106 34.5945 207.195 34.3319 207.221 34.0597L207.266 34.0556Z" fill="black"/>
<path d="M217.568 24.8571C216.979 25.2155 216.408 25.2879 215.756 25.3178C215.139 25.4008 214.525 25.513 213.914 25.6523L213.891 25.5932C214.445 25.2754 215.034 25.0134 215.646 24.8227C216.266 24.5721 216.933 24.4751 217.565 24.7937L217.568 24.8571" fill="black"/>
<path d="M211.954 100.488C211.664 100.96 211.519 101.544 211.609 102.091C211.739 102.878 212.349 103.669 213.135 103.883C213.987 104.064 214.885 103.812 215.671 103.483L215.747 103.553C218.041 105.683 221.273 106.929 224.366 106.452C227.469 105.901 230.469 104.688 233.303 103.318C241.62 99.2319 249.712 91.9909 249.091 81.9711C249.008 78.8275 248.457 75.7006 247.754 72.6306C246.271 66.4454 244.108 60.4156 241.617 54.5536L241.73 54.4964C244.052 58.7124 245.99 63.148 247.543 67.7084C249.082 72.2913 250.297 77.0858 250.382 81.9469C250.862 92.3376 242.313 99.9344 233.62 103.975C232.163 104.666 230.665 105.267 229.141 105.792C226.096 106.833 222.72 107.668 219.614 106.366C218.09 105.784 216.702 104.9 215.535 103.758L215.699 103.79C214.867 104.104 213.961 104.318 213.077 104.107C212.213 103.856 211.573 102.992 211.442 102.115C211.361 101.517 211.527 100.914 211.851 100.415L211.954 100.488Z" fill="black"/>
<path fill-rule="evenodd" clip-rule="evenodd" d="M145.421 20.3108C145.419 20.8227 145.417 21.3328 145.414 21.8447C141.529 21.8541 137.647 21.8723 133.765 21.874C95.1169 21.874 56.4715 21.8706 17.8268 21.8669C17.4517 21.8669 17.0754 21.8447 16.7031 21.8722C16.1168 21.9126 15.8672 21.6977 15.8672 21.0738C15.8655 20.4426 16.1344 20.2741 16.7133 20.2815C18.5391 20.3014 20.3619 20.2849 22.1866 20.2849C51.0533 20.2849 79.9229 20.2849 108.789 20.2815C120.486 20.2815 132.183 20.2741 143.879 20.2721C144.393 20.2721 144.908 20.298 145.421 20.3108Z" fill="white"/>
<path fill-rule="evenodd" clip-rule="evenodd" d="M145.421 45.2327C145.419 45.7446 145.417 46.2547 145.414 46.7666C141.529 46.7759 137.647 46.7941 133.765 46.7958C95.1169 46.7958 56.4715 46.7924 17.8268 46.7887C17.4517 46.7887 17.0754 46.7665 16.7031 46.7941C16.1168 46.8345 15.8672 46.6196 15.8672 45.9958C15.8655 45.3645 16.1344 45.196 16.7133 45.2034C18.5391 45.2233 20.3619 45.2068 22.1866 45.2068C51.0533 45.2068 79.9229 45.2068 108.789 45.2034C120.486 45.2034 132.183 45.196 143.879 45.194C144.393 45.194 144.908 45.2199 145.421 45.2327Z" fill="white"/>
<path d="M23.3639 29.4965V35.1221H24.993C25.2647 35.1221 25.3099 35.0434 25.3099 34.8259V29.7727C25.3099 29.5951 25.2419 29.4965 25.0157 29.4965H23.3639ZM26.5547 26.9895C27.8444 26.9895 28.5007 27.6804 28.5007 28.7266V35.5763C28.5007 36.6619 28.0027 37.4909 26.1699 37.4909H23.3639V41.3008H20.1055V26.9895H26.5547Z" fill="white"/>
<path d="M29.793 26.9895H33.0741V41.3008H29.793V26.9895Z" fill="white"/>
<path d="M40.1317 26.9895H43.458L40.4255 41.3008H37.0088L33.9766 26.9895H37.3029L37.5971 28.8251L38.7061 36.2276L39.8375 28.7856L40.1317 26.9895Z" fill="white"/>
<path d="M47.9106 29.4965C47.6841 29.4965 47.6165 29.5951 47.6165 29.7727V38.4977C47.6165 38.7148 47.6616 38.7938 47.9333 38.7938H49.1776C49.4493 38.7938 49.4945 38.7148 49.4945 38.4977V29.7727C49.4945 29.5951 49.4266 29.4965 49.2003 29.4965H47.9106ZM52.8208 39.2675C52.8208 40.3533 52.3005 41.3008 50.4676 41.3008H46.6657C44.8329 41.3008 44.3125 40.3533 44.3125 39.2675V28.8451C44.3125 27.7196 44.9915 26.9895 46.5302 26.9895H50.6032C52.1422 26.9895 52.8208 27.7196 52.8208 28.8451V39.2675Z" fill="white"/>
<path d="M60.9712 38.636H64.0486L63.483 41.3008H56.5586L60.2471 29.6542H56.83L57.3959 26.9894H64.5014L60.9712 38.636Z" fill="white"/>
<path d="M76.72 41.3008H73.3709V35.5762H71.5832V41.3008H68.2344V26.9895H71.5832V33.1087H73.3709V26.9895H76.72V41.3008Z" fill="white"/>
<path d="M81.6762 29.4965C81.4497 29.4965 81.3821 29.5951 81.3821 29.7727V38.4977C81.3821 38.7148 81.4273 38.7938 81.6989 38.7938H82.9432C83.2149 38.7938 83.2601 38.7148 83.2601 38.4977V29.7727C83.2601 29.5951 83.1922 29.4965 82.966 29.4965H81.6762ZM86.5864 39.2675C86.5864 40.3533 86.0661 41.3008 84.2332 41.3008H80.4314C78.5986 41.3008 78.0781 40.3533 78.0781 39.2675V28.8451C78.0781 27.7196 78.7571 26.9895 80.2958 26.9895H84.3688C85.9075 26.9895 86.5864 27.7196 86.5864 28.8451V39.2675Z" fill="white"/>
<path d="M91.2038 29.4965V38.7938H92.7425C93.0142 38.7938 93.0594 38.7148 93.0594 38.4977V29.7727C93.0594 29.5951 92.9915 29.4965 92.7649 29.4965H91.2038ZM96.3178 39.0899C96.3178 40.6692 95.6388 41.3008 93.7608 41.3008H87.9453V26.9895H94.3719C95.6616 26.9895 96.3178 27.6804 96.3178 28.7266V39.0899Z" fill="white"/>
<path d="M101.274 29.4965C101.047 29.4965 100.98 29.5951 100.98 29.7727V38.4977C100.98 38.7148 101.025 38.7938 101.297 38.7938H102.541C102.813 38.7938 102.858 38.7148 102.858 38.4977V29.7727C102.858 29.5951 102.79 29.4965 102.564 29.4965H101.274ZM106.184 39.2675C106.184 40.3533 105.664 41.3008 103.831 41.3008H100.029C98.1961 41.3008 97.6758 40.3533 97.6758 39.2675V28.8451C97.6758 27.7196 98.3547 26.9895 99.8934 26.9895H103.966C105.505 26.9895 106.184 27.7196 106.184 28.8451V39.2675Z" fill="white"/>
<path d="M107.543 26.9895H110.666L112.34 32.7339V26.9895H115.712V41.3008H112.34L110.575 35.3196V41.3008H107.543V26.9895Z" fill="white"/>
<path d="M123.968 23.8704H120.46L117.519 26.2588H119.918L123.968 23.8704ZM117.066 26.9497H120.348V41.3008H117.066V26.9497Z" fill="white"/>
<path d="M121.703 26.9895H124.826L126.501 32.7339V26.9895H129.872V41.3008H126.501L124.736 35.3196V41.3008H121.703V26.9895Z" fill="white"/>
<path d="M134.737 37.2539H136.254L135.507 32.1808L134.737 37.2539ZM134.376 39.5241L134.082 41.3008H130.777L133.742 26.9892H137.249L140.214 41.3008H136.91L136.616 39.5241H134.376Z" fill="white"/>
</svg>
