<svg width="288" height="288" viewBox="0 0 288 288" fill="none" xmlns="http://www.w3.org/2000/svg">
<g clip-path="url(#clip0_1026_1766)">
<g clip-path="url(#clip1_1026_1766)">
<path d="M219.975 134.344C217.845 132.639 215.715 131.361 213.443 130.509C211.171 129.657 208.899 129.089 206.342 129.089C201.514 129.089 197.538 130.651 194.555 133.776C191.573 136.9 190.011 140.876 190.011 145.847C190.011 150.533 191.573 154.509 194.413 157.634C197.396 160.758 201.088 162.32 205.632 162.32C207.62 162.32 209.609 162.036 211.455 161.468L208.046 168.853C207.478 168.853 206.768 168.995 206.2 168.995C202.792 168.995 199.668 168.426 196.828 167.29C193.987 166.154 191.431 164.592 189.301 162.462C187.029 160.332 185.467 157.776 184.331 154.935C183.052 152.095 182.484 148.971 182.484 145.705C182.484 142.58 183.052 139.456 184.331 136.616C185.467 133.776 187.171 131.361 189.301 129.089C191.431 126.959 193.987 125.397 196.828 124.261C199.668 123.125 202.792 122.557 206.058 122.557C208.615 122.557 211.171 122.983 213.443 123.693C215.857 124.403 218.129 125.539 220.26 127.101L219.975 134.344ZM219.833 160.19V164.876C218.981 165.444 217.987 166.012 216.993 166.58L219.833 160.19Z" fill="black"/>
<path d="M169.422 167.716V123.551H176.664V167.716H169.422Z" fill="black"/>
<path d="M126.676 167.716V123.551H136.333C142.723 123.551 147.125 123.977 149.682 124.545C152.238 125.255 154.51 126.249 156.356 127.669C158.912 129.657 160.901 132.213 162.179 135.196C163.599 138.32 164.167 141.87 164.167 145.705C164.167 149.681 163.599 153.089 162.179 156.214C160.901 159.196 158.912 161.61 156.356 163.598C154.51 165.16 152.238 166.154 149.824 166.864C147.41 167.432 143.575 167.716 138.321 167.716H136.333H126.676ZM133.918 161.326H139.883C143.149 161.326 145.705 161.042 147.41 160.616C148.972 160.19 150.392 159.48 151.67 158.344C153.374 156.924 154.652 155.219 155.504 153.089C156.214 150.959 156.64 148.403 156.64 145.705C156.64 142.864 156.214 140.308 155.504 138.178C154.652 136.19 153.374 134.344 151.67 132.924C150.392 131.929 148.972 131.077 147.267 130.651C145.421 130.225 142.723 130.083 139.031 130.083H136.475H133.918V161.326Z" fill="black"/>
<path d="M93.8711 167.716V123.551H118.439V129.657H100.972V140.734H118.439V147.125H100.972V161.326H118.439V167.716H93.8711Z" fill="black"/>
<path d="M76.5462 145.989C76.4042 145.563 76.2622 144.711 76.1202 143.149C75.9782 141.871 75.8361 140.735 75.6941 139.883C75.5521 140.877 75.2681 141.871 74.9841 143.007C74.558 144.001 74.132 144.995 73.706 145.989L62.203 169.563L50.558 145.563C50.132 144.569 49.706 143.575 49.2799 142.723C48.9959 141.729 48.7119 140.877 48.4279 139.883C48.4279 140.877 48.2859 141.871 48.1438 142.865C48.0018 143.859 47.8598 144.853 47.5758 145.989L42.8894 167.717H36.2148L46.7237 121.705L59.6468 149.539C59.9308 150.107 60.2148 150.818 60.6409 151.812C61.0669 152.806 61.493 154.084 62.203 155.646C62.487 154.368 63.1971 152.806 64.1912 150.817C64.3332 150.249 64.4752 149.823 64.6172 149.539L77.3983 121.705L88.0492 167.717H81.3746L76.5462 145.989Z" fill="black"/>
<path fill-rule="evenodd" clip-rule="evenodd" d="M133.063 34.3672H155.075V54.2488L171.975 42.8879L184.614 60.2133L163.17 74.5565L184.614 89.0417L171.975 106.367L155.075 95.0062V114.888H133.063V95.0062L116.022 106.367L103.383 89.0417L124.827 74.5565L103.383 60.2133L116.022 42.8879L133.063 54.2488V34.3672Z" fill="black"/>
<path fill-rule="evenodd" clip-rule="evenodd" d="M135.337 62.6274C135.195 64.0475 135.479 65.3256 136.047 66.7457C136.331 67.5978 136.899 68.4498 137.609 68.8759C138.177 69.3019 138.887 69.0179 139.313 69.4439L139.597 69.87C139.597 70.296 139.313 71.0061 139.739 71.4321C139.739 71.4321 139.739 71.5741 139.881 71.5741L140.591 71.1481C140.875 71.1481 141.301 71.2901 141.585 71.0061C141.728 70.864 141.585 70.438 141.443 70.154C141.159 69.87 140.733 69.87 140.591 69.5859C140.165 69.3019 140.023 68.7339 140.307 68.3078C140.733 67.8818 140.733 67.1717 140.591 66.6037C140.023 65.3256 138.461 64.6155 138.745 63.0534C139.029 58.509 142.58 58.225 142.722 58.367L143.148 70.864C143.148 71.2901 137.041 75.8345 139.881 80.2368C140.733 81.5149 143.148 83.3611 143.148 83.6451L143.574 92.1658C143.574 92.4498 142.438 93.5859 142.296 93.87C141.301 95.2901 141.017 96.8522 142.154 98.5564C143.006 99.9765 144.284 100.687 144.284 100.829L144.426 104.663H144.994L145.136 101.113C145.136 101.113 147.408 101.681 147.834 100.971C147.976 100.829 147.834 100.403 147.834 100.403C147.408 100.118 146.698 100.403 145.846 100.118C145.278 99.9765 145.278 99.8345 145.278 99.8345V93.5859C145.278 93.3019 147.55 91.5978 148.402 89.7516C149.964 86.4853 148.402 83.3611 145.846 81.2309L145.988 72.9942C147.976 71.4321 154.225 67.1717 152.662 59.6451C150.674 54.2487 146.556 54.1066 146.556 53.9646V51.8345C147.408 51.1244 147.834 50.1303 147.834 48.9942C147.834 47.1481 146.414 45.5859 144.568 45.5859C142.58 45.5859 141.159 47.1481 141.159 48.9942C141.159 50.1303 141.728 51.2664 142.58 51.8345L142.722 53.9646C142.722 53.8226 137.609 55.2427 136.047 59.5031C135.621 60.4972 135.479 61.6333 135.337 62.6274ZM143.148 79.9528V75.6924C143.148 75.6924 142.296 76.2605 142.012 77.2546C141.87 78.5327 143.148 79.9528 143.148 79.9528ZM144.142 98.9824V94.438C144.142 94.438 143.006 95.2901 143.148 97.1362C143.148 97.1362 143.29 97.7043 143.574 98.1303C143.858 98.5563 144.142 98.9824 144.142 98.9824ZM145.278 91.0297C145.704 90.3197 146.556 89.3256 146.698 87.7635C146.84 86.7694 145.846 85.0652 145.278 84.6392V91.0297ZM145.846 68.4498C147.266 67.3137 148.402 65.8936 148.828 64.1895C149.68 58.793 146.13 57.941 146.13 58.367L145.846 68.4498Z" fill="black"/>
<path d="M225.8 218.272L220.829 206.911H203.362L198.249 218.272H190.723L212.024 172.402L233.468 218.272H225.8ZM206.06 200.947H218.273L213.871 190.864C213.587 190.154 213.303 189.444 213.019 188.592C212.734 187.74 212.45 186.888 212.166 185.751C211.882 186.746 211.598 187.74 211.314 188.592C211.03 189.302 210.888 190.154 210.604 190.864L206.06 200.947Z" fill="black"/>
<path d="M182.344 218.273V174.107H189.444V218.273H182.344Z" fill="black"/>
<path d="M154.225 198.533V218.273H147.551V174.107H157.634C160.474 174.107 162.746 174.249 164.45 174.675C166.012 175.102 167.432 175.67 168.569 176.522C169.989 177.658 170.983 179.078 171.693 180.64C172.545 182.344 172.829 184.19 172.829 186.32C172.829 189.729 171.977 192.569 170.273 194.557C168.569 196.545 166.012 197.823 162.746 198.107L177.941 218.273H169.847L155.077 198.533H154.225ZM154.793 192.853H156.071C159.906 192.853 162.32 192.427 163.598 191.575C164.876 190.723 165.444 189.161 165.444 186.888C165.444 184.474 164.876 182.77 163.456 181.776C162.178 180.782 159.622 180.214 156.071 180.214H154.793V192.853Z" fill="black"/>
<path d="M114.746 218.273V174.107H139.314V180.214H121.847V191.291H139.314V197.539H121.847V211.883H139.314V218.273H114.746Z" fill="black"/>
<path d="M79.1016 218.273V174.107H90.1785C93.4448 174.107 95.7169 174.249 97.2791 174.675C98.8412 174.959 100.119 175.528 101.113 176.238C102.534 177.374 103.528 178.652 104.38 180.214C105.09 181.918 105.516 183.622 105.516 185.61C105.516 188.025 104.948 190.013 103.812 191.575C102.676 193.137 101.113 194.273 99.1252 194.841C101.681 195.267 103.67 196.403 105.232 198.391C106.652 200.238 107.362 202.794 107.362 205.634C107.362 207.48 107.078 209.184 106.51 210.746C105.8 212.451 104.948 213.729 103.812 214.865C102.534 216.143 101.113 216.995 99.2672 217.563C97.5631 217.989 94.4388 218.273 90.3205 218.273H79.1016ZM86.0601 212.309H88.6163C91.1726 212.309 93.0187 212.167 94.2968 211.883C95.4329 211.741 96.427 211.457 97.1371 210.888C98.1311 210.32 98.6992 209.468 99.2672 208.616C99.6933 207.622 99.9773 206.486 99.9773 205.35C99.9773 203.93 99.6933 202.652 99.1252 201.658C98.5572 200.522 97.7051 199.67 96.569 199.102C95.859 198.817 95.1489 198.533 94.2968 198.391C93.4448 198.249 92.1666 198.107 90.7465 198.107H88.6163H86.0601V212.309ZM86.0601 192.711H88.9004C92.3087 192.711 94.7229 192.285 96.143 191.291C97.5631 190.439 98.2732 188.877 98.2732 186.604C98.2732 184.19 97.5631 182.486 96.285 181.492C95.0069 180.498 92.4507 180.072 88.9004 180.072H86.0601V192.711Z" fill="black"/>
<path d="M61.6328 218.273V174.107H68.7334V218.273H61.6328Z" fill="black"/>
<path d="M247.528 168.284L242.415 156.923H224.948L219.835 168.284H212.309L233.752 122.414L255.054 168.284H247.528ZM227.646 150.958H240.001L235.457 140.876C235.173 140.166 234.888 139.455 234.604 138.603C234.32 137.751 234.036 136.899 233.752 135.905C233.468 136.757 233.326 137.751 233.042 138.603C232.758 139.455 232.474 140.166 232.19 140.876L227.646 150.958Z" fill="black"/>
<path fill-rule="evenodd" clip-rule="evenodd" d="M144 73.5625C217.278 73.5625 276.639 113.894 276.639 163.598C276.639 213.302 217.278 253.633 144 253.633C70.7219 253.633 11.3609 213.302 11.3609 163.598C11.3609 113.894 70.7219 73.5625 144 73.5625ZM144 73.5625C223.527 73.5625 288 112.332 288 160.19C288 208.048 223.527 246.817 144 246.817C64.4734 246.817 0 208.048 0 160.19C0 112.332 64.4734 73.5625 144 73.5625Z" fill="black"/>
<path d="M132.355 237.302L133.35 236.734C133.492 237.16 133.634 237.444 133.918 237.586C134.202 237.87 134.628 237.87 135.054 237.87C135.48 237.87 135.764 237.87 136.048 237.586C136.19 237.302 136.332 237.018 136.332 236.734C136.332 236.166 135.906 235.74 135.196 235.314C135.054 235.314 134.912 235.314 134.912 235.172C133.918 234.746 133.35 234.32 133.066 234.036C132.639 233.61 132.497 233.184 132.497 232.616C132.497 231.906 132.782 231.48 133.208 231.054C133.776 230.628 134.344 230.344 135.054 230.344C135.764 230.344 136.19 230.486 136.616 230.77C137.042 230.912 137.326 231.338 137.468 231.764L136.474 232.332C136.332 232.048 136.048 231.906 135.906 231.764C135.622 231.622 135.48 231.48 135.196 231.48C134.77 231.48 134.486 231.622 134.344 231.764C134.06 232.048 133.918 232.332 133.918 232.616C133.918 233.042 134.486 233.61 135.48 234.036C135.48 234.036 135.48 234.036 135.622 234.036C136.474 234.462 137.042 234.888 137.326 235.172C137.61 235.598 137.752 236.024 137.752 236.592C137.752 237.444 137.468 238.012 137.042 238.438C136.474 239.006 135.764 239.148 134.912 239.148C134.202 239.148 133.634 239.006 133.208 238.722C132.782 238.296 132.497 237.87 132.355 237.302ZM139.172 238.296C139.172 238.154 139.172 237.87 139.314 237.728C139.456 237.586 139.598 237.586 139.882 237.586C140.024 237.586 140.308 237.586 140.45 237.728C140.592 237.87 140.592 238.154 140.592 238.296C140.592 238.58 140.592 238.722 140.45 238.864C140.308 239.006 140.024 239.006 139.882 239.006C139.598 239.006 139.456 239.006 139.314 238.864C139.172 238.722 139.172 238.58 139.172 238.296ZM144 234.178H144.284C144.995 234.178 145.421 234.036 145.705 233.894C145.847 233.752 145.989 233.468 145.989 233.042C145.989 232.474 145.847 232.19 145.705 232.048C145.421 231.764 144.853 231.764 144.284 231.764H144V234.178ZM143.858 235.172V239.006H142.58V230.486H144.568C145.137 230.486 145.563 230.628 145.847 230.628C146.131 230.77 146.415 230.912 146.557 231.054C146.841 231.196 147.125 231.48 147.267 231.764C147.409 232.19 147.409 232.474 147.409 232.9C147.409 233.468 147.267 234.036 146.983 234.462C146.557 234.888 146.131 235.03 145.421 235.172L148.403 239.006H146.841L144 235.172H143.858ZM149.255 238.296C149.255 238.154 149.397 237.87 149.539 237.728C149.681 237.586 149.823 237.586 149.965 237.586C150.249 237.586 150.391 237.586 150.533 237.728C150.675 237.87 150.817 238.154 150.817 238.296C150.817 238.58 150.675 238.722 150.533 238.864C150.391 239.006 150.249 239.006 149.965 239.006C149.823 239.006 149.681 239.006 149.539 238.864C149.397 238.722 149.255 238.58 149.255 238.296ZM159.906 234.746C159.906 234.32 159.906 233.894 159.764 233.61C159.622 233.184 159.338 232.9 159.054 232.474C158.77 232.19 158.486 232.048 158.06 231.906C157.634 231.764 157.35 231.622 156.924 231.622C156.497 231.622 156.071 231.622 155.645 231.906C155.361 232.048 154.935 232.19 154.651 232.474C154.367 232.758 154.225 233.184 154.083 233.61C153.941 233.894 153.799 234.32 153.799 234.746C153.799 235.172 153.941 235.598 154.083 236.024C154.225 236.308 154.367 236.734 154.651 237.018C154.935 237.302 155.361 237.586 155.645 237.728C156.071 237.87 156.497 237.87 156.924 237.87C157.35 237.87 157.634 237.87 158.06 237.728C158.486 237.586 158.77 237.302 159.054 237.018C159.338 236.734 159.622 236.308 159.764 236.024C159.906 235.598 159.906 235.172 159.906 234.746ZM161.326 234.746C161.326 235.314 161.326 235.882 161.042 236.45C160.758 237.018 160.474 237.444 160.048 237.87C159.622 238.296 159.196 238.58 158.628 238.864C158.06 239.006 157.492 239.148 156.924 239.148C156.355 239.148 155.645 239.006 155.219 238.864C154.651 238.58 154.083 238.296 153.657 237.87C153.231 237.444 152.947 237.018 152.663 236.45C152.521 235.882 152.379 235.314 152.379 234.746C152.379 234.178 152.521 233.61 152.663 233.042C152.947 232.474 153.231 232.048 153.657 231.622C154.083 231.196 154.651 230.912 155.219 230.628C155.645 230.486 156.213 230.344 156.924 230.344C157.492 230.344 158.06 230.486 158.628 230.628C159.196 230.912 159.622 231.196 160.048 231.622C160.474 232.048 160.758 232.474 161.042 233.042C161.326 233.61 161.326 234.178 161.326 234.746ZM162.462 238.296C162.462 238.154 162.604 237.87 162.746 237.728C162.888 237.586 163.03 237.586 163.314 237.586C163.456 237.586 163.74 237.586 163.882 237.728C164.024 237.87 164.024 238.154 164.024 238.296C164.024 238.58 164.024 238.722 163.882 238.864C163.74 239.006 163.456 239.006 163.314 239.006C163.03 239.006 162.888 239.006 162.746 238.864C162.604 238.722 162.462 238.58 162.462 238.296Z" fill="black"/>
</g>
</g>
<defs>
<clipPath id="clip0_1026_1766">
<rect width="288" height="288" fill="white"/>
</clipPath>
<clipPath id="clip1_1026_1766">
<rect width="288" height="288" fill="white"/>
</clipPath>
</defs>
</svg>
