<svg width="288" height="288" viewBox="0 0 288 288" fill="none" xmlns="http://www.w3.org/2000/svg">
<g clip-path="url(#clip0_1026_1745)">
<path fill-rule="evenodd" clip-rule="evenodd" d="M126.488 169.904H132.889L134.881 165.885H146.709L148.7 169.904H155.102L143.992 148.673H137.598L126.488 169.904ZM136.936 161.739H144.682L140.827 153.929L136.936 161.739ZM102.149 169.904H107.875V163.197H117.391C118.956 163.197 120.293 163.012 121.381 162.649C122.477 162.294 123.359 161.796 124.049 161.148C124.731 160.508 125.229 159.74 125.535 158.844C125.848 157.969 125.997 157.009 126.004 155.97V155.871C125.997 154.832 125.848 153.872 125.535 152.997C125.236 152.116 124.731 151.347 124.049 150.707C123.359 150.06 122.477 149.562 121.381 149.206C120.293 148.858 118.963 148.673 117.398 148.673H102.149V169.904ZM120.215 156.013C120.215 155.515 120.144 155.096 120.001 154.74C119.866 154.377 119.632 154.093 119.319 153.865C118.999 153.638 118.579 153.467 118.06 153.36C117.548 153.254 116.915 153.197 116.161 153.197H107.875V158.673H116.161C116.915 158.673 117.548 158.631 118.06 158.538C118.579 158.453 118.999 158.303 119.319 158.09C119.632 157.884 119.866 157.606 120.001 157.265C120.144 156.931 120.215 156.504 120.215 156.013ZM43.3143 148.14H43.2148H43.1081C40.9388 148.147 38.9686 148.381 37.2118 148.858C35.4266 149.335 33.9045 150.046 32.6456 150.978C31.3938 151.916 30.4193 153.083 29.7437 154.484C29.0609 155.871 28.7266 157.478 28.7266 159.306C28.7266 161.127 29.0609 162.734 29.7437 164.129C30.4193 165.53 31.3938 166.689 32.6456 167.628C33.9045 168.567 35.4266 169.271 37.2118 169.755C38.9686 170.224 40.9388 170.466 43.1081 170.473H43.2148H43.3143C45.4908 170.466 47.4467 170.224 49.1964 169.755C50.9745 169.271 52.4824 168.567 53.7342 167.628C54.9718 166.689 55.9319 165.53 56.6005 164.129C57.2762 162.734 57.6034 161.127 57.6034 159.306C57.6034 157.478 57.2762 155.871 56.6005 154.484C55.9319 153.083 54.9718 151.916 53.7342 150.978C52.4824 150.046 50.9745 149.335 49.1964 148.858C47.4467 148.381 45.4908 148.147 43.3143 148.14ZM51.8138 159.306C51.8138 158.51 51.6929 157.727 51.4368 156.931C51.1808 156.148 50.7327 155.437 50.0926 154.811C49.4524 154.178 48.5776 153.673 47.4609 153.275C46.3514 152.891 44.9289 152.692 43.2148 152.692C42.0554 152.692 41.0454 152.784 40.1706 152.962C39.2958 153.14 38.5347 153.396 37.9017 153.709C37.2616 154.036 36.721 154.406 36.2872 154.832C35.8604 155.259 35.5119 155.722 35.2559 156.212C34.9998 156.696 34.8149 157.208 34.7082 157.742C34.5944 158.268 34.5446 158.787 34.5446 159.306C34.5446 159.833 34.5944 160.359 34.7082 160.892C34.8149 161.433 34.9998 161.945 35.2559 162.429C35.5119 162.919 35.8604 163.382 36.2872 163.801C36.721 164.221 37.2616 164.591 37.9017 164.904C38.5347 165.217 39.2958 165.466 40.1706 165.644C41.0454 165.828 42.0554 165.914 43.2148 165.914C44.9289 165.914 46.3514 165.722 47.4609 165.331C48.5776 164.932 49.4524 164.427 50.0926 163.801C50.7327 163.168 51.1808 162.464 51.4368 161.675C51.6929 160.885 51.8138 160.096 51.8138 159.306ZM109.717 118.061H109.667H96.2172V139.285H109.688C110.855 139.285 111.971 139.213 113.045 139.064C114.112 138.915 115.115 138.673 116.047 138.346C116.972 138.019 117.811 137.578 118.572 137.03C119.326 136.489 119.973 135.821 120.514 135.038C121.061 134.256 121.474 133.338 121.773 132.279C122.078 131.226 122.221 130.017 122.221 128.658C122.221 127.314 122.078 126.112 121.773 125.059C121.474 124.007 121.061 123.089 120.514 122.3C119.973 121.517 119.326 120.849 118.565 120.308C117.797 119.775 116.95 119.334 116.018 119.007C115.087 118.672 114.091 118.438 113.01 118.281C111.957 118.139 110.862 118.068 109.717 118.061ZM116.431 128.658C116.431 127.641 116.303 126.759 116.04 126.005C115.777 125.244 115.35 124.633 114.774 124.142C114.191 123.651 113.437 123.288 112.498 123.047C111.559 122.805 110.414 122.677 109.07 122.677H101.95V134.669H109.07C110.414 134.669 111.559 134.548 112.498 134.306C113.437 134.064 114.191 133.694 114.774 133.196C115.35 132.691 115.777 132.072 116.04 131.319C116.303 130.565 116.431 129.676 116.431 128.658ZM81.4303 118.061H81.3592H66.999V139.285H72.7246V131.475H78.9836L85.4062 139.285H92.1062L85.1573 130.906C85.7903 130.685 86.3877 130.415 86.9496 130.081C87.5186 129.754 88.0094 129.348 88.4432 128.872C88.87 128.388 89.2043 127.819 89.4603 127.143C89.7093 126.475 89.8373 125.7 89.8373 124.796C89.8373 123.779 89.6879 122.855 89.3821 122.03C89.0763 121.197 88.5855 120.486 87.9098 119.903C87.2412 119.313 86.3593 118.857 85.2853 118.544C84.2255 118.224 82.9453 118.068 81.4303 118.061ZM84.0477 124.768C84.0477 124.355 83.9979 124.007 83.8841 123.715C83.7774 123.424 83.5925 123.189 83.3222 123.004C83.052 122.826 82.6963 122.698 82.2482 122.62C81.8002 122.535 81.2454 122.492 80.5768 122.492H72.7246V127.044H80.5768C81.2454 127.044 81.8002 127.001 82.2482 126.916C82.6963 126.838 83.052 126.71 83.3222 126.532C83.5925 126.347 83.7774 126.112 83.8841 125.821C83.9979 125.529 84.0477 125.18 84.0477 124.768ZM47.2831 139.861H47.3827H47.4894C49.6587 139.846 51.6146 139.612 53.3643 139.142C55.1424 138.659 56.6503 137.954 57.9021 137.016C59.1468 136.077 60.107 134.91 60.7756 133.516C61.4441 132.122 61.7713 130.515 61.7713 128.694C61.7713 126.866 61.4441 125.259 60.7756 123.865C60.107 122.471 59.1468 121.304 57.9021 120.365C56.6503 119.426 55.1424 118.722 53.3643 118.239C51.5862 117.762 49.5947 117.527 47.3827 117.527C45.1707 117.527 43.1721 117.762 41.3868 118.239C39.5945 118.722 38.0724 119.426 36.8206 120.365C35.5617 121.304 34.5944 122.471 33.9116 123.865C33.2359 125.259 32.8945 126.866 32.8945 128.694C32.8945 130.515 33.2359 132.122 33.9116 133.516C34.5944 134.91 35.5617 136.077 36.8206 137.016C38.0724 137.954 39.5945 138.659 41.3868 139.142C43.1436 139.612 45.1067 139.846 47.2831 139.861ZM55.9888 128.694C55.9888 127.897 55.8608 127.108 55.6048 126.318C55.3558 125.529 54.9077 124.825 54.2605 124.192C53.6204 123.566 52.7455 123.061 51.6289 122.663C50.5193 122.271 49.1039 122.079 47.3827 122.079C46.2305 122.079 45.2134 122.172 44.3385 122.35C43.4637 122.527 42.7098 122.783 42.0696 123.096C41.4295 123.417 40.8961 123.793 40.4622 124.22C40.0284 124.647 39.687 125.102 39.4238 125.593C39.1677 126.084 38.9828 126.589 38.8761 127.129C38.7694 127.648 38.7196 128.175 38.7196 128.694C38.7196 129.22 38.7694 129.747 38.8761 130.28C38.9828 130.814 39.1677 131.333 39.4238 131.816C39.687 132.307 40.0284 132.769 40.4622 133.189C40.8961 133.609 41.4295 133.979 42.0696 134.292C42.7098 134.604 43.4637 134.853 44.3385 135.031C45.2134 135.209 46.2305 135.302 47.3827 135.302C49.1039 135.302 50.5193 135.109 51.6289 134.718C52.7455 134.32 53.6204 133.815 54.2605 133.189C54.9077 132.556 55.3558 131.852 55.6048 131.062C55.8608 130.273 55.9888 129.483 55.9888 128.694Z" fill="black"/>
<path fill-rule="evenodd" clip-rule="evenodd" d="M199.058 169.905H204.784V161.235L215.068 148.674H208.646L201.939 157.216L195.203 148.674H188.773L199.058 161.235V169.905Z" fill="black"/>
<path fill-rule="evenodd" clip-rule="evenodd" d="M158.574 169.905H164.3V155.317L178.617 169.905H184.827V148.674H179.129V163.326L164.798 148.674H158.574V169.905Z" fill="black"/>
<path fill-rule="evenodd" clip-rule="evenodd" d="M62.832 169.905H68.5576V154.99L76.4312 169.905H81.9363L89.8098 154.99V169.905H95.5069V148.674H87.7543L79.1837 164.741L70.6131 148.674H62.832V169.905Z" fill="black"/>
<path fill-rule="evenodd" clip-rule="evenodd" d="M287.999 118.061H264.25V122.677H273.254V139.284H278.98V122.677H287.999V118.061Z" fill="black"/>
<path fill-rule="evenodd" clip-rule="evenodd" d="M249.813 139.861H250.026C250.801 139.854 251.605 139.825 252.451 139.775C253.34 139.733 254.229 139.619 255.097 139.455C255.972 139.292 256.804 139.057 257.594 138.751C258.39 138.445 259.087 138.04 259.685 137.535C260.289 137.037 260.773 136.418 261.129 135.686C261.491 134.953 261.676 134.078 261.676 133.061C261.676 132.264 261.52 131.56 261.207 130.942C260.901 130.323 260.474 129.775 259.948 129.306C259.407 128.836 258.788 128.417 258.07 128.061C257.359 127.705 256.605 127.392 255.808 127.129C255.012 126.859 254.187 126.624 253.34 126.425C252.487 126.226 251.669 126.041 250.865 125.87C250.069 125.7 249.315 125.529 248.603 125.372C247.892 125.216 247.273 125.045 246.733 124.86C246.199 124.683 245.78 124.476 245.467 124.249C245.161 124.014 245.004 123.744 245.004 123.438C245.004 123.338 245.019 123.239 245.054 123.125C245.097 123.011 245.175 122.897 245.303 122.783C245.424 122.67 245.602 122.563 245.829 122.456C246.064 122.343 246.377 122.25 246.768 122.172C247.174 122.086 247.657 122.015 248.241 121.973C248.824 121.916 249.521 121.894 250.353 121.894C251.377 121.894 252.38 121.966 253.362 122.115C254.343 122.264 255.239 122.449 256.079 122.67C256.911 122.89 257.658 123.125 258.319 123.374C258.981 123.623 259.507 123.843 259.905 124.035V119.128C259.237 118.914 258.511 118.708 257.722 118.509C256.932 118.317 256.121 118.139 255.275 117.997C254.429 117.847 253.575 117.734 252.707 117.648C251.832 117.57 250.986 117.527 250.168 117.527C249.414 117.527 248.618 117.556 247.785 117.62C246.953 117.677 246.128 117.798 245.317 117.954C244.507 118.125 243.731 118.352 242.992 118.651C242.259 118.957 241.612 119.341 241.043 119.818C240.488 120.294 240.04 120.877 239.713 121.56C239.386 122.229 239.222 123.018 239.215 123.936V124.021C239.222 124.796 239.371 125.486 239.677 126.077C239.983 126.674 240.41 127.207 240.943 127.67C241.477 128.125 242.095 128.523 242.814 128.858C243.525 129.192 244.279 129.483 245.068 129.732C245.865 129.988 246.69 130.209 247.536 130.394C248.376 130.579 249.201 130.75 249.997 130.913C250.794 131.07 251.548 131.233 252.259 131.39C252.97 131.546 253.589 131.724 254.123 131.916C254.663 132.108 255.083 132.328 255.389 132.585C255.702 132.826 255.851 133.132 255.851 133.466C255.851 133.687 255.773 133.907 255.623 134.149C255.467 134.384 255.175 134.604 254.741 134.804C254.308 135.01 253.71 135.166 252.942 135.294C252.181 135.43 251.185 135.494 249.976 135.494C247.913 135.494 245.986 135.266 244.179 134.825C242.373 134.384 240.765 133.772 239.35 132.99L239.343 138.054C240.708 138.566 242.287 139 244.08 139.341C245.844 139.676 247.75 139.854 249.813 139.861Z" fill="black"/>
<path fill-rule="evenodd" clip-rule="evenodd" d="M234.605 118.061H213.125V139.284H234.825V134.761H219.007V130.621H233.808V126.098H219.007V122.584H234.605V118.061Z" fill="black"/>
<path fill-rule="evenodd" clip-rule="evenodd" d="M209.656 118.061H203.255L195.552 134.035L187.828 118.061H181.434L192.166 139.284H198.838L209.656 118.061Z" fill="black"/>
<path fill-rule="evenodd" clip-rule="evenodd" d="M177.955 139.284V118.061H172.265V132.705L157.927 118.061H151.703V139.284H157.429V124.704L171.746 139.284H177.955Z" fill="black"/>
<path fill-rule="evenodd" clip-rule="evenodd" d="M145.054 118.061H139.328V139.284H145.054V118.061Z" fill="black"/>
<path fill-rule="evenodd" clip-rule="evenodd" d="M24.8013 168.445V163.288C24.211 163.616 23.5993 163.943 22.9521 164.256C22.2977 164.569 21.5794 164.846 20.8041 165.095C20.0146 165.344 19.154 165.543 18.2223 165.692C17.2834 165.842 16.2236 165.913 15.0572 165.913C13.8481 165.913 12.7883 165.827 11.8637 165.664C10.9462 165.486 10.1353 165.258 9.44542 164.953C8.75551 164.661 8.17939 164.298 7.71708 163.893C7.25477 163.48 6.8778 163.032 6.5933 162.542C6.30169 162.051 6.10254 161.532 5.97451 160.984C5.8536 160.429 5.78959 159.867 5.78959 159.305C5.78959 158.452 5.93184 157.62 6.22345 156.823C6.50795 156.026 7.00583 155.315 7.71708 154.704C8.42833 154.085 9.3743 153.587 10.5692 153.217C11.757 152.847 13.2506 152.662 15.0572 152.662C16.2236 152.662 17.2834 152.74 18.2223 152.897C19.154 153.061 20.0146 153.267 20.8041 153.523C21.5794 153.772 22.2977 154.049 22.9521 154.369C23.5993 154.682 24.211 154.995 24.8013 155.315V150.159C24.0616 149.853 23.3148 149.575 22.5609 149.326C21.807 149.085 21.0317 148.864 20.228 148.686C19.4314 148.509 18.5779 148.366 17.6888 148.274C16.8282 148.188 15.9036 148.139 14.9221 148.139H14.8723H14.8225H14.7229C12.6034 148.146 10.6403 148.38 8.85508 148.836C7.03428 149.298 5.46952 149.995 4.16082 150.927C2.84501 151.851 1.82792 153.018 1.09533 154.419C0.362738 155.806 0 157.442 0 159.305C0 161.162 0.362738 162.798 1.09533 164.192C1.82792 165.586 2.84501 166.745 4.16082 167.684C5.46952 168.616 7.03428 169.313 8.85508 169.775C10.6403 170.23 12.6034 170.465 14.7229 170.472H14.8225H14.8723H14.9221C15.9036 170.465 16.8282 170.422 17.6888 170.33C18.5779 170.237 19.4314 170.102 20.228 169.924C21.0317 169.739 21.807 169.526 22.5609 169.277C23.3148 169.035 24.0616 168.758 24.8013 168.445Z" fill="black"/>
<path fill-rule="evenodd" clip-rule="evenodd" d="M27.6742 118.061H21.9842V132.705L7.65244 118.061H1.42188V139.284H7.14745V124.704L21.4649 139.284H27.6742V118.061Z" fill="black"/>
</g>
<defs>
<clipPath id="clip0_1026_1745">
<rect width="288" height="288" fill="white"/>
</clipPath>
</defs>
</svg>
