<svg width="326" height="147" viewBox="0 0 326 147" fill="none" xmlns="http://www.w3.org/2000/svg">
<path d="M294.648 44.625H306.4L315.512 78.0103H315.683V44.625H324.028V100.4H314.405L303.164 59.6842H302.994V100.4H294.648V44.625Z" fill="black"/>
<path d="M324.028 44.625H315.683V78.0107H315.513L306.4 44.625H294.648V100.399H302.994V59.6846H303.164L314.405 100.399H324.028V44.625ZM325.028 101.399H313.644L303.994 66.4473V101.399H293.648V43.625H307.164L314.683 71.1729V43.625H325.028V101.399Z" fill="black"/>
<path d="M263.711 44.625H289.258V52.5928H273.078V67.3333H285.937V75.3012H273.078V92.432H289.258V100.4H263.711V44.625Z" fill="black"/>
<path d="M289.259 92.4316H273.078V75.3008H285.938V67.333H273.078V52.5928H289.259V44.625H263.711V100.399H289.259V92.4316ZM290.259 53.5928H274.078V66.333H286.938V76.3008H274.078V91.4316H290.259V101.399H262.711V43.625H290.259V53.5928Z" fill="black"/>
<path d="M232.773 44.625H258.321V52.5928H242.141V67.3333H255V75.3012H242.141V92.432H258.321V100.4H232.773V44.625Z" fill="black"/>
<path d="M258.321 92.4316H242.141V75.3008H255V67.333H242.141V52.5928H258.321V44.625H232.773V100.399H258.321V92.4316ZM259.321 53.5928H243.141V66.333H256V76.3008H243.141V91.4316H259.321V101.399H231.773V43.625H259.321V53.5928Z" fill="black"/>
<path d="M198.43 44.625H212.31C217.136 44.625 220.656 45.6874 222.87 47.8121C225.084 49.8838 226.191 53.0975 226.191 57.4532V60.8794C226.191 66.6694 224.147 70.3346 220.06 71.875V72.0344C222.331 72.6718 223.92 73.9732 224.829 75.9386C225.794 77.904 226.276 80.5334 226.276 83.8268V93.6272C226.276 95.2208 226.333 96.5222 226.447 97.5315C226.56 98.4876 226.844 99.4437 227.298 100.4H217.761C217.42 99.4969 217.193 98.647 217.079 97.8502C216.966 97.0534 216.909 95.6192 216.909 93.5475V83.3487C216.909 80.799 216.455 79.0195 215.546 78.0103C214.695 77.001 213.19 76.4964 211.033 76.4964H207.797V100.4H198.43V44.625ZM211.203 68.5285C213.077 68.5285 214.468 68.077 215.376 67.174C216.341 66.271 216.824 64.7571 216.824 62.6323V58.3297C216.824 56.3112 216.426 54.8504 215.632 53.9474C214.894 53.0444 213.701 52.5928 212.055 52.5928H207.797V68.5285H211.203Z" fill="black"/>
<path d="M215.909 93.5479V83.3486C215.909 80.8548 215.452 79.4007 214.803 78.6797L214.793 78.667L214.782 78.6553C214.213 77.9811 213.079 77.4961 211.033 77.4961H208.797V101.399H197.43V43.625H212.311V44.625H198.43V100.399H207.797V76.4961H211.033C213.19 76.4961 214.695 77.0015 215.547 78.0107C216.455 79.0201 216.909 80.7994 216.909 83.3486V93.5479L216.92 94.9814C216.941 96.2963 216.994 97.253 217.079 97.8506C217.178 98.5476 217.366 99.2851 217.639 100.063L217.761 100.399H227.298C226.844 99.4435 226.56 98.4872 226.446 97.5312C226.361 96.7743 226.308 95.8531 226.287 94.7676L226.276 93.627V83.8271C226.276 80.5338 225.794 77.9039 224.829 75.9385C223.921 73.9731 222.33 72.6716 220.06 72.0342V71.875C224.019 70.3827 226.062 66.8964 226.186 61.416L226.191 60.8799V57.4531C226.191 53.0975 225.084 49.8841 222.87 47.8125C220.794 45.8206 217.571 44.7622 213.2 44.6377L212.311 44.625V43.625C217.246 43.625 221.07 44.706 223.553 47.082H223.554C226.045 49.4128 227.191 52.9435 227.191 57.4531V60.8799C227.191 63.8835 226.663 66.4307 225.532 68.458C224.737 69.8844 223.659 71.0212 222.316 71.8682C223.829 72.6865 224.979 73.8948 225.726 75.498H225.727C226.784 77.6522 227.276 80.4515 227.276 83.8271V93.627C227.276 95.198 227.332 96.4564 227.439 97.4131L227.484 97.7285C227.605 98.4647 227.841 99.2116 228.201 99.9707L228.881 101.399H217.069L216.825 100.753C216.464 99.7946 216.215 98.873 216.089 97.9912C215.964 97.1155 215.909 95.6155 215.909 93.5479ZM215.824 62.6318V58.3301C215.824 56.4022 215.437 55.24 214.881 54.6084L214.869 54.5947L214.857 54.5801C214.378 53.9938 213.53 53.5928 212.055 53.5928H208.797V67.5283H211.203V68.5283H207.797V52.5928H212.055C213.701 52.5928 214.894 53.0442 215.632 53.9473C216.427 54.8503 216.824 56.3116 216.824 58.3301V62.6318L216.818 63.0234C216.762 64.9439 216.281 66.3272 215.376 67.1738C214.468 68.0768 213.077 68.5283 211.203 68.5283V67.5283C212.934 67.5283 214.022 67.1103 214.671 66.4648L214.682 66.4541L214.693 66.4434C215.362 65.8176 215.824 64.6426 215.824 62.6318Z" fill="black"/>
<path d="M178.45 101.197C173.909 101.197 170.445 100.001 168.061 97.611C165.677 95.1676 164.484 91.6883 164.484 87.1732V57.8515C164.484 53.3364 165.677 49.8837 168.061 47.4933C170.445 45.0499 173.909 43.8281 178.45 43.8281C182.992 43.8281 186.455 45.0499 188.84 47.4933C191.224 49.8837 192.416 53.3364 192.416 57.8515V62.6322H183.56V57.2938C183.56 53.6286 181.942 51.796 178.706 51.796C175.47 51.796 173.852 53.6286 173.852 57.2938V87.8106C173.852 91.4227 175.47 93.2287 178.706 93.2287C181.942 93.2287 183.56 91.4227 183.56 87.8106V76.8947H178.876V68.9268H192.416V87.1732C192.416 91.6883 191.224 95.1676 188.84 97.611C186.455 100.001 182.992 101.197 178.45 101.197Z" fill="black"/>
<path d="M192.416 57.8516C192.416 53.3365 191.224 49.8835 188.84 47.4932C186.604 45.2024 183.421 43.9859 179.289 43.8428L178.45 43.8281C173.908 43.8281 170.445 45.0497 168.061 47.4932C165.676 49.8835 164.484 53.3365 164.484 57.8516V87.1729L164.498 88.0078C164.638 92.1192 165.825 95.3206 168.061 97.6113C170.296 99.8523 173.48 101.043 177.611 101.183L178.45 101.196C182.85 101.196 186.238 100.075 188.613 97.832L188.84 97.6113C191.075 95.3206 192.263 92.1193 192.402 88.0078L192.416 87.1729V68.9268H178.876V76.8945H183.56V87.8105L183.555 88.1436C183.457 91.5336 181.841 93.2284 178.706 93.2285V92.2285C180.14 92.2285 181.04 91.8338 181.602 91.207C182.182 90.5593 182.56 89.4879 182.56 87.8105V77.8945H177.876V67.9268H193.416V87.1729C193.416 91.862 192.175 95.6252 189.556 98.3096L189.548 98.3174C186.918 100.954 183.163 102.196 178.45 102.196C173.737 102.196 169.983 100.953 167.354 98.3174L167.346 98.3096C164.726 95.6252 163.484 91.8621 163.484 87.1729V57.8516C163.484 53.1638 164.726 49.4214 167.354 46.7871C169.982 44.099 173.736 42.8281 178.45 42.8281C183.165 42.8281 186.92 44.0987 189.548 46.7871L189.79 47.0371C192.252 49.656 193.416 53.3103 193.416 57.8516V63.6318H182.56V57.2939C182.56 55.587 182.18 54.4931 181.597 53.832C181.034 53.1948 180.135 52.7959 178.706 52.7959C177.277 52.7959 176.377 53.1947 175.814 53.832C175.231 54.4931 174.852 55.5871 174.852 57.2939V87.8105C174.852 89.4879 175.23 90.5593 175.811 91.207C176.372 91.8336 177.273 92.2285 178.706 92.2285V93.2285L178.407 93.2236C175.468 93.1178 173.951 91.4244 173.856 88.1436L173.852 87.8105V57.2939C173.852 53.6287 175.47 51.7959 178.706 51.7959L179.005 51.8018C182.042 51.9129 183.56 53.7435 183.56 57.2939V62.6318H192.416V57.8516Z" fill="black"/>
<path d="M132.018 101.197C127.477 101.197 124.042 100.001 121.714 97.611C119.386 95.1676 118.223 91.6883 118.223 87.1732V83.986H127.079V87.8106C127.079 91.4227 128.697 93.2287 131.933 93.2287C133.523 93.2287 134.715 92.8038 135.51 91.9539C136.361 91.0509 136.787 89.6166 136.787 87.6512C136.787 85.314 136.219 83.2689 135.084 81.516C133.949 79.71 131.848 77.5587 128.782 75.0621C124.922 71.8749 122.225 69.0065 120.692 66.4568C119.159 63.854 118.393 60.9324 118.393 57.6922C118.393 53.2833 119.585 49.8837 121.97 47.4933C124.354 45.0499 127.817 43.8281 132.359 43.8281C136.844 43.8281 140.222 45.0499 142.493 47.4933C144.82 49.8837 145.984 53.3364 145.984 57.8515V60.1622H137.128V57.2938C137.128 55.3815 136.73 54.0004 135.936 53.1505C135.141 52.2475 133.977 51.796 132.444 51.796C129.322 51.796 127.76 53.5755 127.76 57.1344C127.76 59.1529 128.328 61.0387 129.464 62.7916C130.656 64.5445 132.785 66.6693 135.85 69.1659C139.768 72.353 142.464 75.248 143.94 77.8508C145.417 80.4536 146.155 83.508 146.155 87.0138C146.155 91.5821 144.934 95.0879 142.493 97.5314C140.108 99.9748 136.617 101.197 132.018 101.197Z" fill="black"/>
<path d="M127.079 87.8105V83.9863H118.223V87.1729L118.236 88.0078C118.373 92.1193 119.532 95.3206 121.714 97.6113C123.896 99.8523 127.052 101.043 131.18 101.183L132.019 101.196C136.617 101.196 140.109 99.9747 142.493 97.5312C144.782 95.2406 145.998 92.0162 146.141 87.8584L146.154 87.0137C146.154 83.7269 145.506 80.8368 144.209 78.3438L143.94 77.8506C142.557 75.4104 140.1 72.7135 136.57 69.7598L135.851 69.166C132.785 66.6696 130.656 64.5448 129.464 62.792C128.399 61.1487 127.833 59.3884 127.767 57.5117L127.761 57.1348C127.761 53.5758 129.322 51.7959 132.444 51.7959L132.728 51.8008C134.121 51.8538 135.19 52.3039 135.936 53.1504C136.73 54.0003 137.128 55.3817 137.128 57.2939V60.1621H145.984V57.8516C145.984 53.3365 144.821 49.8835 142.493 47.4932C140.364 45.2023 137.262 43.9859 133.187 43.8428L132.359 43.8281C127.818 43.8281 124.354 45.0498 121.97 47.4932C119.585 49.8835 118.393 53.2835 118.393 57.6924L118.402 58.2959C118.492 61.2963 119.255 64.0169 120.692 66.457C122.225 69.0067 124.922 71.8755 128.782 75.0625C131.848 77.5589 133.949 79.7097 135.084 81.5156C136.219 83.2686 136.787 85.3141 136.787 87.6514L136.782 88.0137C136.732 89.7939 136.308 91.1075 135.51 91.9541C134.715 92.8038 133.523 93.2284 131.934 93.2285V92.2285C133.351 92.2284 134.235 91.8525 134.779 91.2705L134.782 91.2676L134.893 91.1426C135.43 90.4887 135.787 89.3881 135.787 87.6514C135.787 85.4834 135.263 83.6317 134.245 82.0596L134.237 82.0479C133.19 80.3819 131.191 78.3137 128.15 75.8379L128.146 75.833C124.492 72.817 121.807 70.033 120.152 67.4795L119.83 66.9639C118.2 64.1963 117.393 61.0974 117.393 57.6924C117.393 53.103 118.638 49.4172 121.262 46.7871C123.89 44.0988 127.645 42.8281 132.359 42.8281C137.022 42.8282 140.707 44.1024 143.226 46.8125H143.225C145.78 49.4468 146.984 53.1797 146.984 57.8516V61.1621H136.128V57.2939C136.128 55.4818 135.744 54.4107 135.205 53.834L135.195 53.8223L135.185 53.8115C134.629 53.1804 133.774 52.7959 132.444 52.7959C131.074 52.7959 130.217 53.1804 129.683 53.79C129.126 54.4246 128.761 55.4798 128.761 57.1348C128.761 58.9511 129.267 60.6471 130.299 62.2422C131.41 63.8712 133.446 65.9186 136.481 68.3906L137.21 68.9912C140.784 71.982 143.343 74.7695 144.811 77.3574L145.096 77.8838C146.478 80.5404 147.154 83.5929 147.154 87.0137C147.154 91.7584 145.883 95.5528 143.2 98.2383L143.199 98.2373C140.569 100.927 136.785 102.196 132.019 102.196C127.454 102.196 123.808 101.031 121.242 98.5527L120.99 98.3008C118.432 95.6157 117.223 91.8559 117.223 87.1729V82.9863H128.079V87.8105C128.079 89.4878 128.457 90.5593 129.037 91.207C129.599 91.8338 130.5 92.2285 131.934 92.2285V93.2285L131.635 93.2236C128.696 93.1179 127.179 91.4244 127.084 88.1436L127.079 87.8105Z" fill="black"/>
<path d="M86.6562 44.625H100.452C105.107 44.625 108.599 45.7936 110.926 48.1309C113.254 50.4681 114.418 53.8943 114.418 58.4094V63.9072C114.418 68.4223 113.254 71.8485 110.926 74.1857C108.599 76.5229 105.107 77.6915 100.452 77.6915H96.0237V100.4H86.6562V44.625ZM100.452 69.7237C101.985 69.7237 103.12 69.3253 103.858 68.5285C104.653 67.7317 105.05 66.3772 105.05 64.4649V57.8516C105.05 55.9393 104.653 54.5848 103.858 53.788C103.12 52.9912 101.985 52.5928 100.452 52.5928H96.0237V69.7237H100.452Z" fill="black"/>
<path d="M114.418 63.9072V58.4092C114.418 54.0355 113.326 50.6836 111.142 48.3535L110.927 48.1309C108.745 45.9398 105.539 44.7757 101.312 44.6387L100.452 44.625V43.625C105.262 43.625 109.054 44.8332 111.635 47.4248L111.872 47.6709C114.284 50.2437 115.418 53.8756 115.418 58.4092V63.9072C115.418 68.4408 114.284 72.0727 111.872 74.6455L111.635 74.8916C109.054 77.4832 105.262 78.6914 100.452 78.6914H97.0234V101.399H85.6562V43.625H100.452V44.625H86.6562V100.399H96.0234V77.6914H100.452L101.312 77.6777C105.398 77.5453 108.53 76.4533 110.705 74.4014L110.927 74.1855C113.109 71.9944 114.268 68.8462 114.404 64.7412L114.418 63.9072ZM104.051 64.4648V57.8516C104.051 56.0306 103.664 55.0087 103.15 54.4941L103.137 54.4814L103.125 54.4678C102.643 53.9479 101.824 53.5928 100.452 53.5928H97.0234V68.7236H100.452V69.7236H96.0234V52.5928H100.452C101.985 52.5928 103.12 52.9913 103.858 53.7881C104.653 54.5849 105.051 55.9394 105.051 57.8516V64.4648L105.046 64.8174C104.999 66.5444 104.603 67.7814 103.858 68.5283C103.12 69.3251 101.985 69.7236 100.452 69.7236V68.7236C101.824 68.7236 102.643 68.3685 103.125 67.8486L103.137 67.835L103.15 67.8223C103.664 67.3077 104.051 66.2857 104.051 64.4648Z" fill="black"/>
<path d="M34.52 144.168L33.7574 143.664V108.461V73.2584L19.4208 86.7768C3.88382 101.427 4.16321 101.219 2.34231 99.5002C1.87903 99.0629 1.5 98.4133 1.5 98.0566C1.5 97.6316 7.06045 92.1914 17.6287 82.2765L33.7574 67.1451V59.5882C33.7574 55.4319 33.7122 52.0314 33.6572 52.0314C33.602 52.0314 28.5412 56.7687 22.4108 62.5587C12.4875 71.9311 11.1459 73.0861 10.1821 73.0861C9.42134 73.0861 8.88813 72.8324 8.3883 72.2326C7.00006 70.5667 6.74982 70.8855 16.2562 62.2095C19.9366 58.8505 25.5344 53.7148 28.6958 50.7968L34.4438 45.4913V38.072C34.4438 33.9914 34.3268 30.6527 34.1837 30.6527C34.0406 30.6527 30.2971 34.0781 25.8647 38.2648C17.2504 46.4016 16.7889 46.7037 15.2267 45.2291C13.6357 43.7273 13.867 43.4307 24.3205 33.568L34.1006 24.3405V16.8073C34.1006 12.664 33.9845 9.27405 33.8427 9.27405C33.7009 9.27405 31.5172 11.2477 28.9901 13.6599C26.4631 16.0722 24.1185 18.1858 23.7799 18.3568C22.5064 19.0002 20.6315 17.7156 20.6315 16.1996C20.6315 14.9871 34.8788 1.5 36.1596 1.5C36.828 1.5 38.6658 3.05804 44.2792 8.38328C48.2699 12.1691 51.638 15.5956 51.764 15.9977C51.9371 16.5507 51.7428 16.9651 50.966 17.6983C50.4011 18.2315 49.7163 18.6677 49.4441 18.6677C48.7084 18.6677 47.429 17.6292 42.7596 13.2421C40.4368 11.0597 38.4648 9.27405 38.3775 9.27405C38.2901 9.27405 38.2186 12.664 38.2186 16.8073V24.3405L47.9987 33.568C58.4523 43.4307 58.6835 43.7273 57.0926 45.2291C55.5483 46.6868 55.0976 46.3906 46.3851 38.1928C41.8935 33.9665 38.2133 30.6504 38.2068 30.8236C38.1994 30.9968 38.2055 34.4441 38.2179 38.4841L38.241 45.8296L51.0983 57.9027C64.8235 70.7907 64.8227 70.7897 63.2559 72.3772C61.6786 73.9752 61.4912 73.8411 49.556 62.5713C43.4315 56.7881 38.3642 52.1097 38.2953 52.1747C38.2264 52.2397 38.1851 55.6959 38.2037 59.8552L38.2373 67.4175L54.1849 82.4878C65.8498 93.5109 70.1326 97.7556 70.1326 98.2935C70.1326 99.1172 68.7191 100.619 67.9439 100.619C67.142 100.619 65.9494 99.5503 51.9521 86.2868C44.6661 79.3827 38.5954 73.7339 38.4616 73.7339C38.3278 73.7339 38.2184 89.4681 38.2184 108.699V143.664L37.4557 144.168C37.0362 144.445 36.3756 144.672 35.9878 144.672C35.5999 144.672 34.9395 144.445 34.52 144.168Z" fill="black"/>
<path d="M36.7188 16.8076C36.7188 14.7288 36.7365 12.8339 36.7656 11.4551C36.7801 10.7679 36.7973 10.1978 36.8174 9.79395C36.8272 9.59637 36.8391 9.4163 36.8535 9.27539C36.8599 9.21273 36.8715 9.11307 36.8926 9.01074C36.9007 8.97135 36.9251 8.85088 36.9824 8.71191C37.0081 8.64953 37.0772 8.49047 37.2158 8.32227C37.3391 8.17276 37.7236 7.77441 38.3779 7.77441L38.5693 7.78613C38.7455 7.80878 38.8717 7.85622 38.916 7.87305C39.0026 7.90597 39.0693 7.94038 39.1055 7.95996C39.1789 7.99971 39.2361 8.03897 39.2646 8.05859C39.3272 8.10157 39.3861 8.14683 39.4287 8.18066C39.5196 8.25292 39.6316 8.34644 39.7529 8.45117C39.9997 8.66421 40.3371 8.96572 40.7373 9.32812C41.5401 10.0551 42.6212 11.053 43.7871 12.1484L45.3818 13.6387C46.8213 14.9736 47.8129 15.8596 48.5225 16.4355C48.9137 16.7531 49.1848 16.9462 49.3711 17.0625C49.5459 16.9436 49.7492 16.7842 49.9365 16.6074L50.1484 16.3984C50.1551 16.3915 50.1606 16.3837 50.167 16.377C50.1144 16.3172 50.0567 16.2501 49.9912 16.1777C49.6152 15.7627 49.0736 15.1947 48.4014 14.5107C47.3951 13.487 46.1157 12.2238 44.7012 10.8613L43.2471 9.47168C40.4377 6.80651 38.6037 5.11311 37.3955 4.08887C36.8597 3.63463 36.4765 3.33982 36.207 3.15527C36.1465 3.19696 36.0786 3.24345 36.0049 3.29688C35.5376 3.6355 34.9089 4.13922 34.1621 4.77148C32.6744 6.03105 30.7949 7.73441 28.9463 9.48438C27.0975 11.2345 25.2979 13.014 23.9678 14.4219C23.3 15.1287 22.7684 15.7225 22.4121 16.1631C22.3265 16.2689 22.2559 16.3594 22.1992 16.4355C22.2644 16.5659 22.3819 16.7175 22.5762 16.8506C22.7269 16.9538 22.8702 17.0057 22.9746 17.0215C23.0196 17.0283 23.0515 17.0255 23.0713 17.0234C23.0728 17.0222 23.0755 17.0218 23.0771 17.0205C23.1552 16.9598 23.2664 16.8685 23.4121 16.7451C23.7022 16.4995 24.0928 16.1551 24.5596 15.7344C25.4912 14.8945 26.6988 13.7735 27.9541 12.5752L29.7715 10.8594C30.3387 10.3305 30.8586 9.85237 31.3047 9.44922C31.7491 9.04757 32.1295 8.71273 32.4131 8.47363C32.5522 8.35634 32.6846 8.24832 32.7969 8.16406C32.85 8.12423 32.9236 8.06967 33.0049 8.01953C33.0438 7.99552 33.1139 7.95422 33.2021 7.91406C33.2382 7.89764 33.4954 7.77441 33.8428 7.77441L33.9873 7.78027C34.6883 7.84384 35.0403 8.35628 35.1025 8.44922C35.2169 8.62005 35.2719 8.7778 35.292 8.83789C35.3388 8.97816 35.3621 9.11016 35.374 9.18164C35.4014 9.34639 35.4212 9.54607 35.4375 9.74805C35.4711 10.1652 35.5008 10.7454 35.5244 11.4355C35.5719 12.8228 35.6006 14.7244 35.6006 16.8076V24.9873L25.3496 34.6592C20.0646 39.6456 17.5143 42.0777 16.4395 43.4561C16.256 43.6913 16.1495 43.8592 16.0859 43.9688C16.1299 44.0138 16.1844 44.0712 16.2559 44.1387L16.4922 44.3486C16.5118 44.3648 16.5294 44.3774 16.5439 44.3887C16.634 44.3536 16.8046 44.2763 17.0791 44.0967C18.3237 43.2819 20.4657 41.3018 24.835 37.1748L27.9922 34.2119C28.9715 33.2994 29.8626 32.4754 30.6201 31.7822C31.3766 31.09 32.0052 30.5226 32.457 30.126C32.6811 29.9293 32.8729 29.7655 33.0186 29.6465C33.0886 29.5893 33.1661 29.5269 33.2402 29.4736C33.2744 29.4491 33.335 29.4067 33.4082 29.3643C33.4436 29.3437 33.5104 29.3065 33.5967 29.2705C33.6446 29.2505 33.874 29.1524 34.1836 29.1523L34.3252 29.1592C35.0126 29.2203 35.3655 29.7137 35.4346 29.8145C35.5518 29.9856 35.6079 30.1438 35.6289 30.2051C35.6777 30.3474 35.7027 30.4814 35.7148 30.5527C35.7428 30.7174 35.7629 30.916 35.7793 31.1152C35.8133 31.5273 35.8424 32.0996 35.8662 32.7793C35.9141 34.1464 35.9434 36.0201 35.9434 38.0723V46.1484L29.7129 51.8994C28.131 53.3595 25.9402 55.374 23.6846 57.4434L17.2676 63.3174C14.885 65.4919 13.1303 67.0881 11.8496 68.2939C10.5511 69.5166 9.814 70.2706 9.41699 70.7764C9.36048 70.8484 9.31552 70.9091 9.28027 70.96C9.34295 71.0355 9.42348 71.1314 9.54102 71.2725L9.64062 71.3838C9.73129 71.4753 9.79419 71.5113 9.83203 71.5293C9.87585 71.5501 9.957 71.5777 10.127 71.583C10.161 71.568 10.2241 71.539 10.3213 71.4795C10.6278 71.2919 11.1192 70.9223 11.958 70.2002C13.6218 68.7679 16.4084 66.1642 21.3809 61.4678L25.7188 57.3789C27.057 56.1198 28.2669 54.9833 29.2871 54.0283C30.307 53.0737 31.1394 52.2984 31.7207 51.7607C32.0106 51.4926 32.2415 51.2802 32.4033 51.1338C32.4829 51.0618 32.552 50.9996 32.6055 50.9531C32.6302 50.9316 32.6641 50.9034 32.6982 50.876C32.7125 50.8645 32.7475 50.8357 32.792 50.8047C32.8115 50.7911 32.8613 50.7575 32.9277 50.7207C32.9603 50.7027 33.024 50.6679 33.1084 50.6348C33.1622 50.6137 33.373 50.5312 33.6572 50.5312L33.8447 50.543C34.2626 50.5947 34.5518 50.8099 34.7002 50.9531C34.8644 51.1118 34.9541 51.2703 34.9922 51.3438C35.0706 51.4953 35.1043 51.6267 35.1143 51.665C35.14 51.7645 35.1516 51.8493 35.1553 51.8779C35.165 51.9534 35.1701 52.0318 35.1738 52.0898C35.1819 52.2163 35.1892 52.3854 35.1953 52.5811C35.2077 52.9782 35.2184 53.5438 35.2275 54.2314C35.2458 55.6095 35.2578 57.5055 35.2578 59.5879V67.7949L34.7832 68.2393L18.6553 83.3701C13.3734 88.3254 9.35014 92.1565 6.65039 94.7979C5.29869 96.1203 4.28947 97.1343 3.62305 97.8379C3.47213 97.9972 3.34232 98.1369 3.23242 98.2578C3.27801 98.3125 3.32473 98.3645 3.37207 98.4092L3.67188 98.6904C3.70176 98.7178 3.72948 98.7387 3.75293 98.7588C3.77099 98.7512 3.79192 98.7439 3.81445 98.7334C4.02749 98.6339 4.35272 98.4386 4.8418 98.0742C6.85071 96.5776 10.5716 93.0592 18.3916 85.6855L35.2578 69.7822V142.857L35.3477 142.917L35.5146 143.009C35.5841 143.042 35.6654 143.075 35.7529 143.105C35.8353 143.134 35.907 143.153 35.96 143.164C35.9708 143.166 35.98 143.168 35.9873 143.169C35.9948 143.168 36.0043 143.166 36.0156 143.164C36.0686 143.153 36.1403 143.134 36.2227 143.105C36.3973 143.045 36.5466 142.971 36.6279 142.917L36.7188 142.857V108.699C36.7188 99.0815 36.7459 90.336 36.79 83.9941C36.8121 80.8243 36.838 78.2513 36.8672 76.4688C36.8818 75.5788 36.8978 74.8777 36.9141 74.3965C36.9221 74.1589 36.9305 73.9597 36.9404 73.8135C36.945 73.7458 36.9517 73.6592 36.9629 73.5771C36.9672 73.5455 36.9794 73.4559 37.0078 73.3516C37.0189 73.311 37.056 73.1751 37.1406 73.0195C37.1822 72.9432 37.2761 72.7853 37.4453 72.6299C37.6222 72.4674 37.9685 72.2344 38.4619 72.2344L38.6582 72.2471C38.8386 72.2709 38.9672 72.3204 39.0098 72.3369C39.0958 72.3704 39.1613 72.4055 39.1963 72.4248C39.2677 72.4642 39.3237 72.5014 39.3496 72.5195C39.407 72.5596 39.4596 72.6013 39.4951 72.6299C39.5719 72.6916 39.6651 72.7709 39.7656 72.8584C39.971 73.0371 40.2573 73.2936 40.6104 73.6143C41.3188 74.2577 42.323 75.1844 43.5469 76.3232C45.9962 78.6023 49.3383 81.7442 52.9834 85.1982L57.6582 89.623C61.7767 93.5161 64.3011 95.8789 65.8975 97.3096C66.9719 98.2725 67.5713 98.7641 67.9297 99.0127C67.9306 99.0133 67.9317 99.014 67.9326 99.0146C68.0248 98.9427 68.1303 98.8499 68.2363 98.7373C68.3189 98.6495 68.3913 98.5606 68.4531 98.4775C68.3734 98.3846 68.2794 98.2766 68.168 98.1533C67.6129 97.5392 66.7377 96.6366 65.4775 95.3877C63.5916 93.5185 60.8838 90.9107 57.1875 87.3984L53.1543 83.5781L36.7402 68.0664L36.7041 59.8623C36.6948 57.7771 36.7001 55.8644 36.7168 54.4619C36.7251 53.7623 36.7362 53.1816 36.75 52.7676C36.7568 52.5631 36.7647 52.3841 36.7744 52.2471C36.779 52.1824 36.7861 52.1011 36.7969 52.0225C36.8017 51.987 36.8119 51.9163 36.832 51.834C36.8418 51.7943 36.8624 51.7167 36.8994 51.624C36.919 51.575 37.0183 51.3172 37.2666 51.083C37.7008 50.6738 38.2005 50.6654 38.3887 50.6768C38.5979 50.6895 38.7551 50.744 38.8193 50.7676C38.9587 50.8188 39.0609 50.8798 39.0918 50.8984C39.1728 50.9474 39.2399 50.9975 39.2715 51.0215C39.3473 51.0789 39.4332 51.1501 39.5166 51.2207C39.6901 51.3676 39.9309 51.5786 40.2236 51.8408C40.8125 52.3682 41.6497 53.1343 42.6719 54.0781C44.7181 55.9674 47.5209 58.5863 50.5859 61.4805L54.5498 65.2158C57.9896 68.4419 59.9415 70.2057 61.1631 71.0801C61.5666 71.3689 61.8131 71.4992 61.9434 71.5586C61.9995 71.5077 62.0803 71.4329 62.1885 71.3232L62.3584 71.1465C62.254 70.9698 62.0723 70.7113 61.7627 70.3428C60.6787 69.0522 58.5328 66.9662 54.6113 63.2656L36.7432 46.4805L36.7178 38.4893C36.7116 36.4894 36.7072 34.6109 36.7051 33.2061L36.708 30.7598C36.7242 30.3844 36.9082 29.8151 37.5 29.4971C37.953 29.2537 38.3715 29.321 38.4863 29.3418C38.756 29.3908 38.9529 29.5057 38.9795 29.5205C39.102 29.5887 39.2124 29.6694 39.2744 29.7158C39.4224 29.8266 39.6128 29.9832 39.8252 30.1631C40.259 30.5306 40.8737 31.0733 41.6182 31.7441C43.1108 33.0891 45.1622 34.9826 47.4131 37.1006L50.3252 39.8281C52.8565 42.1818 54.3098 43.4596 55.251 44.0781C55.5263 44.259 55.6987 44.3383 55.791 44.375C55.8458 44.3318 55.9342 44.2598 56.0625 44.1387L56.2314 43.9688C56.1678 43.8592 56.0629 43.6908 55.8799 43.4561C55.0737 42.4223 53.4376 40.7957 50.4404 37.9434L46.9697 34.6592L36.7188 24.9873V16.8076ZM39.7188 23.6924L49.0283 32.4766L52.4717 35.7344C55.4964 38.6117 57.3028 40.403 58.2451 41.6113C58.8416 42.3762 59.4068 43.2804 59.3057 44.3076C59.2289 45.0864 58.783 45.657 58.4287 46.0225L58.1221 46.3203C57.7574 46.6646 57.1156 47.2692 56.1777 47.3857C55.2294 47.5034 54.3704 47.0889 53.6035 46.585C52.4526 45.8287 50.8055 44.3742 48.2422 41.9893L45.3574 39.2852C43.1657 37.2229 41.1707 35.3813 39.707 34.0605C39.7095 35.32 39.7128 36.8515 39.7178 38.4795L39.7383 45.1787L56.6396 61.0537C60.5811 64.7723 62.8651 66.9899 64.0605 68.4131C64.469 68.8994 64.8013 69.3517 65.0352 69.7832C65.2696 70.216 65.4551 70.719 65.4473 71.2793C65.4389 71.8716 65.2184 72.3383 64.9775 72.6846C64.8717 72.8367 64.7507 72.9804 64.6348 73.1074L64.3232 73.4307C64.0088 73.7492 63.323 74.5082 62.2549 74.5986C61.2372 74.6848 60.2932 74.1467 59.417 73.5195C58.0347 72.5301 55.9265 70.6205 52.4639 67.3721L48.5264 63.6621C45.467 60.7733 42.6734 58.1617 40.6377 56.2822C40.3078 55.9776 39.9972 55.6932 39.71 55.4297C39.7006 56.6806 39.6968 58.2088 39.7041 59.8486L39.7344 66.7676L55.2148 81.3975L59.252 85.2217C62.9559 88.7412 65.6818 91.3667 67.5889 93.2568C68.8575 94.5142 69.7811 95.4641 70.3936 96.1416C70.6966 96.4769 70.9485 96.7717 71.1318 97.0195C71.222 97.1414 71.3196 97.2842 71.4014 97.4355C71.451 97.5275 71.6328 97.86 71.6328 98.2939C71.6327 98.8779 71.4011 99.3951 71.2061 99.7412C70.9918 100.121 70.7134 100.482 70.4209 100.793C70.129 101.103 69.7854 101.403 69.418 101.637C69.0917 101.844 68.5642 102.119 67.9443 102.119C67.2921 102.119 66.7594 101.851 66.2207 101.478C65.6925 101.111 64.9689 100.506 63.8955 99.5439C62.2697 98.0869 59.716 95.6964 55.5918 91.7979L50.9199 87.376C47.2792 83.9261 43.9439 80.7908 41.5029 78.5195C40.8963 77.955 40.3461 77.4442 39.8604 76.9961C39.8344 78.7356 39.8102 81.1235 39.79 84.0156C39.746 90.3485 39.7188 99.0864 39.7188 108.699V144.47L38.2832 145.419C37.945 145.643 37.5543 145.82 37.1973 145.942C36.8597 146.058 36.4181 146.172 35.9873 146.172C35.5567 146.172 35.1157 146.058 34.7783 145.942C34.5106 145.85 34.2242 145.728 33.9551 145.578L33.6924 145.419L32.9297 144.915L32.2578 144.47V76.7334L20.4502 87.8682C12.7332 95.1447 8.82464 98.8473 6.63379 100.479C6.07302 100.897 5.5622 101.229 5.08398 101.452C4.60169 101.677 4.06748 101.833 3.49219 101.794C2.89311 101.753 2.42973 101.513 2.08594 101.266C1.93562 101.158 1.7881 101.032 1.65527 100.912L1.3125 100.591C0.970106 100.268 0.672232 99.8811 0.452148 99.5039C0.289937 99.2259 0.0652611 98.7786 0.0117188 98.2754L0 98.0566L0.00585938 97.9277C0.0302662 97.6379 0.129616 97.4261 0.15918 97.3633C0.212333 97.2503 0.271104 97.156 0.313477 97.0918C0.400137 96.9605 0.50372 96.8277 0.603516 96.707C0.808512 96.4592 1.09483 96.1444 1.44531 95.7744C2.1517 95.0286 3.19349 93.9832 4.55273 92.6533C7.27526 89.9896 11.3163 86.142 16.6025 81.1826L32.2578 66.4951V59.5879C32.2578 58.0299 32.2481 56.58 32.2373 55.3779C31.9575 55.6392 31.6563 55.9198 31.3369 56.2188C30.3188 57.1718 29.1109 58.306 27.7744 59.5635L23.4404 63.6494C18.4898 68.3252 15.6438 70.9854 13.915 72.4736C13.0577 73.2117 12.4129 73.7171 11.8867 74.0391C11.3312 74.3789 10.7934 74.5859 10.1816 74.5859C9.6291 74.5859 9.07626 74.492 8.54297 74.2383C8.07833 74.0172 7.69667 73.7074 7.37207 73.3496L7.23633 73.1934C7.10201 73.0322 6.88321 72.7812 6.72168 72.5576C6.54627 72.3148 6.32331 71.9557 6.22656 71.4873C6.01328 70.4537 6.53343 69.5904 7.05664 68.9238C7.61183 68.2166 8.50814 67.3191 9.79297 66.1094C11.0956 64.8829 12.8746 63.265 15.2451 61.1016L21.6562 55.2324C23.91 53.1648 26.0992 51.1523 27.6787 49.6943L32.9434 44.834V38.0723C32.9434 36.4639 32.9243 34.9759 32.8936 33.7695C32.8129 33.8432 32.7298 33.918 32.6455 33.9951C31.8954 34.6815 31.0106 35.4992 30.0371 36.4062L26.8945 39.3555C22.6496 43.3651 20.2529 45.6046 18.7227 46.6064C17.9547 47.1092 17.0935 47.5186 16.1426 47.3945C15.4422 47.3031 14.9057 46.941 14.5254 46.6182L14.1973 46.3203C13.874 46.0152 13.116 45.3459 13.0137 44.3076C12.9125 43.2804 13.4777 42.3762 14.0742 41.6113C15.3307 40.0002 18.1229 37.3526 23.291 32.4766L32.6006 23.6924V16.8076C32.6006 15.1464 32.5802 13.6115 32.5488 12.375C32.3168 12.5887 32.0724 12.816 31.8174 13.0537L30.0254 14.7451C28.7539 15.9589 27.5253 17.1003 26.5684 17.9629C26.0909 18.3933 25.6743 18.7611 25.3506 19.0352C25.1898 19.1713 25.0427 19.2917 24.918 19.3887C24.8528 19.4393 24.7333 19.5321 24.5967 19.6162L24.4561 19.6953C23.1699 20.345 21.788 19.9474 20.8799 19.3252C19.9597 18.6946 19.1318 17.5773 19.1318 16.1992C19.1319 15.8459 19.2471 15.5657 19.3008 15.4443C19.3687 15.2908 19.4503 15.1494 19.5244 15.0322C19.6739 14.7961 19.8688 14.5376 20.0801 14.2764C20.5078 13.7475 21.0996 13.089 21.7871 12.3613C23.1683 10.8994 25.0107 9.07885 26.8838 7.30566C28.757 5.53241 30.6798 3.78858 32.2236 2.48145C32.9925 1.83048 33.6871 1.27086 34.2441 0.867188C34.5198 0.66741 34.7898 0.485253 35.0342 0.34668C35.1557 0.277788 35.2982 0.204735 35.4502 0.144531C35.5744 0.0953505 35.8362 8.53309e-05 36.1592 0L36.3984 0.0146484C36.9454 0.0817354 37.4202 0.362639 37.7363 0.567383C38.1721 0.84961 38.698 1.26077 39.335 1.80078C40.6161 2.88689 42.5079 4.63518 45.3115 7.29492L46.7812 8.7002C48.2124 10.0786 49.5123 11.3617 50.541 12.4082C51.2252 13.1042 51.7983 13.7054 52.2139 14.1641C52.42 14.3916 52.601 14.5979 52.7402 14.7715C52.809 14.8572 52.8811 14.9519 52.9453 15.0469C52.9738 15.089 53.0554 15.2086 53.1279 15.3721L53.1953 15.5498L53.2559 15.7734C53.3758 16.2994 53.3432 16.8551 53.0791 17.418C52.891 17.8187 52.6076 18.1712 52.3037 18.4863L51.9951 18.7891C51.6479 19.1168 51.2616 19.4189 50.9014 19.6484C50.7222 19.7626 50.5249 19.8741 50.3242 19.9629C50.1676 20.0322 49.8368 20.1679 49.4443 20.168C48.8991 20.168 48.4197 19.9733 48.0137 19.7461C47.6055 19.5176 47.1523 19.1871 46.6318 18.7646C45.8482 18.1286 44.7933 17.1855 43.333 15.8311L41.7324 14.335C41.024 13.6693 40.348 13.0431 39.751 12.4932C39.7328 13.712 39.7188 15.2018 39.7188 16.8076V23.6924Z" fill="black"/>
</svg>
