<svg width="300" height="81" viewBox="0 0 300 81" fill="none" xmlns="http://www.w3.org/2000/svg">
<g clip-path="url(#clip0_1026_1760)">
<path fill-rule="evenodd" clip-rule="evenodd" d="M0.558888 22.9434H58.1874C62.2264 22.9434 65.5014 26.2252 65.5014 30.274C65.5014 34.3228 62.2264 37.6058 58.1874 37.6058H15.1866V46.0864H39.583L30.7105 58.6918H15.1866V80.7114H12.8689C6.08876 80.7114 0.558594 75.1689 0.558594 68.3723L0.558888 22.9434Z" fill="black"/>
<path fill-rule="evenodd" clip-rule="evenodd" d="M0.558594 14.4636H58.1871C66.898 14.4636 73.9596 21.5424 73.9596 30.2745C73.9596 39.0066 66.898 46.0866 58.1871 46.0866H48.4563L39.5827 58.6919H54.8889L70.1313 80.7116H87.7549L70.4251 56.3306C80.6322 52.0438 87.6473 42.3005 87.6473 30.2742C87.6473 13.9688 74.4532 0.742188 58.1871 0.742188H12.8689C6.08876 0.742777 0.558594 6.28524 0.558594 13.0831V14.4636Z" fill="black"/>
<path d="M150.744 41.8762L140.5 30.6025H125.357V24.352H142.226C144.788 24.352 146.717 23.6536 148.016 22.2583C149.315 20.8631 149.965 18.8451 149.965 16.2031C149.965 13.561 149.288 11.5996 147.933 10.3157C146.577 9.03176 144.676 8.38995 142.226 8.38995H120.179V41.8762H113.164V1.30142H142.226C144.527 1.30142 146.587 1.64633 148.405 2.33469C150.223 3.02304 151.764 4.00859 153.027 5.29251C154.289 6.57643 155.254 8.12987 155.922 9.95251C156.591 11.7752 156.924 13.8223 156.924 16.0914C156.924 19.4775 156.19 22.3149 154.725 24.6026C153.259 26.8904 151.207 28.5372 148.573 29.5424L160.765 41.8765H150.743L150.744 41.8762ZM206.642 41.8762L200.573 31.6629H181.421L184.761 25.9142H197.177L188.157 10.7339L169.786 41.8759H161.713L184.984 3.03158C185.393 2.32467 185.875 1.76621 186.432 1.35768C186.989 0.949144 187.657 0.744141 188.436 0.744141C189.216 0.744141 189.875 0.947966 190.412 1.35768C190.95 1.76739 191.424 2.32467 191.833 3.03158L215.16 41.8759H206.642V41.8762ZM232.586 41.8762C229.765 41.8762 227.158 41.3461 224.763 40.2857C222.369 39.2253 220.291 37.7735 218.528 35.9326C216.765 34.0917 215.391 31.9047 214.408 29.374C213.425 26.8432 212.933 24.109 212.933 21.1709C212.933 18.1936 213.424 15.4776 214.408 13.0217C215.393 10.5658 216.765 8.47331 218.528 6.74285C220.291 5.0124 222.37 3.67339 224.763 2.72466C227.157 1.77593 229.765 1.30113 232.586 1.30113H254.522V8.38995H232.586C230.767 8.38995 229.088 8.71513 227.548 9.36696C226.007 10.0188 224.68 10.9195 223.566 12.0732C222.452 13.227 221.58 14.604 220.95 16.2031C220.319 17.8022 220.003 19.5706 220.003 21.5049C220.003 23.4023 220.319 25.1696 220.95 26.8067C221.58 28.4438 222.453 29.8491 223.566 31.0211C224.679 32.1931 226.007 33.1135 227.548 33.7836C229.088 34.4537 230.767 34.7874 232.586 34.7874H249.901V24.2403H231.639V18.2684H257.027V41.8762H232.586ZM263.542 41.8762V1.30142H299.674V8.39025H270.556V34.7877H299.729V41.8765L263.542 41.8762ZM275.733 24.2403V18.2684H298.171V24.2403H275.733Z" fill="black"/>
<path d="M113.164 80.3741V53.0438H136.302V57.8178H117.889V80.3738H113.164V80.3741ZM121.377 69.0585V64.8857H135.177V69.0585H121.377ZM139.865 80.3741V53.0438H144.627V80.3741H139.865ZM158.352 80.3741V57.8181H148.001V53.0441H173.466V57.8181H163.115V80.3741H158.352ZM181.04 60.3745V80.3741H176.503V55.5622C176.503 54.6847 176.721 53.9899 177.159 53.4759C177.597 52.9619 178.19 52.7051 178.94 52.7051C179.291 52.7051 179.627 52.7811 179.953 52.931C180.279 53.0809 180.615 53.3325 180.966 53.6833L200.203 72.8178V52.8182H204.741V77.8546C204.741 78.7579 204.522 79.4586 204.084 79.9594C203.645 80.4601 203.079 80.7116 202.378 80.7116C201.603 80.7116 200.879 80.3741 200.203 79.6966L181.04 60.3745ZM209.353 80.3741V53.0438H233.691V57.8178H214.079V75.5998H233.729V80.3738H209.353V80.3741ZM217.566 68.4942V64.4725H232.68V68.4942H217.566ZM237.817 80.3741V75.6001H258.254C259.529 75.6001 260.511 75.2737 261.198 74.6219C261.885 73.9701 262.229 73.1062 262.229 72.0276C262.229 70.8505 261.886 69.9669 261.198 69.3778C260.51 68.7887 259.529 68.4942 258.254 68.4942H245.729C244.454 68.4942 243.298 68.3004 242.261 67.9125C241.224 67.5245 240.348 66.9846 239.634 66.2948C238.92 65.605 238.372 64.7853 237.985 63.833C237.598 62.8807 237.404 61.8398 237.404 60.7132C237.404 59.6098 237.585 58.5886 237.947 57.6487C238.31 56.7088 238.847 55.9012 239.56 55.2249C240.272 54.5486 241.154 54.0149 242.204 53.627C243.255 53.2391 244.454 53.0441 245.804 53.0441H265.379V57.8181H245.804C244.704 57.8181 243.853 58.1126 243.254 58.7017C242.654 59.2908 242.354 60.112 242.354 61.1635C242.354 62.2151 242.66 63.0315 243.273 63.6071C243.886 64.1826 244.717 64.4725 245.767 64.4725H258.254C261.029 64.4725 263.136 65.1243 264.573 66.4262C266.01 67.7281 266.729 69.7104 266.729 72.3663C266.729 73.5188 266.554 74.5839 266.204 75.5621C265.854 76.5403 265.329 77.3847 264.63 78.099C263.931 78.8133 263.048 79.3717 261.985 79.7717C260.922 80.1717 259.679 80.3744 258.254 80.3744H237.817V80.3741ZM270.817 80.3741V75.6001H291.254C292.53 75.6001 293.511 75.2737 294.199 74.6219C294.887 73.9701 295.23 73.1062 295.23 72.0276C295.23 70.8505 294.887 69.9669 294.199 69.3778C293.511 68.7887 292.53 68.4942 291.254 68.4942H278.73C277.454 68.4942 276.299 68.3004 275.262 67.9125C274.225 67.5245 273.349 66.9846 272.635 66.2948C271.921 65.605 271.373 64.7853 270.986 63.833C270.599 62.8807 270.405 61.8398 270.405 60.7132C270.405 59.6098 270.586 58.5886 270.948 57.6487C271.31 56.7088 271.848 55.9012 272.561 55.2249C273.273 54.5486 274.155 54.0149 275.204 53.627C276.253 53.2391 277.454 53.0441 278.805 53.0441H298.38V57.8181H278.805C277.705 57.8181 276.854 58.1126 276.254 58.7017C275.655 59.2908 275.354 60.112 275.354 61.1635C275.354 62.2151 275.661 63.0315 276.274 63.6071C276.887 64.1826 277.717 64.4725 278.768 64.4725H291.254C294.03 64.4725 296.137 65.1243 297.574 66.4262C299.011 67.7281 299.73 69.7104 299.73 72.3663C299.73 73.5188 299.555 74.5839 299.205 75.5621C298.855 76.5403 298.33 77.3847 297.631 78.099C296.932 78.8133 296.049 79.3717 294.986 79.7717C293.923 80.1717 292.68 80.3744 291.254 80.3744H270.817V80.3741Z" fill="black"/>
</g>
<defs>
<clipPath id="clip0_1026_1760">
<rect width="300" height="81" fill="white"/>
</clipPath>
</defs>
</svg>
