<svg width="288" height="288" viewBox="0 0 288 288" fill="none" xmlns="http://www.w3.org/2000/svg">
<g clip-path="url(#clip0_1026_1717)">
<g clip-path="url(#clip1_1026_1717)">
<path fill-rule="evenodd" clip-rule="evenodd" d="M212.454 211.054C205.819 212.785 206.066 205.407 210.187 204.006C212.083 205.16 212.578 208.045 212.454 211.054ZM210.064 216.288C204.211 223.17 198.112 207.138 203.675 205.366C202.521 207.592 203.181 210.683 204.294 212.661C206.107 215.834 206.973 214.928 210.064 216.288ZM223.005 204.295C222.757 201.822 223.458 198.731 224.117 196.505C224.694 194.445 225.354 191.436 226.796 190.488C226.837 195.722 225.106 200.544 223.005 204.295ZM251.112 222.635C251.195 217.607 251.648 213.609 252.101 208.581C252.39 205.078 254.492 198.236 251.442 197.618C247.238 196.794 247.238 209.611 243.57 215.917C243.323 212.537 243.735 209.117 244.147 205.861C244.559 202.316 245.672 199.267 241.757 198.854C239.655 201.945 239.861 205.449 239.655 209.57C235.904 211.878 238.995 213.609 234.956 219.09C232.442 217.977 231.701 214.351 231 211.383C230.629 209.858 230.464 208.127 230.093 206.726C229.351 204.006 228.074 204.336 227.909 203.8C227.868 203.676 227.744 203.676 227.703 203.635C228.486 201.822 228.568 200.338 229.228 198.442C230.712 193.868 233.473 184.471 225.271 185.378C222.716 188.345 222.139 189.787 220.861 194.074C219.872 197.536 219.089 201.286 218.883 205.201L216.122 207.921C214.35 196.711 210.641 199.885 205.035 199.761C199.183 199.637 196.834 206.85 197.823 212.785C198.73 218.06 202.439 223.789 208.703 222.346C214.597 221.027 214.391 216.288 216.328 214.474L218.966 211.754C219.295 214.722 219.955 221.522 222.675 222.016C225.436 222.552 225.89 217.03 226.879 212.661C228.692 215.958 228.816 220.203 231.33 222.923C234.998 226.756 238.542 222.635 239.531 218.967L239.861 219.502C240.314 220.285 241.015 222.14 241.922 222.552C245.384 222.882 246.084 220.945 247.279 218.431C247.774 221.563 245.713 233.556 247.898 235.37C252.349 239.038 250.659 228.981 251.112 222.635ZM133.283 202.069C132.994 204.089 132.5 205.119 132.376 207.839C131.923 216.535 127.43 220.739 124.999 215.463C123.392 211.919 123.227 207.921 125.122 204.542C127.801 199.679 130.48 200.709 133.283 202.069ZM93.3469 222.181C95.7373 223.006 97.5094 223.583 99.7762 222.058L103.527 217.977C103.568 217.813 103.691 217.813 103.774 217.73C104.475 222.181 107.153 220.862 107.854 217.813C108.431 215.381 108.555 213.238 109.338 210.889C110.08 214.516 109.997 222.387 113.171 222.923C116.921 223.5 118.281 216.37 119.765 213.897C120.218 218.39 121.496 220.368 124.628 222.181C129.244 224.819 132.458 219.544 133.324 218.761C136.003 222.923 138.682 222.387 141.773 218.843C143.669 216.659 145.894 212.661 143.957 209.199C137.94 208.334 143.05 215.752 137.198 216.288C135.096 212.702 137.074 205.984 137.487 205.407C138.764 203.553 139.465 203.676 137.981 200.915C132.17 190.282 121.372 197.907 120.136 205.984C119.311 205.243 119.435 205.078 117.828 205.243C115.891 207.757 117.704 209.817 114.077 216.123C113.129 211.507 113.748 204.624 112.223 200.915C110.286 199.637 109.173 199.885 108.307 202.193L107.689 201.039C107.359 200.421 107.566 200.585 107.071 200.05C103.568 196.382 103.527 205.655 103.527 207.963C100.6 210.559 102.537 210.806 100.477 215.216C99.1992 217.936 96.1494 218.596 94.2124 216.164C89.9262 210.806 95.8197 204.377 91.9456 200.833C94.4184 198.648 94.6245 194.733 90.2147 195.063C89.4316 195.351 86.5054 199.225 90.9153 200.833C88.1128 203.512 86.0109 215.711 93.3469 222.181Z" fill="black"/>
<path fill-rule="evenodd" clip-rule="evenodd" d="M62.1924 211.014C56.134 212.827 55.2685 206.027 59.9668 204.049C61.8626 205.244 62.316 208.005 62.1924 211.014ZM59.802 216.289C54.6091 222.141 48.6331 210.643 52.466 205.986C53.043 205.326 52.4248 205.903 53.2078 205.368C52.6308 208.211 52.7957 210.684 54.1969 212.951C56.0103 215.877 56.8346 214.97 59.802 216.289ZM74.2267 217.484C72.5369 214.599 71.96 211.426 72.7018 207.263C73.2376 204.378 75.1746 198.979 78.7602 201.823C79.7493 202.606 81.1506 204.172 81.1094 205.368C81.0269 207.14 78.8838 217.526 74.2267 217.484ZM49.3337 218.267L50.2404 219.215C50.6526 219.669 50.8586 219.916 51.2296 220.287C53.9084 222.966 57.7825 223.172 60.7499 221.482C65.6955 218.597 62.3984 217.196 68.498 212.085C68.8689 226.634 79.296 223.955 81.6863 216.165L83.541 220.658C84.4889 221.111 85.478 221.935 87.0853 221.317C89.0223 220.575 89.8054 217.69 87.4562 216.124C85.9313 215.135 86.4259 216.289 85.6428 214.022C83.9943 209.242 86.1786 197.084 87.2502 191.273C87.6623 188.965 88.2805 185.791 85.6428 185.42C81.4391 184.802 82.2633 194.734 81.5627 197.908C79.7081 195.888 75.7928 195.064 73.1964 197.455C68.8689 201.452 71.0945 204.214 68.3332 205.656L67.138 206.439C66.4373 207.14 66.767 207.14 65.8604 207.923C64.0882 196.878 59.6783 199.556 56.711 199.886C54.98 200.092 54.1145 199.309 51.9302 200.381C49.375 201.617 47.9325 204.543 47.4791 208.211C46.9021 212.868 48.1798 214.805 49.3337 218.267Z" fill="black"/>
<path fill-rule="evenodd" clip-rule="evenodd" d="M16.9397 209.982C17.1046 211.589 18.1761 211.425 19.4537 211.96C25.4709 214.351 37.9586 218.348 44.2643 217.194C46.9844 216.7 46.0777 216.535 48.0971 218.06L48.1795 220.286L48.1383 220.327C42.6157 224.407 23.5339 217.607 16.8161 216.205C17.1046 217.524 17.6815 218.761 17.0221 220.079C16.5276 221.151 15.25 221.852 14.096 221.44C11.9941 220.656 12.7359 215.711 12.8184 213.897C11.6644 213.444 10.7165 212.95 9.68613 212.331C7.83152 211.26 6.34783 210.477 4.32837 209.694C-0.163901 208.045 2.72104 202.729 6.38905 204.377C6.96604 204.624 7.54303 204.913 8.03759 205.325C8.28487 205.531 8.49094 205.737 8.73822 205.943C9.56249 206.561 12.1589 206.355 13.1893 206.355C13.2305 204.748 13.4778 203.223 13.6838 201.657C13.7663 201.039 13.9311 199.967 13.519 199.431C13.0656 198.69 13.0244 198.154 12.9832 197.288C12.9008 195.022 13.3541 190.406 15.0439 188.675C13.1068 188.84 13.6426 188.963 12.0765 189.87C10.9225 190.488 9.72734 190.653 8.53215 191.065C6.5539 191.766 4.08109 193.826 2.06163 193.826C1.23736 193.62 0.248234 192.466 0.0833804 191.683C-0.493609 189.54 2.55619 188.015 4.1223 187.397C7.1721 186.078 10.6753 185.625 13.9723 184.842C17.6403 184.718 21.3083 184.595 24.9763 184.553C28.7268 184.512 32.8069 184.471 36.5573 184.842C38.4119 185.048 40.349 185.625 42.0799 186.367C45.7892 187.974 49.7044 191.148 47.6438 195.64C45.5831 200.215 38.4119 203.264 33.9609 204.913C30.2929 206.273 26.5012 207.344 22.7096 208.334C22.009 208.498 17.4755 209.611 16.9397 209.982ZM16.4039 188.304C16.9397 188.757 17.5167 189.128 18.1761 189.417C18.3822 189.499 18.8767 189.623 19.0004 189.788C19.2064 190.035 19.0416 190.859 19.0004 191.189C18.7119 192.672 18.4646 194.156 18.2998 195.64C17.8052 199.019 17.187 202.44 17.0633 205.861C23.4927 204.583 38.3707 201.08 42.0387 195.64C45.6243 190.282 36.681 188.881 33.2603 188.345C27.4079 187.48 22.2562 187.85 16.4039 188.304Z" fill="black"/>
<path fill-rule="evenodd" clip-rule="evenodd" d="M33.2604 188.304C37.629 188.964 45.542 190.489 42.0801 195.682C38.6593 200.792 25.2649 204.295 17.0222 205.944C17.1459 202.564 17.7641 198.979 18.2174 195.64C19.3714 187.192 19.8248 191.231 16.2804 188.263C22.38 187.81 27.1195 187.356 33.2604 188.304ZM48.0972 220.286L48.056 218.102C46.1602 216.701 47.1081 216.742 44.3056 217.236C38.0823 218.39 25.6359 214.516 19.4538 212.002C17.8465 211.384 17.0222 211.549 16.8986 209.941C18.0938 208.87 43.3989 204.79 47.6027 195.599C50.4052 189.417 41.8328 185.502 36.5574 184.925C30.9936 184.307 19.9072 184.719 13.9724 184.884C10.6754 185.667 7.131 186.161 4.12241 187.439C-3.08995 190.489 1.3611 193.58 2.06173 193.786C4.0812 193.786 6.43037 191.725 8.49104 191.025C9.72745 190.571 10.8814 190.448 12.0354 189.788C13.5191 188.964 12.9421 188.799 15.2088 188.634C13.6427 190.035 12.9421 194.239 13.0657 197.289C13.1482 200.298 14.1373 198.402 13.7252 201.658C13.5191 203.306 13.313 204.79 13.2306 206.397C7.131 206.562 9.8923 206.026 6.38915 204.419C2.80358 202.812 -0.0813688 208.004 4.36969 209.653C9.06803 211.425 9.39774 212.538 12.8597 213.857C12.8185 216.165 12.1178 220.657 14.1373 221.358C15.4149 221.852 16.5689 220.945 16.981 220.08C17.6404 218.72 17.0222 217.401 16.7337 216.124C23.6164 217.525 42.5746 224.366 48.0972 220.286ZM257.338 222.182C258.369 222.841 259.275 223.954 261.295 223.542C265.993 222.594 263.603 214.516 265.911 212.579L267.971 211.26C267.848 214.681 267.312 219.75 269.661 221.522C273.205 224.243 275.39 218.267 276.09 217.36C277.162 222.223 280.665 224.16 284.91 220.822C287.919 218.39 288.372 216.577 287.795 212.826L286.723 210.312C285.693 212.991 283.838 217.236 280.624 217.154C277.533 210.271 283.303 198.484 278.398 199.35C276.173 200.545 275.843 204.625 275.019 207.757C274.195 210.725 273.453 214.022 271.845 216.082C271.392 212.785 272.093 209.612 272.34 206.356C272.464 204.872 273.041 202.729 272.587 201.534C272.175 200.545 268.548 196.506 268.054 205.161C266.364 205.449 265.911 206.232 264.963 207.057C264.056 204.872 264.921 203.842 261.253 204.749C259.687 207.84 260.841 208.458 261.46 211.425C261.707 212.662 261.377 216.907 260.553 218.225C260.264 217.937 260.429 218.349 259.852 217.401C259.811 217.36 259.481 216.701 259.481 216.618C259.234 215.959 259.028 215.093 258.904 214.393C257.668 208.334 258.369 208.623 259.976 206.232C262.861 202.028 266.694 190.86 264.839 184.842C264.015 182.164 260.182 182.081 258.987 185.007C254.989 194.569 252.393 207.675 255.69 218.431C256.143 219.956 256.967 221.028 257.338 222.182ZM258.492 201.245C258.616 197.99 259.481 194.445 260.594 191.231C260.594 195.929 260.924 196.465 258.492 201.245ZM185.833 215.299C184.761 211.26 187.811 202.523 191.191 202.111C194.282 204.584 191.52 210.601 188.924 213.651C188.264 214.393 187.646 215.134 186.657 215.34C186.039 215.464 186.08 215.382 185.833 215.299ZM181.67 196.836C179.156 197 179.321 200.504 179.362 202.853L179.692 227.416C179.692 230.012 178.744 233.804 181.34 234.175C184.308 234.587 183.648 230.713 183.566 228.199C183.525 225.438 183.731 222.8 183.896 220.121C191.809 222.512 196.136 211.137 196.342 205.614C196.466 201.369 194.941 197.165 191.108 197.042C187.152 196.877 185.956 200.71 184.143 203.182C184.061 200.792 185.05 196.63 181.67 196.836ZM158.714 192.92C157.766 195.352 157.189 197 158.137 199.762C163.248 201.163 160.569 197.124 162.63 195.393C164.731 198.154 163.825 214.763 158.962 216.742C157.89 212.456 158.838 210.106 158.549 206.067C158.467 205.037 159.58 198.443 154.304 200.751C153.398 203.718 153.769 205.037 154.181 208.087C154.552 210.807 154.057 213.28 154.428 215.794C155.747 225.108 166.421 226.921 167.534 201.245C167.616 199.102 167.616 194.486 166.421 192.714C166.38 192.632 166.298 192.508 166.256 192.426C163.207 187.398 158.962 192.714 158.714 192.92ZM168.688 98.3353C168.853 99.2008 168.976 99.1184 169.718 100.025C175.983 107.691 173.057 111.647 169.347 121.332C165.679 130.976 166.05 137.9 165.061 148.162C164.855 150.347 162.794 166.296 163 166.956C163.66 167.863 164.443 167.863 164.814 168.769C165.102 169.593 164.855 169.552 165.02 170.294C165.267 171.572 165.102 170.418 165.556 171.407C166.627 173.756 162.836 177.094 168.358 177.506C168.729 176.682 169.265 175.446 169.677 174.374L170.955 171.077L172.686 170.871C173.51 164.565 174.252 158.713 175.117 152.531C175.529 149.687 176.889 135.592 177.673 134.521C179.197 134.603 178.785 134.603 179.816 138.601L183.401 152.943C184.019 155.622 187.523 171.324 188.182 172.355C188.429 172.561 189.171 172.643 189.666 173.179C190.861 174.415 189.995 177.548 189.542 178.908C195.724 179.114 192.839 176.27 194.776 175.281C194.859 175.281 194.941 175.199 195.023 175.199C195.065 175.157 195.312 175.034 195.394 174.992C196.837 174.292 196.548 174.663 198.032 174.251C197.826 172.231 196.507 168.439 195.848 166.42C193.705 159.95 191.726 156.446 191.932 150.141C192.221 142.269 190.655 130.276 190.243 121.703C190.078 118.324 190.407 115.15 190.16 111.688C190.037 110.081 189.872 108.639 189.995 106.99C190.119 105.548 190.572 103.94 190.366 102.622L192.715 96.3159C193.705 93.8018 196.713 92.5242 200.711 86.6307L211.509 70.9283C214.682 66.23 212.539 67.6313 217.361 63.716C218.721 62.6032 218.309 62.0674 218.35 60.0892C216.001 60.0068 217.155 60.0892 215.548 61.8614C214.105 63.4275 213.034 64.3754 212.539 62.4796C212.251 63.8396 211.632 67.384 211.138 68.2907L203.225 78.6353C200.546 82.056 200.257 81.8087 198.032 84.2403C195.106 87.4137 188.141 91.9884 183.36 91.7412L183.319 88.8562C184.349 88.8562 184.596 88.9799 185.421 88.6501C187.316 82.9215 185.668 75.7503 179.115 76.1624C170.749 76.6982 173.675 85.4355 175.035 89.5156C175.859 89.5156 179.239 88.8562 178.414 91.4114C178.126 92.3181 178.456 92.0297 177.137 92.1121C170.749 92.4006 165.267 88.6914 161.517 84.5288L157.972 80.6959C157.354 79.9953 156.777 79.542 156.118 78.8413L150.678 72.5769C149.441 71.052 149.482 69.5271 148.782 66.7658C147.793 69.1974 146.144 67.6313 144.248 66.3124C143.877 67.1779 141.94 66.5597 143.836 69.1149C144.537 70.0216 147.01 70.8459 149.029 73.4424C150.101 74.8436 151.049 76.3685 152.12 77.7286L168.482 98.2117C168.523 98.2529 168.606 98.2941 168.688 98.3353Z" fill="black"/>
<path fill-rule="evenodd" clip-rule="evenodd" d="M190.367 102.623C190.573 103.941 190.119 105.549 189.996 106.991C189.872 108.64 190.037 110.082 190.161 111.69C190.408 115.151 190.078 118.325 190.243 121.704C190.655 130.277 192.221 142.27 191.933 150.142C191.727 156.447 193.705 159.951 195.848 166.421C196.507 168.441 197.826 172.232 198.032 174.252C196.549 174.664 196.837 174.293 195.395 174.993C195.312 175.035 195.065 175.158 195.024 175.2C194.941 175.2 194.859 175.282 194.776 175.282C192.839 176.271 195.724 179.115 189.542 178.909C189.996 177.549 190.861 174.416 189.666 173.18C189.171 172.644 188.43 172.562 188.182 172.356C187.523 171.325 184.02 155.623 183.401 152.944L179.816 138.602C178.786 134.604 179.198 134.604 177.673 134.522C176.89 135.593 175.53 149.688 175.118 152.532C174.252 158.714 173.51 164.566 172.686 170.872L170.955 171.078L169.677 174.375C169.265 175.447 168.729 176.683 168.359 177.507C162.836 177.095 166.628 173.757 165.556 171.408C165.103 170.419 165.268 171.573 165.02 170.295C164.855 169.553 165.103 169.594 164.814 168.77C164.443 167.864 163.66 167.864 163.001 166.957C162.795 166.297 164.855 150.348 165.061 148.163C166.051 137.901 165.68 130.977 169.348 121.333C173.057 111.648 175.983 107.692 169.719 100.026C168.977 99.1194 168.853 99.2018 168.688 98.3363C168.606 98.2951 168.523 98.2539 168.482 98.2127L152.12 77.7296C151.049 76.3695 150.101 74.8446 149.029 73.4434C147.01 70.8469 144.537 70.0227 143.837 69.116C141.941 66.5607 143.878 67.1789 144.249 66.3134C146.144 67.6323 147.793 69.1984 148.782 66.7668C149.483 69.5281 149.442 71.053 150.678 72.5779L156.118 78.8423C156.778 79.543 157.355 79.9963 157.973 80.697L161.517 84.5298C165.268 88.6924 170.749 92.4016 177.137 92.1131C178.456 92.0307 178.126 92.3192 178.415 91.4125C179.239 88.8572 175.859 89.5166 175.035 89.5166C173.675 85.4365 170.749 76.6992 179.115 76.1635C185.668 75.7513 187.317 82.9225 185.421 88.6512C184.597 88.9809 184.349 88.8572 183.319 88.8572L183.36 91.7422C188.141 91.9895 195.106 87.4148 198.032 84.2413C200.258 81.8097 200.546 82.057 203.225 78.6363L211.138 68.2917C211.633 67.385 212.251 63.8406 212.539 62.4806C213.034 64.3764 214.106 63.4285 215.548 61.8624C217.155 60.0902 216.001 60.0078 218.351 60.0902C218.309 62.0684 218.721 62.6042 217.361 63.717C212.539 67.6323 214.683 66.231 211.509 70.9293L200.711 86.6317C196.713 92.5252 193.705 93.8028 192.716 96.3169L190.367 102.623ZM213.529 59.3484C210.685 59.2247 211.509 60.2963 210.314 65.8189C209.861 67.9208 199.887 79.8315 198.156 81.48L197.002 82.634C195.065 84.7359 190.531 88.5275 186.822 89.5166C187.399 86.2196 187.853 83.2522 187.069 79.8315L186.657 78.389C185.545 76.8229 184.473 75.3392 181.918 74.9271C179.363 74.5149 176.436 74.9271 174.499 75.875L173.098 77.3174C170.502 80.326 172.686 86.7553 173.469 90.2173C169.389 89.2694 165.638 86.3432 163.578 84.2001L156.283 76.081C155.912 75.875 156.159 76.081 155.788 75.7513C155.747 75.7101 155.582 75.5453 155.541 75.4628C155.211 75.0919 155.17 74.9271 154.923 74.4737C154.057 74.1852 153.687 73.1961 153.027 72.5367C149.359 68.6626 151.42 68.1268 149.524 64.0879H147.381L147.175 66.1074C146.227 65.7364 145.815 64.9534 145.073 64.294C143.96 63.2636 144.207 62.8515 142.641 62.8103C141.693 63.14 143.342 63.3461 140.457 64.0055C140.457 65.9837 140.498 67.7147 140.539 69.5693C141.034 69.9402 141.075 69.899 141.693 70.2287C143.672 71.1766 146.309 72.7427 147.546 74.6386L148.659 76.081C151.049 79.5018 155.871 85.2717 158.756 89.0221L162.177 93.3083C163.454 94.8744 164.443 96.1108 165.556 97.5945C170.79 104.395 173.387 105.837 170.749 113.091C167.576 121.828 165.103 126.897 164.526 137.613C164.278 142.394 163.701 146.968 163.248 151.749C162.795 156.159 161.888 160.981 161.641 165.267V168.523C162.341 168.853 162.712 169.182 163.413 169.553C163.99 174.046 163.331 170.089 164.031 172.521C164.031 172.562 164.072 172.644 164.072 172.686C164.443 175.117 161.6 179.568 169.43 178.868C170.131 178.002 170.584 176.724 171.079 175.447C172.397 171.985 170.667 173.716 173.675 172.644C174.005 172.356 174.128 170.46 174.335 169.842C174.335 169.759 174.376 169.677 174.376 169.594L174.582 169.1C174.335 168.111 174.541 167.369 174.705 166.339L178.332 139.179L184.185 163.248C184.597 164.072 184.762 164.896 184.679 165.885C185.462 166.874 185.668 169.1 185.998 170.542C186.657 173.304 185.998 173.633 188.553 174.252C189.007 178.002 187.688 176.683 187.688 179.486L194.694 179.568C196.549 176.23 194.076 177.507 197.579 175.859L198.98 175.9C200.917 173.098 194.529 158.22 193.54 154.51C192.963 152.202 193.21 144.207 193.045 141.034C192.798 136.706 192.304 132.379 192.015 128.175C191.644 123.394 191.644 119.438 191.644 114.574C191.644 106.991 190.573 105.301 194.241 96.9763C194.9 95.4102 196.631 94.2974 197.661 93.2671C199.145 91.8658 199.598 91.124 200.876 89.3518C201.783 88.1154 202.895 86.1783 203.843 85.2304L204.709 84.0352C205.368 82.7576 206.44 81.3152 207.305 80.12C208.047 79.0484 209.284 77.1114 210.19 76.2871L215.837 67.3026C219.216 63.9231 220.947 64.8297 219.917 60.8733C219.917 60.832 219.875 60.7496 219.875 60.6672C219.834 60.5848 219.834 60.5023 219.793 60.4199V59.3071C219.793 58.6477 219.793 58.3592 219.752 57.6174L216.249 57.5762C215.713 58.9774 214.847 60.049 213.817 60.9557L213.529 59.3484Z" fill="black"/>
<path fill-rule="evenodd" clip-rule="evenodd" d="M105.919 98.7888C105.383 100.149 104.188 101.797 103.446 103.075C98.5832 111.277 100.149 108.268 102.086 116.923C102.911 120.508 102.498 120.508 97.4292 123.805C94.2145 125.949 94.7503 125.825 93.2254 132.213C92.1126 136.994 90.6702 136.582 91.7005 142.681C92.2363 145.937 93.3903 149.481 94.2557 152.655C96.6873 161.639 92.8133 164.936 93.4315 168.811C93.7612 170.789 95.2449 171.448 93.143 173.179C90.835 172.643 91.0411 169.429 90.3405 167.657C89.2689 164.978 88.9804 164.442 88.6507 161.104C88.4034 158.301 87.744 143.588 83.0457 149.069C80.6553 151.872 83.9111 156.24 83.9936 165.143C83.9936 167.615 84.4057 170.088 82.2214 170.83C81.1911 168.728 82.3038 166.255 80.4904 163.576C78.7182 161.062 77.523 162.258 76.6576 158.301C76.163 156.24 74.2672 153.273 74.432 151.583C74.6381 149.935 76.163 146.679 76.8636 145.154C80.2844 137.447 80.6141 139.096 80.9438 130.977C81.3971 120.714 76.3279 125.66 74.1435 119.849C75.0915 118.283 77.3994 115.192 79.2952 114.285C82.922 112.43 82.7572 111.277 85.1063 109.257C87.7028 106.99 90.4641 107.856 91.412 111.029C92.3599 114.161 91.2884 117.541 91.1647 120.756C93.143 120.838 94.4206 120.838 96.234 120.385L99.1601 119.313C100.726 118.118 99.5723 114.738 98.6244 113.543C94.5442 108.392 94.8327 111.029 97.8413 104.888L99.6959 100.726C99.902 100.314 99.8608 100.396 100.108 100.149C100.108 99.201 102.086 93.3899 102.581 91.6589C103.281 89.1036 104.065 85.1472 104.229 82.2622C104.477 77.976 104.848 76.4099 107.856 74.7613C110.782 73.154 113.832 72.1237 114.739 71.6703C117.335 70.2691 114.285 63.3452 113.873 61.2433C111.895 51.3109 122.157 49.0853 122.611 58.8941C122.775 62.4385 121.539 66.3538 122.24 69.6921C128.916 71.5055 130.977 70.2279 135.14 73.8959C137.447 75.9153 139.261 78.1821 141.115 80.7373C141.734 81.5616 142.228 82.1798 142.805 83.004C144.866 86.1363 147.215 90.34 148.699 94.2141C150.801 99.7779 154.675 100.767 150.677 105.053C149.235 104.6 146.473 101.179 146.226 99.5307C145.443 95.162 146.185 95.4505 143.753 92.0298C141.775 89.2273 137.324 82.4683 133.326 82.3858C132.996 82.6743 133.161 82.4683 132.873 82.9216C132.049 84.0344 131.513 86.0951 131.389 87.4139C131.183 89.3509 131.101 91.7413 131.059 93.6371C130.771 100.355 133.161 103.446 131.472 105.177C129.864 106.825 130.524 107.938 131.018 110.411C134.192 125.619 134.48 138.23 134.068 154.056C134.027 155.622 133.202 175.734 133.491 176.682C133.821 177.795 134.398 177.63 133.821 178.825C132.461 179.567 130.276 177.507 129.534 176.888C125.908 174.003 127.103 175.405 125.413 174.539C124.094 164.813 125.331 140.332 123.806 131.636C123.27 128.586 121.58 122.816 120.22 120.467L119.066 120.55C116.758 123.228 113.132 160.073 111.483 168.975C111.236 170.212 110.782 170.954 110.741 172.272C110.741 173.55 111.03 174.622 111.071 175.982C108.845 176.806 105.837 178.702 103.034 178.042C102.828 176.806 104.106 175.364 104.518 174.21C105.095 172.726 105.383 171.119 105.466 169.429C105.96 158.919 105.136 147.091 106.208 136.046C106.826 129.204 107.568 121.786 107.98 115.027C108.392 108.515 109.464 100.643 109.257 94.0905C106.331 93.5547 107.98 97.2227 105.919 98.7888ZM102.581 83.3338C102.457 84.5702 102.787 84.8999 102.251 85.6417C102.045 90.2164 98.7068 98.7476 97.017 102.622C96.0279 104.806 93.4727 108.021 94.3382 110.947C95.0388 113.337 97.594 113.172 98.3771 117.871C96.6049 118.489 94.9976 119.396 92.6896 119.478C92.9781 115.357 94.0497 109.422 90.9587 107.238C89.5986 106.248 86.4252 106.372 85.0239 107.155L81.1086 110.658C80.2431 111.606 80.4904 111.689 79.1716 112.389C78.3885 112.843 77.3582 113.172 76.6988 113.667C76.2866 113.997 73.649 117.294 73.5253 117.912C73.3605 118.448 73.3605 120.962 73.4429 121.58C73.7726 124.795 78.0588 123.97 79.1716 127.267C80.2843 128.215 79.5837 131.389 79.5013 132.955C79.3364 135.84 79.3364 135.922 78.1825 138.23C76.74 141.074 75.2563 144.371 74.0611 147.462C71.9592 152.779 74.5145 156.653 75.1327 158.672C75.9157 161.31 75.4212 161.516 77.4818 163.164C78.5534 163.989 80.0371 165.184 79.9546 167.08C80.2019 167.451 79.9959 166.832 80.2431 167.739C80.3256 168.028 80.3668 168.234 80.408 168.522C80.5316 169.511 80.2431 171.448 81.1498 172.066C86.5076 174.663 85.436 164.813 85.1475 161.433C84.9415 159.249 84.6942 157.065 84.2821 154.963C83.7463 152.078 82.7984 151.625 84.7766 149.894C87.0434 153.191 87.0434 159.579 87.6204 164.112C88.0737 167.533 88.9392 167.945 89.475 170.748C89.9695 173.097 91.0411 175.734 94.2145 174.498C96.7698 173.509 94.9976 168.646 94.9564 168.192C94.7503 167.08 96.0691 162.917 96.234 161.145C96.8934 154.88 95.5334 151.748 94.1733 146.473C91.4944 136.128 92.9369 140.25 94.5854 132.996C96.1103 126.402 95.5746 127.02 99.1601 124.753C103.735 121.827 104.518 121.621 103.652 117.046C103.075 114.038 101.839 110.823 101.757 110.37C101.509 108.762 106.414 101.385 107.568 99.7367C108.103 106.455 104.806 129.864 104.518 139.508C104.312 146.514 104.229 153.726 104.229 160.856C104.229 164.277 104.477 168.069 103.776 171.201C103.075 174.374 100.644 176.147 101.633 179.196C105.054 180.35 109.876 178.578 112.472 177.053C112.431 175.611 112.348 174.745 112.266 173.385C112.101 171.819 112.472 171.654 112.761 170.212C113.873 164.318 114.574 156.117 115.522 149.935C116.264 144.948 118.118 126.773 119.643 123.599C121.045 125.413 122.405 131.718 122.817 134.645C123.929 143.258 122.94 167.121 124.136 175.693L124.548 175.899C125.66 176.394 125.619 176.188 126.814 177.053C127.597 177.671 128.092 178.166 128.999 178.825C130.647 180.062 133.12 180.309 134.686 179.856C136.376 179.361 135.263 177.053 134.851 175.57C134.48 174.251 135.098 163.453 135.14 161.433C135.634 142.599 136.129 125.949 131.925 107.32C133.244 105.342 134.192 106.207 133.409 102.127C133.038 100.231 132.584 98.1706 132.378 96.2336C132.049 92.8953 132.419 86.3836 134.15 84.3229C136.294 85.3532 140.374 89.557 141.239 91.8649C142.022 92.2771 143.423 94.6675 143.918 95.5742C144.866 97.3876 144.577 99.0361 144.948 101.056C145.237 102.539 146.803 103.941 147.668 104.93C148.987 106.372 149.317 106.99 151.996 106.578C152.49 105.754 153.315 104.724 153.397 103.364C153.85 96.4396 151.666 97.6761 150.182 93.5959C149.441 91.5765 148.493 89.3921 147.586 87.6612C146.638 85.8478 145.196 83.8695 144.454 82.3446C143.135 80.4076 140.291 76.4099 138.931 75.3795C138.89 75.2971 138.849 75.2147 138.808 75.1735C138.808 75.0911 138.725 75.0086 138.684 74.9262C138.684 74.885 138.601 74.8026 138.56 74.7201L137.324 73.6074C137.283 73.4837 137.2 73.5249 137.118 73.4837C136.335 71.9588 133.656 70.3103 131.101 69.8982C129.328 69.6509 124.589 68.9915 123.435 68.2496C122.94 63.7573 125.578 56.3389 122.281 52.7533L121.786 52.0115C120.22 51.8878 115.481 51.6406 114.409 52.2176C113.008 52.9594 112.39 55.7207 112.348 57.5341C112.142 65.5295 113.997 64.2931 114.244 70.1042C99.3662 76.2038 104.889 75.3795 102.581 83.3338Z" fill="black"/>
<path fill-rule="evenodd" clip-rule="evenodd" d="M78.5544 120.301C78.678 117.004 78.678 117.169 82.346 117.21C84.654 117.252 85.437 118.529 85.437 120.714C81.769 121.291 81.6866 120.92 78.5544 120.301ZM105.92 98.788C107.981 97.2219 106.332 93.5539 109.258 94.0897C109.465 100.643 108.393 108.514 107.981 115.026C107.569 121.785 106.827 129.204 106.209 136.045C105.137 147.09 105.961 158.919 105.467 169.428C105.384 171.118 105.096 172.725 104.519 174.209C104.107 175.363 102.829 176.805 103.035 178.042C105.838 178.701 108.846 176.805 111.072 175.981C111.031 174.621 110.742 173.549 110.742 172.272C110.783 170.953 111.237 170.211 111.484 168.975C113.133 160.073 116.759 123.228 119.067 120.549L120.221 120.466C121.581 122.816 123.271 128.585 123.807 131.635C125.332 140.331 124.095 164.812 125.414 174.538C127.104 175.404 125.909 174.003 129.535 176.888C130.277 177.506 132.462 179.567 133.822 178.825C134.399 177.629 133.822 177.794 133.492 176.682C133.203 175.734 134.028 155.621 134.069 154.055C134.481 138.229 134.193 125.618 131.019 110.41C130.525 107.937 129.865 106.825 131.473 105.176C133.162 103.445 130.772 100.354 131.06 93.6363C131.102 91.7405 131.184 89.3501 131.39 87.4131C131.514 86.0943 132.05 84.0336 132.874 82.9208C133.162 82.4675 132.997 82.6735 133.327 82.3851C137.325 82.4675 141.776 89.2265 143.754 92.029C146.186 95.4497 145.444 95.1612 146.227 99.5299C146.474 101.178 149.236 104.599 150.678 105.052C154.676 100.766 150.802 99.7772 148.7 94.2133C147.216 90.3393 144.867 86.1355 142.806 83.0033C142.229 82.179 141.735 81.5608 141.116 80.7365C139.262 78.1813 137.448 75.9145 135.141 73.8951C130.978 70.2271 128.917 71.5047 122.241 69.6913C121.54 66.353 122.776 62.4377 122.612 58.8934C122.158 49.0845 111.896 51.3101 113.874 61.2425C114.286 63.3444 117.336 70.2683 114.74 71.6695C113.833 72.1229 110.783 73.1532 107.857 74.7606C104.849 76.4091 104.478 77.9752 104.23 82.2614C104.066 85.1464 103.282 89.1029 102.582 91.6581C102.087 93.3891 100.109 99.2002 100.109 100.148C99.8618 100.395 99.903 100.313 99.6969 100.725L97.8423 104.888C94.8337 111.028 94.5452 108.391 98.6254 113.542C99.5733 114.738 100.727 118.117 99.1611 119.312L96.235 120.384C94.4216 120.837 93.144 120.837 91.1657 120.755C91.2894 117.54 92.3609 114.161 91.413 111.028C90.4651 107.855 87.7038 106.99 85.1073 109.256C82.7582 111.276 82.923 112.43 79.2962 114.284C77.4004 115.191 75.0924 118.282 74.1445 119.848C76.3288 125.659 81.3981 120.714 80.9448 130.976C80.6151 139.095 80.2853 137.446 76.8646 145.153C76.164 146.678 74.6391 149.934 74.433 151.583C74.2682 153.272 76.164 156.24 76.6586 158.3C77.5653 162.257 78.7192 161.062 80.4914 163.576C82.3048 166.255 81.192 168.727 82.2224 170.829C84.4067 170.087 83.9946 167.615 83.9946 165.142C83.9121 156.24 80.6563 151.871 83.0466 149.069C87.745 143.587 88.4044 158.3 88.6517 161.103C88.9814 164.441 89.2699 164.977 90.3414 167.656C91.0421 169.428 90.836 172.643 93.144 173.178C95.2458 171.447 93.7622 170.788 93.4325 168.81C92.773 164.936 96.6883 161.639 94.2567 152.654C93.3912 149.481 92.2373 145.936 91.7015 142.68C90.6711 136.581 92.1136 136.993 93.2264 132.212C94.7513 125.824 94.2155 125.948 97.4302 123.805C102.499 120.508 102.912 120.508 102.087 116.922C100.15 108.267 98.5841 111.276 103.447 103.074C104.189 101.797 105.384 100.148 105.92 98.788Z" fill="black"/>
<path fill-rule="evenodd" clip-rule="evenodd" d="M80.2857 119.147C80.5741 118.9 79.9147 118.529 82.5936 118.529L83.3767 119.518C82.1403 119.807 81.1924 119.477 80.2857 119.147ZM78.5547 120.301C81.6869 120.92 81.7693 121.29 85.4373 120.713C85.4373 118.529 84.6543 117.252 82.3463 117.21C78.6783 117.169 78.6783 117.004 78.5547 120.301ZM162.259 130.77C161.93 127.885 161.847 127.143 163.413 125.288C164.485 123.969 169.595 119.024 170.914 118.735C175.077 117.911 173.923 119.477 174.747 117.499C175.159 116.468 175.159 117.334 174.994 116.427C171.45 115.479 170.832 117.21 169.348 118.653C168.07 119.93 166.546 121.084 164.979 122.28C163.248 123.557 156.737 127.555 154.099 127.473C154.14 126.112 154.511 125.371 154.511 124.794C154.552 124.011 154.14 124.134 154.305 122.444C154.47 120.301 154.346 118.983 152.986 117.952C147.958 114.243 146.062 123.269 147.093 125.288C147.505 126.195 148.123 126.442 147.505 127.596C145.115 129.327 138.85 125.948 137.119 125C135.677 124.175 134.275 123.186 133.08 122.197C131.061 120.59 130.69 121.373 130.36 118.241C129.783 117.952 129.866 118.158 129.577 118.035C128.217 117.416 129.041 117.169 127.97 116.551C127.805 117.87 128.176 118.653 127.558 119.642C129.371 120.343 137.284 126.483 139.18 128.049C141.364 129.822 140.993 129.203 141.323 132.501C142.394 133.407 142.642 132.789 143.384 133.861C144.579 135.55 146.062 145.194 146.145 147.873C146.186 150.181 145.485 151.253 144.991 153.272C144.043 156.817 143.466 160.938 143.095 164.688C142.023 175.61 143.384 170.458 143.878 173.508C144.002 174.167 143.837 175.775 143.878 176.64C147.629 175.404 144.661 175.486 147.258 173.219C148.123 172.478 148.453 172.478 148.576 171.2C148.865 167.532 148.329 167.037 149.36 161.638C150.225 157.27 150.101 157.6 151.915 157.558C153.151 161.597 153.687 167.326 153.604 172.107C156.119 173.549 155.665 173.508 155.789 177.094L157.891 176.475C158.014 175.569 157.973 174.415 158.138 173.549C158.426 171.571 158.756 173.673 158.756 168.109C158.756 159.619 156.943 149.728 156.984 146.183C160.652 143.216 160.528 143.875 160.322 140.496C160.157 137.693 159.993 134.767 160.075 131.965L162.259 130.77Z" fill="black"/>
<path fill-rule="evenodd" clip-rule="evenodd" d="M162.257 130.77L160.072 131.965C159.99 134.768 160.155 137.694 160.32 140.496C160.526 143.876 160.649 143.216 156.981 146.184C156.94 149.728 158.753 159.619 158.753 168.109C158.753 173.673 158.424 171.571 158.135 173.55C157.97 174.415 158.012 175.569 157.888 176.476L155.786 177.094C155.662 173.508 156.116 173.55 153.602 172.107C153.684 167.326 153.148 161.598 151.912 157.559C150.099 157.6 150.222 157.27 149.357 161.639C148.326 167.038 148.862 167.532 148.574 171.2C148.45 172.478 148.12 172.478 147.255 173.22C144.658 175.487 147.626 175.404 143.875 176.641C143.834 175.775 143.999 174.168 143.875 173.508C143.381 170.459 142.021 175.61 143.092 164.689C143.463 160.938 144.04 156.817 144.988 153.273C145.483 151.253 146.183 150.182 146.142 147.874C146.06 145.195 144.576 135.551 143.381 133.861C142.639 132.789 142.392 133.408 141.32 132.501C140.99 129.204 141.361 129.822 139.177 128.05C137.281 126.484 129.368 120.343 127.555 119.642C128.173 118.653 127.802 117.87 127.967 116.551C129.038 117.17 128.214 117.417 129.574 118.035C129.863 118.159 129.78 117.953 130.357 118.241C130.687 121.373 131.058 120.59 133.077 122.198C134.273 123.187 135.674 124.176 137.116 125C138.847 125.948 145.112 129.327 147.502 127.597C148.12 126.443 147.502 126.195 147.09 125.289C146.06 123.269 147.955 114.243 152.984 117.953C154.344 118.983 154.467 120.302 154.302 122.445C154.138 124.135 154.55 124.011 154.508 124.794C154.508 125.371 154.138 126.113 154.096 127.473C156.734 127.555 163.246 123.558 164.977 122.28C166.543 121.085 168.068 119.931 169.345 118.653C170.829 117.211 171.447 115.48 174.992 116.428C175.156 117.334 175.156 116.469 174.744 117.499C173.92 119.477 175.074 117.911 170.911 118.736C169.593 119.024 164.482 123.97 163.411 125.289C161.844 127.143 161.927 127.885 162.257 130.77ZM142.721 156.405C142.103 161.392 141.485 164.977 141.32 170.088C141.238 172.437 140.949 173.137 142.598 173.962V177.795C144.906 177.753 145.112 177.753 147.09 177.3C147.626 175.074 147.172 175.61 148.862 174.209C150.346 172.973 149.769 172.354 149.851 170.088C149.934 167.038 150.346 163.947 151.005 161.186C152.242 163.741 152.283 169.923 152.407 173.22C154.261 175.116 154.385 174.085 154.467 177.712C161.061 178.289 158.424 177.836 159.743 173.756C160.526 171.406 160.113 167.491 159.949 164.936L158.383 147.297C162.009 144.824 161.844 144.329 161.68 141.774C161.103 131.924 160.526 133.985 163.658 132.089C164.276 127.967 162.298 128.751 165.512 125.659C166.996 124.176 168.397 122.939 170.046 121.373C170.911 120.631 170.54 120.714 171.53 120.261L175.898 119.519L175.939 115.109H170.046L169.016 116.345L167.738 117.458C167.202 118.488 163.864 120.92 162.669 121.703C161.35 122.568 158.012 124.588 156.404 125.041L155.827 122.898C155.292 121.208 157.27 115.191 150.057 115.851C146.142 116.18 145.854 118.653 145.606 121.662C145.606 122.033 145.606 122.115 145.524 122.486C145.235 123.764 145.483 122.486 145.194 123.31C144.741 124.67 145.153 125.495 145.73 126.443C141.65 126.525 136.416 122.404 133.366 120.178C131.058 118.488 132.13 119.189 131.47 115.974C131.388 115.933 131.264 115.809 131.223 115.892L130.275 115.562C125.535 114.12 126.689 116.18 126.236 117.788C125.37 121.002 125.206 120.137 133.778 126.072C142.68 132.254 139.012 132.13 140.001 133.779C140.826 135.097 142.433 131.635 144.37 144.206C144.864 147.461 144.947 147.75 144.04 150.676C143.504 152.531 143.175 154.591 142.721 156.405Z" fill="black"/>
</g>
</g>
<defs>
<clipPath id="clip0_1026_1717">
<rect width="288" height="288" fill="white"/>
</clipPath>
<clipPath id="clip1_1026_1717">
<rect width="288" height="288" fill="white"/>
</clipPath>
</defs>
</svg>
