<svg width="317" height="317" viewBox="0 0 317 317" fill="none" xmlns="http://www.w3.org/2000/svg">
<g clip-path="url(#clip0_1026_1696)">
<g clip-path="url(#clip1_1026_1696)">
<path d="M129.958 198.735H126.066V192.668H130.53C131.636 192.668 132.438 192.935 132.896 193.431C133.353 193.965 133.582 194.69 133.582 195.682C133.582 196.712 133.315 197.437 132.705 197.972C132.132 198.468 131.217 198.735 129.958 198.735ZM134.307 198.582C134.956 197.781 135.261 196.751 135.261 195.568C135.261 194.118 134.88 192.973 134.117 192.248C133.315 191.485 132.209 191.104 130.721 191.104H124.387V206.48H126.066V200.299H129.958L134.002 206.48H135.948L131.789 200.108C132.819 199.918 133.697 199.383 134.307 198.582ZM139.993 199.498C140.145 198.315 140.489 197.476 141.023 196.98C141.519 196.522 142.282 196.293 143.312 196.293C144.342 196.293 145.144 196.56 145.678 197.094C146.212 197.628 146.517 198.429 146.594 199.498H139.993ZM147.166 196.484C146.365 195.339 145.067 194.766 143.312 194.766C141.71 194.766 140.45 195.263 139.573 196.293C138.695 197.285 138.276 198.773 138.276 200.719C138.276 202.741 138.733 204.229 139.649 205.298C140.603 206.328 141.9 206.824 143.579 206.824C145.144 206.824 146.517 206.557 147.624 206.023V204.344C146.517 204.992 145.22 205.336 143.694 205.336C142.473 205.336 141.557 204.954 140.908 204.191C140.26 203.466 139.954 202.398 139.954 201.024H148.349C148.387 199.116 147.967 197.628 147.166 196.484ZM156.323 194.766C154.568 194.766 152.966 195.148 151.439 195.911V206.48H153.118V196.751C154.187 196.407 155.179 196.255 156.133 196.255C158.193 196.255 159.223 197.17 159.223 199.002V206.48H160.902V199.002C160.902 197.59 160.559 196.522 159.834 195.835C159.109 195.11 157.926 194.766 156.323 194.766ZM165.786 199.498C165.9 198.315 166.244 197.476 166.778 196.98C167.274 196.522 168.037 196.293 169.067 196.293C170.098 196.293 170.899 196.56 171.433 197.094C171.967 197.628 172.272 198.429 172.349 199.498H165.786ZM172.921 196.484C172.12 195.339 170.823 194.766 169.067 194.766C167.465 194.766 166.206 195.263 165.328 196.293C164.451 197.285 164.031 198.773 164.031 200.719C164.031 202.741 164.489 204.229 165.404 205.298C166.358 206.328 167.656 206.824 169.334 206.824C170.899 206.824 172.272 206.557 173.379 206.023V204.344C172.272 204.992 170.975 205.336 169.449 205.336C168.228 205.336 167.312 204.954 166.664 204.191C166.015 203.466 165.71 202.398 165.71 201.024H174.104C174.142 199.116 173.722 197.628 172.921 196.484Z" fill="black"/>
<path d="M188.263 204.611L185.325 194.996H183.761L180.937 204.611L177.923 194.996H176.168L180.022 206.481H181.701L184.524 196.942L187.424 206.481H189.103L192.918 194.996H191.316L188.263 204.611Z" fill="black"/>
<path d="M202.989 204.153C202.989 204.649 202.76 204.954 202.264 205.107C201.806 205.297 201.043 205.374 199.937 205.374C199.059 205.374 198.334 205.183 197.724 204.84C197.113 204.458 196.77 203.886 196.77 203.084C196.77 202.359 197.037 201.825 197.571 201.482C198.105 201.1 198.83 200.909 199.822 200.909C200.394 200.909 201.005 200.986 201.539 201.1C202.111 201.215 202.569 201.367 202.989 201.558V204.153ZM200.509 194.766C199.708 194.766 198.945 194.843 198.143 195.033C197.342 195.186 196.731 195.415 196.274 195.72V197.361C196.731 197.018 197.304 196.75 197.952 196.56C198.639 196.369 199.326 196.254 199.975 196.254C201.997 196.254 202.989 197.132 202.989 198.849V200.223C202.073 199.688 200.852 199.421 199.364 199.421C198.067 199.421 196.999 199.727 196.274 200.337C195.51 200.986 195.129 201.978 195.129 203.351C195.129 204.611 195.549 205.488 196.426 206.022C197.304 206.557 198.334 206.824 199.555 206.824C201.158 206.824 202.417 206.671 203.332 206.289C204.21 205.908 204.668 205.145 204.668 204.038V198.467C204.668 197.247 204.324 196.331 203.561 195.72C202.798 195.072 201.806 194.766 200.509 194.766ZM215.809 204.038C215.275 204.878 214.245 205.336 212.757 205.336C212.032 205.336 211.383 205.221 210.849 205.068C210.315 204.878 210.048 204.572 210.048 204.153V197.132C210.506 196.865 211.002 196.674 211.536 196.522C212.108 196.369 212.604 196.331 213.139 196.331C214.321 196.331 215.199 196.712 215.771 197.475C216.344 198.239 216.649 199.269 216.649 200.604C216.649 202.054 216.344 203.199 215.809 204.038ZM213.139 194.805C212.719 194.805 212.223 194.843 211.65 194.995C211.04 195.11 210.506 195.262 210.048 195.453V190.111H208.369V204.534C208.369 206.061 209.895 206.824 212.986 206.824C214.436 206.824 215.695 206.404 216.763 205.45C217.832 204.534 218.366 202.932 218.404 200.604C218.404 198.773 217.946 197.361 217.069 196.331C216.191 195.301 214.856 194.805 213.139 194.805Z" fill="black"/>
<path d="M221.496 206.48H223.175V190.607H221.496V206.48Z" fill="black"/>
<path d="M228.021 199.499C228.173 198.316 228.517 197.477 229.013 196.981C229.547 196.523 230.31 196.294 231.34 196.294C232.371 196.294 233.172 196.561 233.706 197.095C234.24 197.629 234.545 198.431 234.622 199.499H228.021ZM235.194 196.485C234.393 195.34 233.096 194.768 231.34 194.768C229.738 194.768 228.479 195.264 227.601 196.294C226.724 197.286 226.266 198.774 226.266 200.72C226.266 202.742 226.762 204.23 227.677 205.299C228.631 206.329 229.929 206.825 231.607 206.825C233.172 206.825 234.545 206.558 235.652 206.024V204.345C234.545 204.993 233.248 205.337 231.722 205.337C230.501 205.337 229.585 204.955 228.937 204.192C228.288 203.467 227.983 202.399 227.983 201.025H236.377C236.415 199.117 235.995 197.629 235.194 196.485Z" fill="black"/>
<path d="M246.297 206.48H256.027V204.916H247.938V199.612H255.035V197.972H247.938V192.668H256.027V191.104H246.297V206.48Z" fill="black"/>
<path d="M264.46 194.767C262.705 194.767 261.064 195.148 259.576 195.911V206.481H261.255V196.751C262.323 196.407 263.315 196.255 264.269 196.255C266.329 196.255 267.36 197.171 267.36 199.002V206.481H269.038V199.002C269.038 197.59 268.657 196.522 267.97 195.835C267.245 195.11 266.062 194.767 264.46 194.767ZM273.884 199.498C274.037 198.315 274.38 197.476 274.876 196.98C275.411 196.522 276.174 196.293 277.204 196.293C278.234 196.293 279.035 196.56 279.57 197.094C280.104 197.628 280.409 198.43 280.485 199.498H273.884ZM281.058 196.484C280.218 195.339 278.959 194.767 277.204 194.767C275.601 194.767 274.342 195.263 273.465 196.293C272.587 197.285 272.129 198.773 272.129 200.719C272.129 202.741 272.625 204.229 273.541 205.298C274.495 206.328 275.792 206.824 277.471 206.824C279.035 206.824 280.371 206.557 281.516 206.023V204.344C280.409 204.993 279.112 205.336 277.585 205.336C276.364 205.336 275.449 204.954 274.8 204.191C274.151 203.466 273.808 202.398 273.808 201.024H282.24C282.24 199.117 281.859 197.628 281.058 196.484ZM287.659 195.148C286.705 195.415 285.942 195.644 285.331 195.911V206.481H287.01V196.713C287.811 196.56 288.46 196.484 288.88 196.407C289.299 196.331 289.757 196.331 290.291 196.331C290.635 196.331 291.016 196.331 291.398 196.369V194.919C291.055 194.805 290.787 194.767 290.635 194.767C289.605 194.767 288.613 194.881 287.659 195.148ZM301.814 204.497C301.357 204.764 300.861 204.954 300.326 205.107C299.754 205.26 299.22 205.336 298.724 205.336C297.541 205.336 296.625 204.954 296.091 204.191C295.519 203.428 295.214 202.36 295.214 201.062C295.214 199.574 295.519 198.43 296.053 197.59C296.625 196.751 297.694 196.331 299.22 196.331C300.021 196.331 300.632 196.446 301.128 196.636C301.586 196.865 301.814 197.285 301.814 197.896V204.497ZM302.196 195.492C301.357 195.034 300.288 194.805 299.067 194.805C297.503 194.805 296.167 195.263 295.099 196.14C294.031 197.056 293.496 198.697 293.458 201.062C293.458 202.856 293.916 204.268 294.794 205.298C295.671 206.328 297.007 206.824 298.724 206.824C299.144 206.824 299.64 206.786 300.212 206.633C300.822 206.519 301.357 206.366 301.814 206.175V207.015C301.814 207.74 301.586 208.35 301.09 208.808C300.632 209.266 299.678 209.495 298.304 209.495C297.732 209.495 297.236 209.457 296.778 209.342C296.32 209.266 295.786 209.152 295.214 208.961V210.525C295.29 210.563 295.519 210.601 295.824 210.678C296.167 210.754 296.549 210.869 297.007 210.945C297.465 211.021 297.961 211.059 298.457 211.059C300.326 211.059 301.624 210.678 302.387 209.877C303.112 209.075 303.493 208.121 303.493 206.977V197.667C303.493 196.675 303.074 195.988 302.196 195.492ZM315.322 194.996L311.697 204.382L308.034 194.996H306.126L310.934 206.557C310.59 207.511 310.247 208.236 309.865 208.694C309.522 209.19 308.988 209.419 308.339 209.419C307.958 209.419 307.652 209.342 307.347 209.228V210.754C307.691 210.869 308.072 210.945 308.415 210.945C309.102 210.945 309.751 210.716 310.361 210.22C311.01 209.724 311.582 208.846 312.04 207.625L317.001 194.996H315.322ZM45.7115 134.366L39.9118 143.065C39.9118 143.065 35.1423 139.746 45.7115 134.366ZM75.3205 127.154C81.0439 125.475 87.1107 125.132 92.9867 126.086C73.489 115.517 57.6924 125.514 57.6924 125.514C57.6924 125.514 62.1567 119.18 69.3682 116.013C68.9103 116.013 68.4143 115.975 67.9564 115.975C47.8864 115.975 31.5938 132.267 31.5938 152.375C31.5938 155.352 31.9372 158.251 32.624 160.999C35.7528 153.52 43.155 148.255 51.7783 148.255C59.4095 148.255 66.0868 152.375 69.6734 158.557C69.8261 157.87 69.9787 157.183 70.1313 156.534C70.1695 156.305 70.2458 156.115 70.2839 155.886C70.3984 155.466 70.5129 155.046 70.6273 154.627C70.7036 154.36 70.78 154.131 70.8563 153.864C70.9326 153.52 71.047 153.177 71.1615 152.833C71.2378 152.566 71.3141 152.299 71.3904 152.032C71.5049 151.727 71.5812 151.422 71.6957 151.116C71.772 150.849 71.8865 150.582 71.9628 150.315C72.0391 150.048 72.1536 149.819 72.2299 149.552C72.3444 149.285 72.4207 149.018 72.5351 148.751C72.6114 148.522 72.6878 148.331 72.7641 148.102C72.8785 147.835 72.993 147.53 73.1075 147.263C73.1456 147.11 73.2219 146.995 73.2982 146.843C73.4127 146.538 73.5272 146.232 73.6417 145.927C75.3587 141.959 76.7705 139.708 76.7705 139.708C73.8324 155.962 87.5304 158.137 97.2221 172.14C106.723 185.037 96.8023 198.124 96.8023 198.124C98.9391 203.276 103.174 208.541 105.387 211.059H105.54V163.288C105.54 163.288 105.54 135.816 75.3205 127.154Z" fill="black"/>
<path d="M85.8891 187.937L93.1769 186.563C73.7937 167.943 74.1371 150.086 74.1371 150.086C73.0687 169.317 83.1419 183.243 83.1419 183.243L75.8541 184.503C85.4313 198.43 95.7715 205.26 95.7715 205.26C95.1992 205.183 94.6269 205.107 94.0927 205.031C93.4822 204.916 92.8335 204.763 92.223 204.611C87.7588 203.352 80.3184 199.383 74.4805 190.493C74.0989 189.883 73.6792 189.272 73.2977 188.623C73.145 188.356 72.9924 188.089 72.8398 187.822C72.6872 187.555 72.5727 187.326 72.4201 187.059C72.1148 186.449 71.7714 185.838 71.4662 185.151C70.7794 183.434 70.1307 181.565 69.5965 179.581C67.4216 183.243 64.1784 186.182 60.2483 187.937C39.8349 196.064 20.4135 171.568 20.4135 149.132C20.4135 126.696 38.6139 108.534 61.0114 108.534C61.7746 108.534 62.5377 108.572 63.2626 108.61C68.0321 108.839 72.5727 109.946 76.7699 111.701C69.5965 108.038 61.4312 105.939 52.7697 105.939C35.8666 105.939 20.8332 113.876 11.1797 126.238C14.0796 124.521 17.1702 123.224 20.3753 122.27C14.5374 125.208 9.38637 129.596 5.45631 135.281C1.98411 142.34 0 150.315 0 158.709C0 165.386 1.25915 171.759 3.51035 177.635C3.39588 172.064 4.4261 166.569 6.52468 161.533C4.99844 168.935 5.53262 176.833 8.50879 184.388C10.4547 189.272 13.2783 193.622 16.6742 197.209C24.5725 204.611 34.7601 209.609 46.0543 211.059C41.0558 208.541 36.7442 204.992 33.2339 200.757C39.0336 205.603 49.1068 211.059 63.8731 211.059H104.776C91.9941 200.719 85.8891 187.937 85.8891 187.937ZM133.851 137.037C137.362 137.037 139.88 136.197 141.482 134.518C143.047 132.878 143.848 130.855 143.848 128.49C143.848 126.696 143.428 125.246 142.589 124.102C141.75 122.919 140.719 122.041 139.536 121.431C138.315 120.82 136.789 120.172 134.92 119.561C133.317 119.027 132.058 118.531 131.142 118.073C130.265 117.615 129.54 117.043 129.044 116.318C128.509 115.593 128.242 114.639 128.242 113.456C128.242 112.159 128.738 111.091 129.73 110.213C130.722 109.373 132.249 108.916 134.347 108.916C135.492 108.916 136.56 109.03 137.514 109.297C138.506 109.526 139.46 109.908 140.376 110.442C141.292 110.976 141.864 111.281 142.093 111.434V108.076C140.414 107.237 139.079 106.703 138.087 106.397C137.056 106.092 135.759 105.939 134.156 105.939C131.982 105.939 130.226 106.321 128.853 107.122C127.479 107.885 126.487 108.877 125.877 110.06C125.228 111.243 124.923 112.426 124.923 113.685C124.923 115.517 125.304 117.005 126.106 118.111C126.907 119.218 127.823 120.057 128.929 120.63C130.036 121.202 131.524 121.812 133.393 122.461C135.149 123.11 136.446 123.682 137.323 124.102C138.201 124.56 138.964 125.132 139.575 125.933C140.223 126.696 140.529 127.65 140.529 128.833C140.529 130.436 139.994 131.695 138.926 132.649C137.819 133.564 136.179 134.022 133.966 134.022C131.943 134.022 130.112 133.755 128.471 133.145C126.831 132.572 125.457 131.809 124.389 130.932V134.442C126.144 135.396 127.632 136.045 128.853 136.426C130.112 136.846 131.753 137.037 133.851 137.037Z" fill="black"/>
<path d="M152.739 111.778L163.08 127.117L174.069 111.702V136.58H177.312V106.398H173.801L163.27 122.081L153.045 106.398H149.496V136.58H152.739V111.778Z" fill="black"/>
<path d="M195.59 110.252L200.893 124.027H190.286L195.59 110.252ZM189.065 127.155H202.114L205.701 136.58H209.211L197.192 106.398H193.949L181.93 136.58H185.44L189.065 127.155ZM217.033 109.489H225.809C228.022 109.489 229.548 109.985 230.464 110.977C231.38 112.007 231.838 113.457 231.838 115.403C231.838 117.349 231.265 118.837 230.083 119.829C228.938 120.821 227.145 121.317 224.664 121.317H217.033V109.489ZM217.033 124.408H224.703L232.601 136.58H236.455L228.251 124.027C230.311 123.645 231.99 122.653 233.211 121.05C234.47 119.448 235.081 117.502 235.081 115.174C235.081 112.274 234.318 110.1 232.83 108.611C231.304 107.123 229.09 106.398 226.152 106.398H213.752V136.58H217.033V124.408Z" fill="black"/>
<path d="M249.578 136.58H252.821V109.451H263.467V106.398H238.895V109.451H249.578V136.58Z" fill="black"/>
<path d="M140.605 161.686C139.88 162.449 138.812 162.831 137.324 162.831H131.982V153.902H137.324C140.224 153.902 141.674 155.466 141.674 158.519C141.674 159.854 141.33 160.885 140.605 161.686ZM146.634 150.659C144.65 149.018 141.865 148.217 138.24 148.217H124.656V178.398H131.982V168.478H138.24C141.788 168.478 144.574 167.562 146.596 165.769C148.58 163.975 149.572 161.381 149.572 158.023C149.572 154.741 148.618 152.299 146.634 150.659Z" fill="black"/>
<path d="M172.044 178.398H179.331V148.217H172.044V160.427H160.978V148.217H153.652V178.398H160.978V166.417H172.044V178.398Z" fill="black"/>
<path d="M204.175 155.849C205.396 157.337 205.968 159.817 205.968 163.29C205.968 166.762 205.357 169.242 204.175 170.73C202.954 172.256 201.16 173.019 198.795 173.019C196.391 173.019 194.597 172.256 193.415 170.768C192.232 169.28 191.621 166.8 191.621 163.366C191.621 159.855 192.232 157.375 193.415 155.849C194.597 154.361 196.391 153.598 198.795 153.598C201.198 153.598 202.992 154.361 204.175 155.849ZM187.92 151.614C185.364 154.285 184.066 158.215 184.066 163.328C184.066 168.555 185.364 172.447 187.958 175.08C190.553 177.713 194.178 179.01 198.795 179.01C203.526 179.01 207.151 177.674 209.707 175.003C212.264 172.294 213.523 168.402 213.523 163.29C213.523 158.062 212.226 154.132 209.631 151.537C206.998 148.943 203.411 147.607 198.795 147.607C194.063 147.607 190.438 148.943 187.92 151.614Z" fill="black"/>
<path d="M218.254 178.398H238.896V172.751H225.58V166.112H237.141V160.427H225.58V153.864H238.896V148.217H218.254V178.398Z" fill="black"/>
<path d="M263.886 166.188L250.531 148.217H244.273V178.398H251.027V160.007L265.107 178.398H270.639V148.217H263.886V166.188Z" fill="black"/>
<path d="M276.555 178.398H283.881V148.217H276.555V178.398Z" fill="black"/>
<path d="M287.66 178.398H295.596L301.358 168.859L307.882 178.398H317.002L306.776 163.365L316.658 148.217H308.569L302.96 157.794L296.398 148.217H287.316L297.657 163.365L287.66 178.398Z" fill="black"/>
</g>
</g>
<defs>
<clipPath id="clip0_1026_1696">
<rect width="317" height="317" fill="white"/>
</clipPath>
<clipPath id="clip1_1026_1696">
<rect width="317" height="317" fill="white"/>
</clipPath>
</defs>
</svg>
